<svg width="55" height="55" viewBox="0 0 55 55" fill="none" xmlns="http://www.w3.org/2000/svg">
<path d="M44.6878 17.3828C44.6883 16.2083 44.3719 15.0543 43.7702 14.0365C43.1685 13.0188 42.3026 12.173 41.2596 11.5842C40.2165 10.9954 39.0328 10.6841 37.8273 10.6816C36.6218 10.6791 35.4368 10.9855 34.3912 11.5701C33.3456 12.1546 32.4761 12.9968 31.87 14.012C31.2638 15.0273 30.9424 16.18 30.9378 17.3545C30.9333 18.5291 31.2458 19.6841 31.8441 20.7038C32.4423 21.7235 33.3052 22.572 34.3463 23.1642C34.1003 26.2077 32.1893 27.0366 26.2897 28.2318C24.3818 28.617 22.43 29.0116 20.6274 29.6897V16.4817C21.9381 15.7445 22.9625 14.6064 23.5416 13.2442C24.1208 11.8819 24.2224 10.3715 23.8307 8.94725C23.439 7.52299 22.5759 6.26445 21.3752 5.36683C20.1745 4.46921 18.7034 3.98267 17.1899 3.98267C15.6765 3.98267 14.2054 4.46921 13.0047 5.36683C11.804 6.26445 10.9409 7.52299 10.5492 8.94725C10.1575 10.3715 10.2591 11.8819 10.8383 13.2442C11.4174 14.6064 12.4418 15.7445 13.7524 16.4817V38.3786C12.4438 39.1148 11.4205 40.2507 10.841 41.6104C10.2615 42.9702 10.1579 44.4781 10.5464 45.901C10.9348 47.3238 11.7937 48.5823 12.99 49.4819C14.1864 50.3814 15.6536 50.8718 17.1648 50.8773C18.6759 50.8828 20.1469 50.403 21.3501 49.5122C22.5533 48.6214 23.4217 47.3691 23.821 45.9492C24.2203 44.5292 24.1283 43.0205 23.5592 41.6566C22.9901 40.2927 21.9756 39.1494 20.6726 38.4037C20.9293 36.5198 22.3913 35.8573 27.6829 34.7909C30.6295 34.1974 33.6749 33.5831 36.253 31.9703C39.3683 30.0257 41.0365 27.0743 41.2331 23.1904C42.2825 22.604 43.1544 21.7583 43.761 20.7386C44.3676 19.719 44.6873 18.5614 44.6878 17.3828ZM17.1878 7.3355C17.8677 7.3355 18.5323 7.53192 19.0976 7.89993C19.6629 8.26793 20.1035 8.79099 20.3636 9.40296C20.6238 10.0149 20.6919 10.6883 20.5592 11.338C20.4266 11.9877 20.0992 12.5844 19.6185 13.0528C19.1377 13.5212 18.5252 13.8401 17.8584 13.9694C17.1916 14.0986 16.5004 14.0323 15.8723 13.7788C15.2442 13.5253 14.7073 13.096 14.3296 12.5453C13.9519 11.9945 13.7503 11.347 13.7503 10.6846C13.7503 9.79637 14.1125 8.94451 14.7571 8.31643C15.4018 7.68835 16.2761 7.3355 17.1878 7.3355ZM17.1878 47.5248C16.5079 47.5248 15.8433 47.3284 15.278 46.9604C14.7127 46.5924 14.2721 46.0693 14.012 45.4573C13.7518 44.8454 13.6837 44.172 13.8163 43.5223C13.949 42.8726 14.2764 42.2759 14.7571 41.8075C15.2379 41.3391 15.8504 41.0201 16.5172 40.8909C17.184 40.7617 17.8751 40.828 18.5033 41.0815C19.1314 41.335 19.6683 41.7643 20.046 42.315C20.4237 42.8658 20.6253 43.5133 20.6253 44.1757C20.6253 45.0639 20.2631 45.9158 19.6185 46.5439C18.9738 47.1719 18.0995 47.5248 17.1878 47.5248ZM37.8128 20.7319C37.1329 20.7319 36.4683 20.5355 35.903 20.1675C35.3377 19.7995 34.8971 19.2764 34.637 18.6645C34.3768 18.0525 34.3087 17.3791 34.4413 16.7294C34.574 16.0798 34.9014 15.483 35.3821 15.0146C35.8629 14.5463 36.4754 14.2273 37.1422 14.0981C37.809 13.9688 38.5001 14.0352 39.1283 14.2887C39.7564 14.5421 40.2933 14.9714 40.671 15.5222C41.0487 16.0729 41.2503 16.7204 41.2503 17.3828C41.2503 18.2711 40.8881 19.1229 40.2435 19.751C39.5988 20.3791 38.7245 20.7319 37.8128 20.7319Z" fill="#04A777"/>
</svg>
