<svg width="55" height="55" viewBox="0 0 55 55" fill="none" xmlns="http://www.w3.org/2000/svg">
<path d="M44.6883 17.3828C44.6888 16.2083 44.3724 15.0543 43.7707 14.0365C43.1689 13.0188 42.3031 12.173 41.2601 11.5842C40.217 10.9954 39.0333 10.6841 37.8278 10.6816C36.6223 10.6791 35.4373 10.9855 34.3917 11.5701C33.346 12.1546 32.4766 12.9968 31.8705 14.012C31.2643 15.0273 30.9429 16.18 30.9383 17.3545C30.9338 18.5291 31.2463 19.6841 31.8445 20.7038C32.4428 21.7235 33.3057 22.572 34.3468 23.1642C34.1008 26.2077 32.1897 27.0366 26.2901 28.2318C24.3823 28.617 22.4305 29.0116 20.6279 29.6897V16.4817C21.9386 15.7445 22.9629 14.6064 23.5421 13.2442C24.1213 11.8819 24.2229 10.3715 23.8312 8.94725C23.4395 7.52299 22.5763 6.26445 21.3757 5.36683C20.175 4.46921 18.7039 3.98267 17.1904 3.98267C15.677 3.98267 14.2059 4.46921 13.0052 5.36683C11.8045 6.26445 10.9414 7.52299 10.5497 8.94725C10.158 10.3715 10.2596 11.8819 10.8388 13.2442C11.4179 14.6064 12.4423 15.7445 13.7529 16.4817V38.3786C12.4443 39.1148 11.421 40.2507 10.8415 41.6104C10.262 42.9702 10.1584 44.4781 10.5469 45.901C10.9353 47.3238 11.7941 48.5823 12.9905 49.4819C14.1868 50.3814 15.6541 50.8718 17.1652 50.8773C18.6764 50.8828 20.1474 50.403 21.3505 49.5122C22.5537 48.6214 23.4222 47.3691 23.8215 45.9492C24.2208 44.5292 24.1288 43.0205 23.5597 41.6566C22.9906 40.2927 21.9761 39.1494 20.673 38.4037C20.9298 36.5198 22.3918 35.8573 27.6834 34.7908C30.63 34.1974 33.6754 33.5831 36.2535 31.9703C39.3688 30.0257 41.037 27.0743 41.2336 23.1904C42.2829 22.604 43.1549 21.7583 43.7615 20.7386C44.3681 19.719 44.6878 18.5614 44.6883 17.3828ZM17.1883 7.3355C17.8682 7.3355 18.5328 7.53192 19.0981 7.89993C19.6634 8.26793 20.1039 8.79099 20.3641 9.40296C20.6243 10.0149 20.6924 10.6883 20.5597 11.338C20.4271 11.9877 20.0997 12.5844 19.619 13.0528C19.1382 13.5212 18.5257 13.8401 17.8589 13.9694C17.1921 14.0986 16.5009 14.0323 15.8728 13.7788C15.2447 13.5253 14.7078 13.096 14.3301 12.5453C13.9524 11.9945 13.7508 11.347 13.7508 10.6846C13.7508 9.79637 14.1129 8.94451 14.7576 8.31643C15.4023 7.68835 16.2766 7.3355 17.1883 7.3355ZM17.1883 47.5248C16.5084 47.5248 15.8438 47.3284 15.2785 46.9604C14.7132 46.5924 14.2726 46.0693 14.0124 45.4573C13.7523 44.8454 13.6842 44.172 13.8168 43.5223C13.9495 42.8726 14.2769 42.2759 14.7576 41.8075C15.2383 41.3391 15.8509 41.0201 16.5177 40.8909C17.1845 40.7617 17.8756 40.828 18.5038 41.0815C19.1319 41.335 19.6687 41.7643 20.0465 42.315C20.4242 42.8658 20.6258 43.5133 20.6258 44.1757C20.6258 45.0639 20.2636 45.9158 19.619 46.5439C18.9743 47.1719 18.1 47.5248 17.1883 47.5248ZM37.8133 20.7319C37.1334 20.7319 36.4688 20.5355 35.9035 20.1675C35.3382 19.7995 34.8976 19.2764 34.6374 18.6645C34.3773 18.0525 34.3092 17.3791 34.4418 16.7294C34.5745 16.0798 34.9019 15.483 35.3826 15.0146C35.8633 14.5463 36.4759 14.2273 37.1427 14.0981C37.8095 13.9688 38.5006 14.0352 39.1288 14.2887C39.7569 14.5421 40.2937 14.9714 40.6715 15.5222C41.0492 16.0729 41.2508 16.7204 41.2508 17.3828C41.2508 18.2711 40.8886 19.1229 40.244 19.751C39.5993 20.3791 38.725 20.7319 37.8133 20.7319Z" fill="#01C3FF"/>
</svg>
