<svg width="30" height="30" viewBox="0 0 30 30" fill="none" xmlns="http://www.w3.org/2000/svg">
<g clip-path="url(#clip0)">
<path d="M15.0033 8.08404C10.7468 8.08404 7.31344 11.4127 7.31344 15.5396C7.31344 19.6664 10.7468 22.9951 15.0033 22.9951C19.2599 22.9951 22.6933 19.6664 22.6933 15.5396C22.6933 11.4127 19.2599 8.08404 15.0033 8.08404ZM15.0033 20.3866C12.2527 20.3866 10.0039 18.2129 10.0039 15.5396C10.0039 12.8662 12.246 10.6925 15.0033 10.6925C17.7607 10.6925 20.0028 12.8662 20.0028 15.5396C20.0028 18.2129 17.754 20.3866 15.0033 20.3866ZM24.8015 7.77907C24.8015 8.74588 23.9983 9.51804 23.0078 9.51804C22.0106 9.51804 21.2142 8.7394 21.2142 7.77907C21.2142 6.81874 22.0173 6.0401 23.0078 6.0401C23.9983 6.0401 24.8015 6.81874 24.8015 7.77907ZM29.8946 9.54399C29.7808 7.21455 29.232 5.15114 27.4718 3.45111C25.7184 1.75107 23.5901 1.21899 21.1874 1.1022C18.7111 0.965934 11.2889 0.965934 8.8126 1.1022C6.41662 1.2125 4.28834 1.74458 2.52817 3.44462C0.767987 5.14466 0.225878 7.20806 0.10541 9.53751C-0.0351366 11.9383 -0.0351366 19.1343 0.10541 21.5351C0.219186 23.8646 0.767987 25.928 2.52817 27.628C4.28834 29.328 6.40993 29.8601 8.8126 29.9769C11.2889 30.1132 18.7111 30.1132 21.1874 29.9769C23.5901 29.8666 25.7184 29.3345 27.4718 27.628C29.2253 25.928 29.7741 23.8646 29.8946 21.5351C30.0351 19.1343 30.0351 11.9448 29.8946 9.54399ZM26.6955 24.1111C26.1735 25.3829 25.1629 26.3627 23.8444 26.8753C21.8701 27.6345 17.1852 27.4593 15.0033 27.4593C12.8215 27.4593 8.12995 27.628 6.1623 26.8753C4.85053 26.3692 3.83993 25.3894 3.31121 24.1111C2.52817 22.197 2.70887 17.6549 2.70887 15.5396C2.70887 13.4242 2.53486 8.87566 3.31121 6.96798C3.83324 5.6962 4.84384 4.7164 6.1623 4.20379C8.13664 3.44462 12.8215 3.61981 15.0033 3.61981C17.1852 3.61981 21.8767 3.45111 23.8444 4.20379C25.1562 4.70991 26.1668 5.68971 26.6955 6.96798C27.4785 8.88215 27.2978 13.4242 27.2978 15.5396C27.2978 17.6549 27.4785 22.2034 26.6955 24.1111Z" fill="#F8AF32"/>
</g>
<defs>
<clipPath id="clip0">
<rect width="30" height="30" fill="white"/>
</clipPath>
</defs>
</svg>
