<svg width="38" height="38" viewBox="0 0 38 38" fill="none" xmlns="http://www.w3.org/2000/svg">
<path d="M30.4787 13.4129C30.0992 13.2833 29.7169 13.1625 29.332 13.0507C29.3958 12.7909 29.4547 12.5297 29.5086 12.267C30.377 8.04391 29.8092 4.64173 27.8714 3.52177C26.0159 2.44708 22.9729 3.56704 19.9032 6.24485C19.6014 6.50907 19.3058 6.7812 19.0163 7.06126C18.8234 6.87522 18.6254 6.69313 18.4226 6.51501C15.2052 3.65165 11.9804 2.44559 10.0448 3.56927C8.1893 4.64618 7.63785 7.84426 8.41938 11.8469C8.49755 12.2427 8.58538 12.6368 8.68285 13.0292C8.22641 13.1591 7.78555 13.2979 7.36398 13.4448C3.59664 14.7622 1.1875 16.8277 1.1875 18.9697C1.1875 21.1829 3.77328 23.402 7.70168 24.7476C8.02033 24.8559 8.34194 24.9566 8.66652 25.0497C8.56113 25.4697 8.46786 25.8945 8.38672 26.324C7.64453 30.2576 8.22344 33.38 10.0752 34.4502C11.9878 35.5553 15.1963 34.4198 18.3239 31.6811C18.5713 31.4644 18.8187 31.2355 19.0661 30.9946C19.3788 31.2969 19.7004 31.5903 20.0309 31.8748C23.059 34.4858 26.0493 35.5405 27.8981 34.4673C29.8092 33.3584 30.4304 30.0038 29.6237 25.9225C29.5618 25.6108 29.4906 25.2926 29.4099 24.968C29.6355 24.9012 29.8565 24.8322 30.0727 24.7609C34.1547 23.405 36.814 21.2125 36.814 18.9719C36.8125 16.8195 34.3262 14.7407 30.4787 13.4129ZM20.9045 7.39524C23.534 5.10114 25.9921 4.19567 27.1129 4.84286C28.3055 5.53235 28.7694 8.31259 28.0198 11.959C27.9703 12.1965 27.9169 12.4332 27.8595 12.6692C26.2902 12.3123 24.6989 12.0604 23.0961 11.9152C22.1784 10.5932 21.1725 9.33484 20.0851 8.14856C20.3513 7.89028 20.6239 7.63917 20.903 7.39524H20.9045ZM11.7065 20.7999C12.0286 21.4233 12.3653 22.0391 12.7166 22.6472C13.0744 23.2677 13.4472 23.879 13.8351 24.4811C12.7323 24.3612 11.6363 24.1846 10.5517 23.952C10.8664 22.9337 11.2538 21.8761 11.7065 20.7999ZM11.7065 17.2129C11.2612 16.1597 10.8842 15.1236 10.5747 14.1232C11.5915 13.8953 12.6751 13.709 13.8047 13.568C13.4262 14.1588 13.062 14.7582 12.7122 15.3663C12.3624 15.9744 12.0264 16.59 11.7043 17.2129H11.7065ZM12.5155 19.0068C12.9846 18.0286 13.4898 17.0692 14.0311 16.1286C14.5719 15.1885 15.1476 14.2699 15.7581 13.3728C16.818 13.2927 17.9045 13.2504 19.0022 13.2504C20.0999 13.2504 21.1932 13.2927 22.2523 13.3736C22.8564 14.2686 23.4286 15.184 23.9689 16.1197C24.5093 17.0553 25.0211 18.0103 25.5045 18.9845C25.0276 19.9662 24.5169 20.9295 23.9727 21.8746C23.4328 22.8147 22.8638 23.736 22.2656 24.6385C21.208 24.7127 20.1133 24.7535 19 24.7535C17.8867 24.7535 16.8128 24.7186 15.7745 24.6511C15.1594 23.7511 14.579 22.8285 14.0333 21.8835C13.4875 20.9384 12.9809 19.9795 12.5133 19.0068H12.5155ZM25.29 22.6368C25.6488 22.0144 25.9931 21.3837 26.3232 20.745C26.7756 21.7707 27.1749 22.8191 27.5196 23.8859C26.4221 24.133 25.3125 24.3225 24.1953 24.4537C24.5723 23.8555 24.9373 23.2499 25.29 22.6368ZM26.3083 17.2136C25.9798 16.5877 25.6381 15.9692 25.2834 15.3582C24.937 14.7555 24.5761 14.1603 24.2005 13.5725C25.3368 13.7165 26.4271 13.9079 27.4491 14.1417C27.1205 15.1841 26.7397 16.2094 26.3083 17.2136ZM19.0171 9.23884C19.7582 10.0486 20.458 10.8953 21.1138 11.7756C19.711 11.7088 18.3073 11.7088 16.9026 11.7756C17.595 10.8598 18.3038 10.01 19.0171 9.23884ZM10.8107 4.88813C12.0027 4.19641 14.6382 5.18501 17.4162 7.65426C17.5936 7.81235 17.7724 7.97786 17.9505 8.1493C16.8576 9.33541 15.8445 10.5927 14.918 11.9129C13.3187 12.057 11.7306 12.3049 10.1635 12.6551C10.073 12.291 9.99133 11.9243 9.91859 11.5552C9.24691 8.12407 9.69148 5.53755 10.8107 4.88813ZM9.07324 23.5801C8.77637 23.4955 8.4832 23.4037 8.19375 23.3048C6.45703 22.711 5.02238 21.9362 4.0375 21.0923C3.15578 20.336 2.70898 19.5812 2.70898 18.9697C2.70898 17.6701 4.64312 16.012 7.86867 14.8876C8.27391 14.7466 8.6826 14.6177 9.09477 14.5009C9.57381 16.0405 10.154 17.5467 10.8315 19.0097C10.1459 20.493 9.55856 22.0198 9.07324 23.5801ZM17.3212 30.5322C15.9385 31.7434 14.5536 32.6022 13.3327 33.0349C12.2357 33.423 11.3621 33.4341 10.8345 33.1291C9.71078 32.4797 9.2432 29.9718 9.88074 26.6083C9.95645 26.2124 10.043 25.8166 10.1405 25.4208C11.7233 25.7617 13.3274 25.9945 14.9417 26.1177C15.8773 27.4448 16.8987 28.7092 17.9995 29.9028C17.7784 30.1203 17.552 30.3296 17.3212 30.5322ZM19.0594 28.8088C18.338 28.0288 17.618 27.1656 16.9159 26.2379C17.5983 26.2646 18.2929 26.278 19 26.278C19.7259 26.278 20.4443 26.2624 21.1523 26.2305C20.4989 27.1249 19.8004 27.9855 19.0594 28.8088ZM28.3011 30.9307C28.0888 32.0767 27.6621 32.8411 27.1344 33.1469C26.0114 33.7986 23.6105 32.9517 21.0217 30.7185C20.7248 30.4632 20.428 30.1893 20.1259 29.9021C21.2053 28.7038 22.2028 27.4343 23.1117 26.1021C24.735 25.9645 26.3469 25.7153 27.9359 25.3562C28.0087 25.6501 28.073 25.9381 28.1289 26.2201C28.4859 28.0236 28.5371 29.6549 28.3011 30.9307ZM29.5925 23.3129C29.398 23.3775 29.1977 23.4399 28.9943 23.5007C28.496 21.9539 27.8932 20.4428 27.19 18.9778C27.8668 17.5323 28.4461 16.0431 28.9238 14.5202C29.2882 14.6264 29.6422 14.7377 29.9829 14.8557C33.2797 15.9927 35.291 17.676 35.291 18.9697C35.291 20.3501 33.1186 22.1418 29.5925 23.3129Z" fill="#F8AF32"/>
<path d="M18.9989 22.159C19.6306 22.1611 20.2486 21.9756 20.7748 21.6262C21.301 21.2768 21.7117 20.7791 21.9549 20.1961C22.198 19.6131 22.2627 18.9711 22.1407 18.3513C22.0188 17.7316 21.7156 17.1619 21.2697 16.7146C20.8238 16.2672 20.2551 15.9622 19.6358 15.8382C19.0164 15.7142 18.3742 15.7768 17.7904 16.0181C17.2067 16.2593 16.7076 16.6684 16.3565 17.1934C16.0053 17.7185 15.8179 18.3359 15.8179 18.9676C15.817 19.386 15.8986 19.8006 16.058 20.1875C16.2175 20.5744 16.4516 20.9262 16.747 21.2225C17.0424 21.5189 17.3934 21.7542 17.7798 21.9149C18.1662 22.0756 18.5805 22.1585 18.9989 22.159Z" fill="#F8AF32"/>
</svg>
