<svg width="55" height="55" viewBox="0 0 55 55" fill="none" xmlns="http://www.w3.org/2000/svg">
<g clip-path="url(#clip0)">
<path d="M54.9764 35.2419C54.8185 33.9614 54.1696 32.8507 53.0428 31.9365C53.0288 31.9195 53.0133 31.9036 52.9966 31.8892L52.9396 31.8484L52.9214 31.8355L52.323 31.4058L52.3026 31.3908L52.2264 31.3371C52.1984 31.3208 52.1684 31.3081 52.1372 31.2995C50.2444 30.1726 47.1109 29.3831 42.3167 31.075C41.1727 29.15 41.0427 27.6074 41.8086 25.2441C41.945 24.8327 41.8183 24.5609 41.4101 24.3847C40.5894 24.0356 39.4657 24.2139 38.6686 24.4245C38.297 24.5212 38.0735 24.7317 38.0026 25.0508C37.4977 27.414 36.0304 29.5732 34.6113 31.6572L34.5275 31.7797C33.6531 29.9256 33.8347 28.4893 34.4437 26.69C34.5651 26.3312 34.4695 26.0928 34.1333 25.9144C33.1944 25.43 31.7861 25.763 31.2254 25.9284C30.5143 26.1357 29.7516 28.0575 28.8997 30.3585C28.6849 30.9375 28.5001 31.4327 28.3894 31.6637C28.1263 32.2008 27.8749 32.8131 27.6085 33.463C27.0069 34.9336 26.3291 36.5889 25.3602 37.6288C25.0078 36.85 25.5621 35.6221 26.1003 34.4308C26.7373 33.0225 27.3389 31.6916 26.646 30.8419C26.5364 30.7075 26.4005 30.5971 26.2466 30.5172C26.0927 30.4374 25.9241 30.39 25.7512 30.3778C25.5255 30.3606 25.2991 30.3975 25.0905 30.4852C25.1625 29.8783 25.1657 29.3992 24.9885 28.8202C24.735 27.9941 24.0765 27.5311 23.1698 27.5558C21.1052 27.616 19.3585 29.1543 18.2553 30.4347C17.5205 31.2941 15.892 31.9494 14.4622 32.5241C13.8972 32.7637 13.3601 32.9785 12.9121 33.1933C12.1977 32.5896 11.29 31.9805 10.334 31.3371C7.64843 29.5346 4.60517 27.4903 4.4999 24.7188C4.3495 20.625 9.01161 17.7214 13.0808 15.6492C16.1648 14.0808 18.8461 13.041 21.2781 12.4727C24.6941 11.6746 27.5795 11.8357 29.8525 12.9497C31.0965 13.5588 31.6787 14.8833 31.3092 16.2454C30.3424 19.7849 26.3366 22.2105 22.9109 23.3019C20.8474 23.9594 19.091 24.2344 17.5398 24.1441C15.5955 24.0313 14.0078 23.0559 13.3289 22.6402C13.2201 22.5659 13.1051 22.5012 12.9851 22.4469L12.954 22.4393C12.8925 22.424 12.828 22.426 12.7676 22.4449C12.7071 22.4639 12.6531 22.4991 12.6113 22.5468C12.4717 22.7133 12.5211 22.9764 12.5716 23.1096C13.2322 24.8359 14.5965 25.9263 16.6257 26.3506C17.2898 26.4836 17.9658 26.548 18.6431 26.5429C23.3922 26.5429 29.4519 23.8047 31.6776 21.5499C33.1955 20.0138 34.3009 18.4346 34.7585 15.7115C35.2365 12.8595 33.3029 10.8775 31.3328 9.96443C26.545 7.75476 21.1073 8.6281 17.3884 9.74959C13.0378 11.0612 8.53681 13.446 5.0413 16.2948C0.731536 19.8043 -0.826081 23.0624 0.40927 25.9896C1.67792 28.9899 4.77167 30.8666 7.76337 32.682C8.73017 33.2675 9.6497 33.825 10.4779 34.4008C10.2287 34.5221 9.97412 34.6457 9.71523 34.7692C7.2037 35.9863 4.35488 37.3559 2.7747 39.6193C1.62743 41.2682 1.41259 42.9096 2.13661 44.4984C2.52333 45.3438 3.21083 45.9175 4.16581 46.2032C4.66259 46.3439 5.17706 46.4123 5.69335 46.4062C7.55283 46.4062 9.59921 45.6543 10.7132 44.9593C12.6811 43.7239 13.9562 42.0653 14.5041 40.0297C14.9918 38.2185 14.8747 36.4192 14.1657 34.8133L16.5773 33.5972C15.414 37.4644 16.3056 39.774 17.2852 41.048C17.6462 41.5175 18.2972 41.8 19.0244 41.8129C19.7517 41.8258 20.4209 41.5518 20.799 41.0856C21.5144 40.1994 22.043 39.1628 22.5296 38.1262C22.5038 38.8029 22.536 39.4883 22.767 40.0694C22.9743 40.5926 23.3159 40.9395 23.7563 41.0727C24.2247 41.2156 24.7736 41.0953 25.3021 40.7344C27.6837 39.1048 29.3122 35.1935 30.6206 32.0493C30.8064 31.6024 30.9848 31.1727 31.1577 30.771C31.4814 31.9294 31.9317 33.0487 32.5005 34.1086C32.6272 34.3385 32.6165 34.4394 32.4446 34.6285C32.1857 34.9121 31.8248 35.2548 31.4424 35.6179C30.2844 36.7168 28.8428 38.0886 28.6494 39.2949C28.5742 39.7783 28.9072 40.2187 29.4239 40.3186C30.9783 40.628 32.8507 40.1758 34.4341 39.1101C35.8735 38.1433 36.4149 36.7952 36.0454 35.1151C35.6877 33.4973 36.5041 31.4886 38.4721 29.1403C38.7943 30.4863 39.224 31.5745 39.817 32.5273L39.8009 32.5402C38.3679 33.7917 36.4042 35.5051 36.7093 37.5837C36.7349 37.7814 36.8014 37.9715 36.9046 38.1421C37.0078 38.3126 37.1454 38.4597 37.3087 38.5741C37.4832 38.6919 37.6801 38.7724 37.8871 38.8104C38.0942 38.8485 38.3068 38.8434 38.5118 38.7954C40.3885 38.4012 41.8011 37.6073 42.828 36.3709C43.855 35.1345 43.4801 33.7638 43.1342 32.7003C45.8197 31.972 48.2109 31.9902 50.4496 32.754C51.7064 33.1837 52.6077 33.8894 53.1276 34.8638C53.7818 36.0894 53.4284 37.2206 52.1297 38.0488C51.7311 38.3034 51.5389 38.4592 51.5271 38.6557C51.5244 38.7014 51.5328 38.7469 51.5515 38.7886C51.5702 38.8303 51.5987 38.8669 51.6345 38.8953C51.7849 39.0188 52.2489 39.2337 53.2984 38.573C54.2652 37.9661 54.8324 37.14 54.9774 36.1023C55.0066 35.8162 55.0063 35.5279 54.9764 35.2419ZM12.0366 37.9339L12.0259 38.0714C11.8583 39.644 11.0591 41.0147 9.64648 42.1534C8.75917 42.8688 7.7956 43.3082 6.93408 43.392C6.33251 43.45 5.89531 43.3683 5.63534 43.1481C5.44091 42.9838 5.33671 42.7378 5.31308 42.3962C5.13691 39.6591 9.42949 36.9391 11.8454 36.0443C12.0178 36.6584 12.0825 37.2977 12.0366 37.9339ZM23.0312 30.2145C22.6338 32.4801 21.4747 36.7565 19.6528 38.4162C19.5658 38.4957 19.4928 38.5236 19.4595 38.5161C19.4262 38.5086 19.4004 38.4688 19.3735 38.4087C18.7655 36.9993 18.99 34.6188 19.9106 32.7486C20.6185 31.307 21.6294 30.352 22.7595 30.0631C22.8064 30.0501 22.8548 30.0433 22.9034 30.0427C22.9415 30.04 22.9793 30.0502 23.0108 30.0717C23.0241 30.0927 23.0328 30.1163 23.0363 30.1409C23.0399 30.1655 23.0381 30.1906 23.0312 30.2145ZM31.9999 38.4731C31.6572 38.8308 31.1878 38.7825 31.2984 38.6514L33.043 36.7995C32.9022 37.4365 32.4865 37.9639 31.9999 38.4731ZM39.2369 36.8715C39.071 36.9532 38.8915 37.0038 38.7073 37.0208C38.6579 36.0465 39.6021 34.9497 40.5335 34.2181C40.7838 35.2344 40.2714 36.3086 39.2369 36.8715Z" fill="#01C3FF"/>
</g>
<defs>
<clipPath id="clip0">
<rect width="55" height="55" fill="white"/>
</clipPath>
</defs>
</svg>
