<svg width="38" height="30" viewBox="0 0 38 30" fill="none" xmlns="http://www.w3.org/2000/svg">
<g clip-path="url(#clip0)">
<path d="M33.6454 7.39006C33.6692 7.71438 33.6692 8.03876 33.6692 8.36308C33.6692 18.2551 25.936 29.653 11.8021 29.653C7.44766 29.653 3.40263 28.4251 0 26.2939C0.618679 26.3634 1.21348 26.3866 1.85596 26.3866C5.44887 26.3866 8.75636 25.2051 11.3976 23.1896C8.01873 23.1201 5.18718 20.9656 4.21159 18.0003C4.68752 18.0698 5.16337 18.1161 5.66311 18.1161C6.35313 18.1161 7.04322 18.0234 7.68563 17.8613C4.16405 17.1663 1.52278 14.1547 1.52278 10.5175V10.4249C2.54591 10.9809 3.73573 11.3284 4.99675 11.3747C2.92662 10.031 1.57039 7.73755 1.57039 5.14289C1.57039 3.75293 1.95103 2.47878 2.61732 1.36678C6.40066 5.9074 12.0876 8.87265 18.4644 9.19704C18.3455 8.64104 18.2741 8.06194 18.2741 7.48276C18.2741 3.35909 21.7005 0 25.9597 0C28.1726 0 30.1713 0.903488 31.5752 2.36297C33.3121 2.03866 34.9778 1.41314 36.4531 0.555998C35.8819 2.29352 34.6684 3.75301 33.0743 4.6796C34.6209 4.51751 36.12 4.10042 37.5 3.52132C36.4532 5.00391 35.1445 6.32435 33.6454 7.39006Z" fill="#F8AF32"/>
</g>
<defs>
<clipPath id="clip0">
<rect width="37.5" height="30" fill="white"/>
</clipPath>
</defs>
</svg>
