<svg width="20" height="20" viewBox="0 0 20 20" fill="none" xmlns="http://www.w3.org/2000/svg">
<path d="M9.99995 3.125C9.66167 3.125 9.35229 3.4125 9.37495 3.75L9.68745 12.1875C9.68745 12.2704 9.72037 12.3499 9.77898 12.4085C9.83758 12.4671 9.91707 12.5 9.99995 12.5C10.0828 12.5 10.1623 12.4671 10.2209 12.4085C10.2795 12.3499 10.3125 12.2704 10.3125 12.1875L10.6249 3.75C10.6476 3.4125 10.3382 3.125 9.99995 3.125Z" stroke="black" stroke-linecap="round" stroke-linejoin="round"/>
<path d="M10 16.875C10.3452 16.875 10.625 16.5952 10.625 16.25C10.625 15.9048 10.3452 15.625 10 15.625C9.65482 15.625 9.375 15.9048 9.375 16.25C9.375 16.5952 9.65482 16.875 10 16.875Z" stroke="black" stroke-linecap="round" stroke-linejoin="round"/>
</svg>
