<svg width="60" height="60" viewBox="0 0 60 60" fill="none" xmlns="http://www.w3.org/2000/svg">
<path d="M21.5625 5.62501V45M36.7113 14.6063L23.2887 6.01876C22.7547 5.75205 22.1649 5.61664 21.5681 5.62377C20.9713 5.63091 20.3848 5.78038 19.8574 6.05978L6.62227 14.9402C6.32116 15.0998 6.06921 15.3383 5.89351 15.6303C5.7178 15.9222 5.62497 16.2565 5.625 16.5973V51.2613C5.62497 51.5847 5.70857 51.9026 5.86767 52.1841C6.02677 52.4656 6.25597 52.7012 6.53301 52.8679C6.81004 53.0347 7.1255 53.127 7.44873 53.1358C7.77197 53.1446 8.092 53.0697 8.37773 52.9184L19.841 45.443C20.3727 45.1613 20.9644 45.0117 21.5661 45.0068C22.1678 45.0019 22.7618 45.1418 23.298 45.4149L36.4066 53.9695C36.9382 54.2404 37.5267 54.3805 38.1232 54.3783C38.7198 54.376 39.3072 54.2315 39.8367 53.9567L53.3637 45.0574C53.6685 44.8993 53.924 44.6604 54.1023 44.367C54.2806 44.0735 54.375 43.7368 54.375 43.3934V8.73868C54.375 8.41533 54.2914 8.09746 54.1323 7.81596C53.9732 7.53445 53.744 7.29887 53.467 7.13211C53.19 6.96535 52.8745 6.87306 52.5513 6.86422C52.228 6.85538 51.908 6.93028 51.6223 7.08165L40.1379 14.5652C39.6111 14.8439 39.0255 14.9929 38.4296 15C37.8337 15.0072 37.2446 14.8722 36.7113 14.6063V14.6063ZM38.4375 15V54.375V15Z" stroke="#61E786" stroke-width="2" stroke-linecap="round" stroke-linejoin="round"/>
</svg>
