<svg width="60" height="60" viewBox="0 0 60 60" fill="none" xmlns="http://www.w3.org/2000/svg">
<path d="M53.6412 19.9336C53.2247 19.7698 52.7809 19.6863 52.3334 19.6875H52.2865C49.9228 19.7227 47.272 21.9363 45.881 25.2844C44.2135 29.2898 44.981 33.3879 47.6084 34.4414C48.0245 34.6052 48.4678 34.6887 48.915 34.6875C51.2904 34.6875 53.9775 32.4609 55.3803 29.0906C57.0361 25.0852 56.2568 20.9871 53.6412 19.9336V19.9336ZM38.3904 35.5641C35.1326 30.1582 33.7263 28.125 29.9998 28.125C26.2732 28.125 24.8553 30.1711 21.5974 35.5641C18.8084 40.1766 13.1717 40.5609 11.7654 44.4785C11.4801 45.1961 11.3368 45.9622 11.3435 46.7344C11.3435 49.9207 13.781 52.5 16.781 52.5C20.5076 52.5 25.5818 49.5246 30.0115 49.5246C34.4412 49.5246 39.492 52.5 43.2185 52.5C46.2185 52.5 48.6443 49.9219 48.6443 46.7344C48.647 45.9615 48.4998 45.1954 48.2107 44.4785C46.8045 40.5469 41.1795 40.1766 38.3904 35.5641ZM22.5596 22.9688C22.7165 22.9689 22.8732 22.9571 23.0283 22.9336C25.7482 22.5387 27.4463 18.7699 26.8299 14.5137C26.2498 10.5012 23.8146 7.5 21.2681 7.5C21.1112 7.49987 20.9545 7.51163 20.7994 7.53516C18.0795 7.93008 16.3814 11.6988 16.9978 15.9551C17.5779 19.9559 20.0131 22.9688 22.5596 22.9688ZM42.9982 15.9551C43.6146 11.6988 41.9166 7.93008 39.1967 7.53516C39.0415 7.51163 38.8848 7.49987 38.7279 7.5C36.1814 7.5 33.751 10.5012 33.1697 14.5137C32.5533 18.7699 34.2513 22.5387 36.9713 22.9336C37.1264 22.9571 37.2831 22.9689 37.44 22.9688C39.9865 22.9688 42.4217 19.9559 42.9982 15.9551V15.9551ZM12.3947 34.4414C15.0185 33.3867 15.7849 29.2852 14.1197 25.2844C12.7181 21.9141 10.0334 19.6875 7.6615 19.6875C7.21432 19.6863 6.77096 19.7698 6.35486 19.9336C3.73104 20.9883 2.96463 25.0898 4.62986 29.0906C6.03143 32.4609 8.71619 34.6875 11.0881 34.6875C11.5352 34.6887 11.9786 34.6052 12.3947 34.4414V34.4414Z" stroke="#61E786" stroke-width="2" stroke-miterlimit="10"/>
</svg>
