<svg width="512" height="513" viewBox="0 0 512 513" fill="none" xmlns="http://www.w3.org/2000/svg">
<path d="M390.999 480.964C371.479 480.964 344.059 473.904 302.999 450.964C253.069 422.964 214.449 397.114 164.789 347.584C116.909 299.734 93.6095 268.754 60.9995 209.414C24.1595 142.414 30.4395 107.294 37.4595 92.2844C45.8195 74.3444 58.1595 63.6144 74.1095 52.9644C83.169 47.0287 92.7562 41.9405 102.749 37.7644C103.749 37.3344 104.679 36.9244 105.509 36.5544C110.459 34.3244 117.959 30.9544 127.459 34.5544C133.799 36.9344 139.459 41.8044 148.319 50.5544C166.489 68.4744 191.319 108.384 200.479 127.984C206.629 141.194 210.699 149.914 210.709 159.694C210.709 171.144 204.949 179.974 197.959 189.504C196.649 191.294 195.349 193.004 194.089 194.664C186.479 204.664 184.809 207.554 185.909 212.714C188.139 223.084 204.769 253.954 232.099 281.224C259.429 308.494 289.409 324.074 299.819 326.294C305.199 327.444 308.149 325.704 318.469 317.824C319.949 316.694 321.469 315.524 323.059 314.354C333.719 306.424 342.139 300.814 353.319 300.814H353.379C363.109 300.814 371.439 305.034 385.239 311.994C403.239 321.074 444.349 345.584 462.379 363.774C471.149 372.614 476.039 378.254 478.429 384.584C482.029 394.114 478.639 401.584 476.429 406.584C476.059 407.414 475.649 408.324 475.219 409.334C471.01 419.31 465.892 428.877 459.929 437.914C449.299 453.814 438.529 466.124 420.549 474.494C411.317 478.861 401.212 481.074 390.999 480.964Z" fill="white"/>
</svg>
