<svg width="472" height="341" viewBox="0 0 472 341" fill="none" xmlns="http://www.w3.org/2000/svg">
<path d="M437.926 315.818H44.1044C40.6022 315.818 37.2435 314.421 34.7671 311.934C32.2906 309.447 30.8994 306.074 30.8994 302.557C173.66 285.895 313.737 285.895 451.131 302.557C451.131 304.298 450.789 306.023 450.126 307.632C449.462 309.241 448.489 310.703 447.263 311.934C446.037 313.165 444.581 314.142 442.979 314.809C441.377 315.475 439.66 315.818 437.926 315.818Z" fill="#2F2E41"/>
<path d="M451.131 303.455L30.8994 302.678L79.6027 220.779L79.8358 220.391V39.8946C79.8356 37.7038 80.2672 35.5344 81.1061 33.5103C81.9449 31.4862 83.1745 29.647 84.7246 28.0979C86.2747 26.5487 88.1149 25.3199 90.1403 24.4816C92.1656 23.6433 94.3363 23.2119 96.5285 23.2121H383.171C385.363 23.2119 387.534 23.6433 389.56 24.4816C391.585 25.3199 393.425 26.5487 394.975 28.0979C396.525 29.647 397.755 31.4862 398.594 33.5103C399.433 35.5344 399.864 37.7038 399.864 39.8946V221.633L451.131 303.455Z" fill="#3F3D56"/>
<path d="M96.0777 34.5455C94.6354 34.5471 93.2527 35.1225 92.2328 36.1456C91.213 37.1686 90.6393 38.5556 90.6377 40.0024V205.27C90.6394 206.717 91.2131 208.104 92.2329 209.127C93.2527 210.15 94.6354 210.726 96.0777 210.727H385.951C387.394 210.726 388.776 210.15 389.796 209.127C390.816 208.104 391.39 206.717 391.391 205.27V40.0024C391.39 38.5557 390.816 37.1686 389.796 36.1456C388.776 35.1226 387.394 34.5472 385.951 34.5455H96.0777Z" fill="white"/>
<path d="M97.6794 232.364C97.2339 232.364 96.7978 232.492 96.4226 232.731C96.0474 232.97 95.7487 233.311 95.5618 233.713L80.5513 266.167C80.3879 266.521 80.3164 266.909 80.3435 267.297C80.3705 267.685 80.4952 268.06 80.7061 268.387C80.9169 268.714 81.2072 268.984 81.5501 269.17C81.8931 269.357 82.2777 269.455 82.6686 269.455H398.331C398.728 269.455 399.119 269.354 399.466 269.161C399.813 268.969 400.104 268.691 400.313 268.355C400.522 268.019 400.641 267.635 400.659 267.24C400.677 266.846 400.593 266.453 400.415 266.1L384.099 233.645C383.907 233.259 383.609 232.935 383.241 232.708C382.873 232.482 382.448 232.362 382.015 232.364H97.6794Z" fill="#2F2E41"/>
<path d="M239.47 31.4545C241.461 31.4545 243.075 30.0707 243.075 28.3636C243.075 26.6566 241.461 25.2727 239.47 25.2727C237.479 25.2727 235.865 26.6566 235.865 28.3636C235.865 30.0707 237.479 31.4545 239.47 31.4545Z" fill="white"/>
<path d="M208.998 275.636C208.486 275.637 207.989 275.805 207.582 276.115C207.176 276.425 206.883 276.86 206.749 277.352L202.986 291.261C202.893 291.604 202.881 291.965 202.951 292.314C203.02 292.663 203.169 292.991 203.387 293.274C203.604 293.556 203.884 293.785 204.205 293.942C204.525 294.1 204.878 294.182 205.235 294.182H276.796C277.167 294.182 277.533 294.093 277.863 293.924C278.193 293.755 278.478 293.509 278.693 293.208C278.908 292.907 279.048 292.559 279.101 292.193C279.154 291.827 279.118 291.454 278.996 291.105L274.159 277.196C274 276.741 273.703 276.346 273.308 276.066C272.914 275.787 272.442 275.637 271.957 275.636H208.998Z" fill="#2F2E41"/>
<path d="M399.632 217.939V221.03H79.3086L79.5495 220.644V217.939H399.632Z" fill="#2F2E41"/>
<path d="M352.508 49.415H125.956V196.467H352.508V49.415Z" fill="#3F3D56"/>
<path d="M318.694 169.423H256.139V111.109H318.694V169.423ZM256.69 168.872H318.143V111.659H256.69V168.872Z" fill="#D0CDE1"/>
<path d="M256.397 111.057L256.021 111.459L317.851 169.151L318.226 168.749L256.397 111.057Z" fill="#D0CDE1"/>
<path d="M317.853 111.058L256.021 168.748L256.397 169.15L318.228 111.46L317.853 111.058Z" fill="#D0CDE1"/>
<path d="M234.16 129.702H169.914V130.547H234.16V129.702Z" fill="#D0CDE1"/>
<path d="M234.16 139.843H169.914V140.688H234.16V139.843Z" fill="#D0CDE1"/>
<path d="M234.16 149.985H169.914V150.83H234.16V149.985Z" fill="#D0CDE1"/>
<path d="M318.694 81.53H169.068V71.388H318.694V81.53ZM169.62 80.981H318.142V71.936H169.62V80.981Z" fill="#D0CDE1"/>
<path d="M184.285 102.658H169.914C171.023 97.932 170.89 92.82 169.914 87.445H184.285C182.273 92.516 182.273 97.587 184.285 102.658Z" fill="#D0CDE1"/>
<path d="M180.058 90.826H171.604V92.516H180.058V90.826Z" fill="#3F3D56"/>
<path d="M180.058 94.206H171.604V95.897H180.058V94.206Z" fill="#3F3D56"/>
<path d="M180.058 97.587H171.604V99.277H180.058V97.587Z" fill="#3F3D56"/>
<path d="M294.179 124.631H279.809C280.918 119.905 280.784 114.793 279.809 109.419H294.179C292.168 114.489 292.168 119.56 294.179 124.631Z" fill="#D0CDE1"/>
<path d="M290.798 112.799H282.345V114.49H290.798V112.799Z" fill="#3F3D56"/>
<path d="M290.798 116.18H282.345V117.87H290.798V116.18Z" fill="#3F3D56"/>
<path d="M290.798 119.56H282.345V121.25H290.798V119.56Z" fill="#3F3D56"/>
<path d="M313.622 93.361H298.406C299.581 88.636 299.439 83.523 298.406 78.149H313.622C311.492 83.22 311.492 88.291 313.622 93.361Z" fill="#D0CDE1"/>
<path d="M310.241 81.53H300.942V83.22H310.241V81.53Z" fill="#3F3D56"/>
<path d="M310.241 84.91H300.942V86.6H310.241V84.91Z" fill="#3F3D56"/>
<path d="M310.241 88.291H300.942V89.981H310.241V88.291Z" fill="#3F3D56"/>
</svg>
