<svg width="55" height="55" viewBox="0 0 55 55" fill="none" xmlns="http://www.w3.org/2000/svg">
<path d="M17.187 41.7872C16.6407 41.7877 16.1129 41.5891 15.7025 41.2286L1.95248 29.1973C1.71065 28.9856 1.51685 28.7246 1.38408 28.4319C1.2513 28.1392 1.18262 27.8215 1.18262 27.5001C1.18262 27.1786 1.2513 26.8609 1.38408 26.5682C1.51685 26.2755 1.71065 26.0145 1.95248 25.8028L15.7025 13.7715C16.1528 13.3775 16.7411 13.1785 17.3381 13.2183C17.9352 13.2581 18.4919 13.5334 18.8859 13.9837C19.2799 14.434 19.4789 15.0223 19.4392 15.6194C19.3994 16.2164 19.1241 16.7731 18.6738 17.1671L6.86273 27.5001L18.6727 37.833C19.0183 38.1352 19.2636 38.5356 19.3756 38.9809C19.4876 39.4261 19.4611 39.8949 19.2997 40.3247C19.1382 40.7545 18.8494 41.1248 18.4719 41.3861C18.0944 41.6474 17.6462 41.7873 17.187 41.7872ZM37.812 41.7872C37.3528 41.7876 36.9044 41.6478 36.5268 41.3866C36.1491 41.1253 35.8602 40.7551 35.6986 40.3252C35.5369 39.8954 35.5104 39.4265 35.6224 38.9811C35.7344 38.5358 35.9796 38.1352 36.3253 37.833L48.1364 27.5001L36.3264 17.1671C35.8761 16.7731 35.6008 16.2164 35.561 15.6194C35.5212 15.0223 35.7202 14.434 36.1142 13.9837C36.5083 13.5334 37.065 13.2581 37.662 13.2183C38.259 13.1785 38.8474 13.3775 39.2977 13.7715L53.0477 25.8028C53.2895 26.0145 53.4833 26.2755 53.6161 26.5682C53.7489 26.8609 53.8176 27.1786 53.8176 27.5001C53.8176 27.8215 53.7489 28.1392 53.6161 28.4319C53.4833 28.7246 53.2895 28.9856 53.0477 29.1973L39.2977 41.2286C38.8871 41.5895 38.3588 41.7882 37.812 41.7872ZM22.3433 46.9434C21.992 46.9433 21.6456 46.8612 21.3316 46.7036C21.0177 46.546 20.7449 46.3172 20.5349 46.0355C20.325 45.7538 20.1838 45.427 20.1225 45.0811C20.0612 44.7351 20.0816 44.3797 20.182 44.043L30.4945 9.66802C30.5722 9.37632 30.7076 9.10318 30.8928 8.86478C31.0779 8.62637 31.3091 8.42755 31.5725 8.2801C31.8359 8.13265 32.1262 8.03957 32.4262 8.00636C32.7263 7.97316 33.0299 8.00051 33.3192 8.0868C33.6084 8.17308 33.8775 8.31655 34.1103 8.50869C34.3431 8.70084 34.535 8.93776 34.6746 9.20541C34.8141 9.47307 34.8986 9.76602 34.9229 10.0669C34.9472 10.3678 34.9109 10.6705 34.8161 10.9571L24.5036 45.3321C24.3648 45.7974 24.0797 46.2055 23.6905 46.4958C23.3013 46.7861 22.8288 46.9431 22.3433 46.9434Z" fill="#01C3FF"/>
</svg>
