<svg width="55" height="55" viewBox="0 0 55 55" fill="none" xmlns="http://www.w3.org/2000/svg">
<path d="M36.0938 18.9062C38.373 18.9062 40.5588 18.0008 42.1705 16.3892C43.7821 14.7776 44.6875 12.5917 44.6875 10.3125C44.6875 8.0333 43.7821 5.84744 42.1705 4.2358C40.5588 2.62416 38.373 1.71875 36.0938 1.71875H18.9063C16.627 1.71875 14.4412 2.62416 12.8296 4.2358C11.2179 5.84744 10.3125 8.0333 10.3125 10.3125C10.3125 12.5917 11.2179 14.7776 12.8296 16.3892C14.4412 18.0008 16.627 18.9062 18.9063 18.9062C16.627 18.9062 14.4412 19.8117 12.8296 21.4233C11.2179 23.0349 10.3125 25.2208 10.3125 27.5C10.3125 29.7792 11.2179 31.9651 12.8296 33.5767C14.4412 35.1883 16.627 36.0938 18.9063 36.0938C17.2066 36.0938 15.5451 36.5978 14.1318 37.5421C12.7186 38.4864 11.6171 39.8285 10.9667 41.3988C10.3162 42.9691 10.146 44.697 10.4776 46.3641C10.8092 48.0311 11.6277 49.5623 12.8296 50.7642C14.0314 51.9661 15.5627 52.7845 17.2297 53.1161C18.8967 53.4477 20.6246 53.2775 22.1949 52.6271C23.7652 51.9766 25.1074 50.8752 26.0517 49.4619C26.996 48.0487 27.5 46.3872 27.5 44.6875V18.9062H36.0938Z" fill="#01C3FF"/>
<path d="M36.0938 36.0938C40.8399 36.0938 44.6875 32.2462 44.6875 27.5C44.6875 22.7538 40.8399 18.9062 36.0938 18.9062C31.3476 18.9062 27.5 22.7538 27.5 27.5C27.5 32.2462 31.3476 36.0938 36.0938 36.0938Z" fill="#01C3FF"/>
</svg>
