<svg width="60" height="60" viewBox="0 0 60 60" fill="none" xmlns="http://www.w3.org/2000/svg">
<path d="M41.3578 9.375C33.75 9.375 30 16.875 30 16.875C30 16.875 26.25 9.375 18.6422 9.375C12.4594 9.375 7.56326 14.5477 7.49998 20.7199C7.37107 33.532 17.6637 42.6434 28.9453 50.3004C29.2563 50.512 29.6238 50.6251 30 50.6251C30.3762 50.6251 30.7436 50.512 31.0547 50.3004C42.3351 42.6434 52.6277 33.532 52.5 20.7199C52.4367 14.5477 47.5406 9.375 41.3578 9.375V9.375Z" stroke="#61E786" stroke-width="2" stroke-linecap="round" stroke-linejoin="round"/>
<path d="M5.625 30H18.75L24.375 18.75L30 37.5L35.625 26.25L39.375 33.75H54.375" stroke="#61E786" stroke-width="2" stroke-linecap="round" stroke-linejoin="round"/>
</svg>
