<svg width="120" height="120" viewBox="0 0 120 120" fill="none" xmlns="http://www.w3.org/2000/svg">
<path d="M96.5244 57.0566L75.0562 16.4174C74.5483 15.456 73.5571 14.8569 72.4698 14.8536C72.4668 14.8536 72.464 14.8536 72.4611 14.8536C71.3772 14.8536 70.3865 15.4464 69.8744 16.4024L50.2033 53.1196C49.8784 53.7257 49.9375 54.4658 50.3547 55.0126L55.1697 61.3272C55.7024 62.0258 56.5112 62.4461 57.3892 62.4803C58.2644 62.5166 59.1062 62.1585 59.6915 61.5034L67.3042 52.9843L82.1019 70.4537C82.6544 71.106 83.4615 71.4843 84.3161 71.4915C84.3245 71.4915 84.333 71.4915 84.3414 71.4915C85.1868 71.4915 85.9897 71.128 86.5476 70.4917L95.3179 60.4916C95.3683 60.4339 95.4149 60.3733 95.4576 60.3095L96.4319 58.8517C96.79 58.3157 96.8256 57.6266 96.5244 57.0566ZM92.6029 58.2636L84.3489 67.6754L69.5551 50.2105C69.0062 49.5627 68.2042 49.1844 67.3548 49.1732C67.3419 49.1729 67.329 49.1729 67.3159 49.1729C66.4808 49.1729 65.6851 49.5282 65.1278 50.1522L57.5385 58.6447L53.8307 53.7822L72.4579 19.0138L92.9322 57.7712L92.6029 58.2636Z" fill="white"/>
<path d="M119.657 100.842L105.876 74.7564C105.423 73.8992 104.362 73.5716 103.504 74.0244C102.647 74.4772 102.32 75.5389 102.772 76.396L116.107 101.637H69.3581C69.3028 101.365 48.9895 62.8182 48.9895 62.8182L52.0087 57.1827L55.1693 61.3276C55.702 62.0263 56.5111 62.4465 57.3888 62.4807C58.264 62.5171 59.1059 62.1589 59.6911 61.5038L67.3038 52.9848L82.1015 70.4542C82.654 71.1064 83.4612 71.4847 84.3157 71.492C84.3241 71.492 84.3326 71.492 84.341 71.492C85.1864 71.492 85.9894 71.1285 86.5474 70.4921C86.5533 70.4856 86.5591 70.4788 86.5648 70.472L94.6315 60.9868L97.9106 67.194C98.3634 68.0511 99.4251 68.379 100.282 67.926C101.139 67.4731 101.467 66.4114 101.014 65.5543L75.0555 16.4167C74.5474 15.4552 73.5565 14.8562 72.4692 14.8529H72.4605C71.3766 14.8529 70.3858 15.4456 69.8737 16.4019L51.4446 50.8025L50.2031 53.1198C50.2031 53.12 50.2029 53.1203 50.2029 53.1205L47.0126 59.0755L37.5272 41.1207C37.1461 40.3995 36.4934 39.8823 35.7319 39.6674C35.4778 39.5956 35.2118 39.5574 34.9397 39.5567C34.9369 39.5567 34.9341 39.5567 34.9312 39.5567C34.8949 39.5567 34.8591 39.5591 34.823 39.5605C34.7932 39.5614 34.7632 39.5617 34.7337 39.5635C34.7067 39.5654 34.6802 39.5689 34.6535 39.5715C34.6137 39.5753 34.5738 39.5783 34.5344 39.5837C34.4991 39.5884 34.4641 39.5954 34.4292 39.6015C34.3999 39.6067 34.3702 39.6106 34.3411 39.6167C33.4969 39.7892 32.7619 40.3269 32.3445 41.106L25.9202 53.098L15.1151 73.2674C15.1132 73.2709 15.1118 73.2746 15.1099 73.2782L0.351326 100.827C-0.140392 101.745 -0.114611 102.827 0.420233 103.72C0.955311 104.614 1.89656 105.147 2.93812 105.147H117.062C118.1 105.147 119.039 104.616 119.575 103.727C120.111 102.838 120.142 101.76 119.657 100.842ZM54.3619 52.7903L72.4575 19.0142L92.8652 57.6456L84.3417 67.6674L69.5548 50.2107C69.0056 49.5627 68.2036 49.1844 67.3544 49.1734C67.3413 49.1731 67.3284 49.1731 67.3155 49.1731C66.4805 49.1731 65.6848 49.5287 65.1274 50.1524L57.5381 58.6449L53.8303 53.7824L54.3619 52.7903ZM3.89976 101.637L17.1902 76.828L22.3141 81.1199C22.8668 81.5828 23.5352 81.8099 24.1999 81.8099C25.0059 81.8099 25.8063 81.4759 26.3883 80.8239L32.2652 74.237L36.0504 77.9926C36.7385 78.6753 37.8499 78.6709 38.5327 77.983C39.2154 77.2949 39.2109 76.1835 38.523 75.5007L34.3069 71.3176C33.7378 70.7532 32.9545 70.4448 32.1506 70.4675C31.3493 70.4919 30.5836 70.8489 30.0502 71.4472L24.1406 78.0704L18.8836 73.6672L34.9282 43.7176L55.6324 82.9098L50.6341 87.5164L46.0617 82.9796C45.3738 82.2969 44.2624 82.3014 43.5794 82.9895C42.8967 83.6774 42.9012 84.7888 43.5893 85.4715L48.5524 90.396C49.125 90.9639 49.8715 91.2493 50.6194 91.2493C51.3312 91.2493 52.0441 90.9906 52.6083 90.4705L57.3295 86.1191L65.5273 101.637H3.89976V101.637Z" fill="white"/>
</svg>
