<svg width="120" height="120" viewBox="0 0 120 120" fill="none" xmlns="http://www.w3.org/2000/svg">
<path d="M96.5244 57.0565L75.0562 16.4173C74.5483 15.4559 73.5571 14.8568 72.4698 14.8535C72.4668 14.8535 72.464 14.8535 72.4611 14.8535C71.3772 14.8535 70.3865 15.4463 69.8744 16.4023L50.2033 53.1195C49.8784 53.7256 49.9375 54.4657 50.3547 55.0125L55.1697 61.327C55.7024 62.0257 56.5112 62.4459 57.3892 62.4802C58.2644 62.5165 59.1062 62.1584 59.6915 61.5033L67.3042 52.9842L82.1019 70.4536C82.6544 71.1059 83.4615 71.4841 84.3161 71.4914C84.3245 71.4914 84.333 71.4914 84.3414 71.4914C85.1868 71.4914 85.9897 71.1279 86.5476 70.4916L95.3179 60.4915C95.3683 60.4338 95.4149 60.3731 95.4576 60.3094L96.4319 58.8516C96.79 58.3156 96.8256 57.6265 96.5244 57.0565ZM92.6029 58.2635L84.3489 67.6753L69.5551 50.2104C69.0062 49.5626 68.2042 49.1843 67.3548 49.173C67.3419 49.1728 67.329 49.1728 67.3159 49.1728C66.4808 49.1728 65.6851 49.5281 65.1278 50.152L57.5385 58.6446L53.8307 53.782L72.4579 19.0137L92.9322 57.7711L92.6029 58.2635Z" fill="black"/>
<path d="M119.657 100.841L105.876 74.7562C105.423 73.8991 104.362 73.5715 103.504 74.0243C102.647 74.4771 102.32 75.5388 102.772 76.3959L116.107 101.637H69.3581C69.3028 101.365 48.9895 62.8181 48.9895 62.8181L52.0087 57.1826L55.1693 61.3275C55.702 62.0261 56.5111 62.4464 57.3888 62.4806C58.264 62.5169 59.1059 62.1588 59.6911 61.5037L67.3038 52.9847L82.1015 70.454C82.654 71.1063 83.4612 71.4846 84.3157 71.4919C84.3241 71.4919 84.3326 71.4919 84.341 71.4919C85.1864 71.4919 85.9894 71.1283 86.5474 70.492C86.5533 70.4854 86.5591 70.4786 86.5648 70.4719L94.6315 60.9867L97.9106 67.1939C98.3634 68.051 99.4251 68.3789 100.282 67.9258C101.139 67.473 101.467 66.4113 101.014 65.5542L75.0555 16.4165C74.5474 15.4551 73.5565 14.8561 72.4692 14.8528H72.4605C71.3766 14.8528 70.3858 15.4455 69.8737 16.4018L51.4446 50.8024L50.2031 53.1197C50.2031 53.1199 50.2029 53.1201 50.2029 53.1204L47.0126 59.0754L37.5272 41.1206C37.1461 40.3994 36.4934 39.8822 35.7319 39.6672C35.4778 39.5955 35.2118 39.5573 34.9397 39.5566C34.9369 39.5566 34.9341 39.5566 34.9312 39.5566C34.8949 39.5566 34.8591 39.559 34.823 39.5604C34.7932 39.5613 34.7632 39.5615 34.7337 39.5634C34.7067 39.5653 34.6802 39.5688 34.6535 39.5714C34.6137 39.5751 34.5738 39.5782 34.5344 39.5836C34.4991 39.5883 34.4641 39.5953 34.4292 39.6014C34.3999 39.6065 34.3702 39.6105 34.3411 39.6166C33.4969 39.7891 32.7619 40.3268 32.3445 41.1058L25.9202 53.0979L15.1151 73.2672C15.1132 73.2708 15.1118 73.2745 15.1099 73.278L0.351326 100.827C-0.140392 101.745 -0.114611 102.826 0.420233 103.72C0.955311 104.614 1.89656 105.147 2.93812 105.147H117.062C118.1 105.147 119.039 104.616 119.575 103.727C120.111 102.838 120.142 101.76 119.657 100.841ZM54.3619 52.7901L72.4575 19.0141L92.8652 57.6454L84.3417 67.6673L69.5548 50.2106C69.0056 49.5626 68.2036 49.1843 67.3544 49.1733C67.3413 49.173 67.3284 49.173 67.3155 49.173C66.4805 49.173 65.6848 49.5286 65.1274 50.1522L57.5381 58.6448L53.8303 53.7822L54.3619 52.7901ZM3.89976 101.636L17.1902 76.8279L22.3141 81.1197C22.8668 81.5826 23.5352 81.8097 24.1999 81.8097C25.0059 81.8097 25.8063 81.4758 26.3883 80.8237L32.2652 74.2369L36.0504 77.9925C36.7385 78.6752 37.8499 78.6708 38.5327 77.9829C39.2154 77.2947 39.2109 76.1833 38.523 75.5006L34.3069 71.3175C33.7378 70.7531 32.9545 70.4447 32.1506 70.4674C31.3493 70.4918 30.5836 70.8487 30.0502 71.4471L24.1406 78.0703L18.8836 73.6671L34.9282 43.7175L55.6324 82.9097L50.6341 87.5163L46.0617 82.9795C45.3738 82.2968 44.2624 82.3012 43.5794 82.9894C42.8967 83.6773 42.9012 84.7887 43.5893 85.4714L48.5524 90.3958C49.125 90.9637 49.8715 91.2492 50.6194 91.2492C51.3312 91.2492 52.0441 90.9904 52.6083 90.4704L57.3295 86.119L65.5273 101.636H3.89976V101.636Z" fill="black"/>
</svg>
