<svg width="48" height="48" viewBox="0 0 48 48" fill="none" xmlns="http://www.w3.org/2000/svg">
<path d="M38.6095 22.8227L30.0222 6.56703C29.8191 6.18247 29.4226 5.94284 28.9877 5.94153C28.9865 5.94153 28.9853 5.94153 28.9842 5.94153C28.5506 5.94153 28.1543 6.17862 27.9495 6.56103L20.0811 21.2479C19.9511 21.4903 19.9747 21.7864 20.1416 22.0051L22.0676 24.5309C22.2807 24.8104 22.6042 24.9785 22.9554 24.9922C23.3055 25.0067 23.6422 24.8635 23.8763 24.6014L26.9214 21.1938L32.8405 28.1816C33.0615 28.4425 33.3844 28.5938 33.7262 28.5967C33.7296 28.5967 33.7329 28.5967 33.7363 28.5967C34.0745 28.5967 34.3957 28.4513 34.6188 28.1967L38.1269 24.1967C38.1471 24.1737 38.1657 24.1494 38.1828 24.1239L38.5725 23.5407C38.7157 23.3263 38.73 23.0507 38.6095 22.8227ZM37.0409 23.3055L33.7393 27.0702L27.8218 20.0843C27.6022 19.8252 27.2814 19.6738 26.9417 19.6693C26.9365 19.6692 26.9314 19.6692 26.9261 19.6692C26.5921 19.6692 26.2738 19.8114 26.0509 20.0609L23.0152 23.458L21.532 21.5129L28.9829 7.60559L37.1726 23.1086L37.0409 23.3055Z" fill="#61E786"/>
<path d="M47.8627 40.3366L42.3504 29.9025C42.1693 29.5597 41.7447 29.4286 41.4018 29.6098C41.0589 29.7909 40.9279 30.2156 41.109 30.5584L46.4428 40.6548H27.7433C27.7211 40.5459 19.5958 25.1273 19.5958 25.1273L20.8035 22.8731L22.0677 24.531C22.2808 24.8105 22.6044 24.9786 22.9555 24.9923C23.3056 25.0068 23.6423 24.8636 23.8764 24.6015L26.9215 21.1939L32.8406 28.1817C33.0616 28.4426 33.3845 28.5939 33.7263 28.5968C33.7297 28.5968 33.733 28.5968 33.7364 28.5968C34.0746 28.5968 34.3958 28.4514 34.619 28.1968C34.6213 28.1942 34.6237 28.1915 34.6259 28.1888L37.8526 24.3947L39.1643 26.8776C39.3454 27.2204 39.7701 27.3516 40.1129 27.1704C40.4557 26.9893 40.5868 26.5646 40.4057 26.2217L30.0222 6.56666C29.819 6.1821 29.4226 5.94247 28.9877 5.94116H28.9842C28.5506 5.94116 28.1543 6.17826 27.9495 6.56076L20.5778 20.321L20.0812 21.2479C20.0812 21.248 20.0812 21.2481 20.0812 21.2482L18.805 23.6302L15.0109 16.4483C14.8584 16.1598 14.5973 15.9529 14.2927 15.8669C14.1911 15.8383 14.0847 15.823 13.9759 15.8227C13.9748 15.8227 13.9736 15.8227 13.9725 15.8227C13.958 15.8227 13.9436 15.8236 13.9292 15.8242C13.9173 15.8246 13.9053 15.8247 13.8935 15.8254C13.8827 15.8262 13.8721 15.8276 13.8614 15.8286C13.8455 15.8301 13.8295 15.8313 13.8138 15.8335C13.7996 15.8354 13.7857 15.8382 13.7717 15.8406C13.76 15.8427 13.7481 15.8443 13.7364 15.8467C13.3988 15.9157 13.1048 16.1308 12.9378 16.4424L10.3681 21.2392L6.04603 29.3069C6.04528 29.3083 6.04472 29.3099 6.04397 29.3113L0.140531 40.3307C-0.0561569 40.6979 -0.0458444 41.1306 0.168093 41.4881C0.382124 41.8455 0.758624 42.0589 1.17525 42.0589H46.8247C47.2399 42.0589 47.6157 41.8466 47.83 41.491C48.0445 41.1354 48.0566 40.7038 47.8627 40.3366ZM21.7448 21.1161L28.983 7.60569L37.1461 23.0582L33.7367 27.067L27.8219 20.0843C27.6022 19.8251 27.2814 19.6738 26.9418 19.6693C26.9365 19.6693 26.9314 19.6693 26.9262 19.6693C26.5922 19.6693 26.2739 19.8115 26.051 20.0609L23.0153 23.458L21.5321 21.5129L21.7448 21.1161ZM1.55991 40.6546L6.87609 30.7312L8.92566 32.4479C9.14672 32.6331 9.41409 32.7239 9.67997 32.7239C10.0024 32.7239 10.3225 32.5903 10.5553 32.3295L12.9061 29.6948L14.4202 31.197C14.6954 31.4701 15.14 31.4683 15.4131 31.1932C15.6862 30.9179 15.6844 30.4734 15.4092 30.2003L13.7228 28.527C13.4951 28.3013 13.1818 28.1779 12.8602 28.187C12.5397 28.1968 12.2334 28.3395 12.0201 28.5789L9.65625 31.2282L7.55344 29.4669L13.9713 17.487L22.253 33.1639L20.2537 35.0066L18.4247 33.1919C18.1495 32.9188 17.705 32.9205 17.4318 33.1958C17.1587 33.4709 17.1605 33.9155 17.4357 34.1886L19.421 36.1584C19.65 36.3855 19.9486 36.4997 20.2477 36.4997C20.5325 36.4997 20.8177 36.3962 21.0433 36.1882L22.9318 34.4476L26.2109 40.6546H1.55991Z" fill="#61E786"/>
</svg>
