<svg width="149" height="149" viewBox="0 0 149 149" fill="none" xmlns="http://www.w3.org/2000/svg">
<g clip-path="url(#clip0)">
<path d="M65.564 25.2797C68.6352 23.3427 71.8071 21.0574 74.5002 18.625C79.7376 13.4882 86.0105 9.36092 93.1252 9.3125C100.916 9.9383 106.522 13.8868 111.75 18.625C117.077 23.6295 123.328 27.8481 130.375 27.9375C138.17 27.3508 144.065 23.3185 149 18.625C151.705 16.0436 154.787 12.8792 157.927 10.8472" stroke="black" stroke-width="2"/>
<path d="M65.564 62.5297C68.6352 60.5927 71.8071 58.3074 74.5002 55.875C79.7376 50.7382 86.0105 46.6109 93.1252 46.5625C100.916 47.1883 106.522 51.1368 111.75 55.875C117.077 60.8795 123.328 65.0981 130.375 65.1875C138.17 64.6008 144.065 60.5685 149 55.875C151.705 53.2936 154.787 50.1292 157.927 48.0972" stroke="black" stroke-width="2"/>
<path d="M65.564 99.7797C68.6352 97.8427 71.8071 95.5574 74.5002 93.125C79.7376 87.9882 86.0105 83.8609 93.1252 83.8125C100.916 84.4383 106.522 88.3868 111.75 93.125C117.077 98.1295 123.328 102.348 130.375 102.437C138.17 101.851 144.065 97.8185 149 93.125C151.705 90.5436 154.787 87.3792 157.927 85.3472" stroke="black" stroke-width="2"/>
<path d="M65.564 137.03C68.6352 135.093 71.8071 132.807 74.5002 130.375C79.7376 125.238 86.0105 121.111 93.1252 121.062C100.916 121.688 106.522 125.637 111.75 130.375C117.077 135.38 123.328 139.598 130.375 139.687C138.17 139.101 144.065 135.068 149 130.375C151.705 127.794 154.787 124.629 157.927 122.597" stroke="black" stroke-width="2"/>
</g>
<g clip-path="url(#clip1)">
<path d="M-8.93604 25.2797C-5.86477 23.3427 -2.69294 21.0574 0.000239352 18.625C5.23759 13.4882 11.5105 9.36092 18.6252 9.3125C26.4161 9.9383 32.0222 13.8868 37.2502 18.625C42.577 23.6295 48.8275 27.8481 55.8752 27.9375C63.6698 27.3508 69.5646 23.3185 74.5002 18.625C77.2046 16.0436 80.287 12.8792 83.4272 10.8472" stroke="black" stroke-width="2"/>
<path d="M-8.93604 62.5297C-5.86477 60.5927 -2.69294 58.3074 0.000239352 55.875C5.23759 50.7382 11.5105 46.6109 18.6252 46.5625C26.4161 47.1883 32.0222 51.1368 37.2502 55.875C42.577 60.8795 48.8275 65.0981 55.8752 65.1875C63.6698 64.6008 69.5646 60.5685 74.5002 55.875C77.2046 53.2936 80.287 50.1292 83.4272 48.0972" stroke="black" stroke-width="2"/>
<path d="M-8.93604 99.7797C-5.86477 97.8427 -2.69294 95.5574 0.000239352 93.125C5.23759 87.9882 11.5105 83.8609 18.6252 83.8125C26.4161 84.4383 32.0222 88.3868 37.2502 93.125C42.577 98.1295 48.8275 102.348 55.8752 102.437C63.6698 101.851 69.5646 97.8185 74.5002 93.125C77.2046 90.5436 80.287 87.3792 83.4272 85.3472" stroke="black" stroke-width="2"/>
<path d="M-8.93604 137.03C-5.86477 135.093 -2.69294 132.807 0.000239352 130.375C5.23759 125.238 11.5105 121.111 18.6252 121.062C26.4161 121.688 32.0222 125.637 37.2502 130.375C42.577 135.38 48.8275 139.598 55.8752 139.687C63.6698 139.101 69.5646 135.068 74.5002 130.375C77.2046 127.794 80.287 124.629 83.4272 122.597" stroke="black" stroke-width="2"/>
</g>
<defs>
<clipPath id="clip0">
<rect width="74.5" height="149" fill="white" transform="translate(74.5)"/>
</clipPath>
<clipPath id="clip1">
<rect width="74.5" height="149" fill="white"/>
</clipPath>
</defs>
</svg>
