<svg aria-hidden="true" style="position: absolute; width: 0; height: 0; overflow: hidden;" version="1.1" xmlns="http://www.w3.org/2000/svg" xmlns:xlink="http://www.w3.org/1999/xlink">
<defs>
<symbol id="icon-bookmark" viewBox="0 0 20 20">
<path d="M14 2v17l-4-4-4 4v-17c0-0.553 0.585-1.020 1-1h6c0.689-0.020 1 0.447 1 1z"></path>
</symbol>
<symbol id="icon-beamed-note" viewBox="0 0 20 20">
<path d="M17 1l-0.002 13c0 1.243-1.301 3-3.748 3-1.243 0-2.25-0.653-2.25-1.875 0-1.589 1.445-2.55 3-2.55 0.432 0 0.754 0.059 1 0.123v-7.334l-7 1.273v9.363h-0.002c0 1.243-1.301 3-3.748 3-1.243 0-2.25-0.653-2.25-1.875 0-1.589 1.445-2.55 3-2.55 0.432 0 0.754 0.059 1 0.123v-11.698l11-2z"></path>
</symbol>
<symbol id="icon-bowl" viewBox="0 0 20 20">
<path d="M16.949 7.472c-2.176 2.902-4.095 3.002-7.046 3.152h-0.101c-3.591-0.002-6.138-1.336-6.138-1.832-0.002-0.471 2.298-1.697 5.605-1.819l0.59-1.473c-0.019 0-0.037-0.002-0.057-0.002-4.908 0-7.791 1.562-7.791 3.051v2c0 0.918 0.582 8.949 7.582 8.949s8-8.031 8-8.949v-2c0-0.391-0.201-0.787-0.584-1.158l-0.060 0.081zM17.589 2.702c-0.441-0.33-1.069-0.242-1.399 0.201l-3.608 4.809 2.336-5.838c0.206-0.512-0.044-1.094-0.557-1.301-0.508-0.205-1.096 0.043-1.3 0.559l-3.259 8.142c2.882-0.147 4.277-0.227 6.067-2.611 1.789-2.387 1.919-2.561 1.919-2.561 0.332-0.441 0.243-1.068-0.199-1.4z"></path>
</symbol>
<symbol id="icon-clipboard" viewBox="0 0 20 20">
<path d="M15.6 2l-1.2 3h-8.8l-1.2-3c-0.771 0-1.4 0.629-1.4 1.4v15.2c0 0.77 0.629 1.4 1.399 1.4h11.2c0.77 0 1.4-0.631 1.4-1.4v-15.2c0.001-0.771-0.63-1.4-1.399-1.4zM13.6 4l0.9-2h-2.181l-0.719-2h-3.2l-0.72 2h-2.18l0.899 2h7.201z"></path>
</symbol>
<symbol id="icon-credit-card" viewBox="0 0 20 20">
<path d="M18 3h-16c-1.101 0-2 0.9-2 2v10c0 1.1 0.899 2 2 2h16c1.1 0 2-0.9 2-2v-10c0-1.1-0.9-2-2-2zM18 15h-16v-6h16v6zM18 6h-16v-1h16v1zM4 11.1v0.6h0.6v-0.6h-0.6zM7.6 12.299v0.601h1.2v-0.601h0.6v-0.6h0.6v-0.6h-1.2v0.6h-0.601v0.6h-0.599zM10 12.9v-0.601h-0.601v0.601h0.601zM7 12.9v-0.601h-1.2v0.601h1.2zM7.6 11.699h0.6v-0.6h-1.2v1.199h0.6v-0.599zM5.199 12.299h0.601v-0.6h0.6v-0.6h-1.2v0.6h-0.6v0.6h-0.6v0.601h1.199v-0.601z"></path>
</symbol>
<symbol id="icon-globe" viewBox="0 0 20 20">
<path d="M10 0.4c-5.295 0-9.601 4.307-9.601 9.6s4.306 9.6 9.601 9.6c5.293 0 9.6-4.307 9.6-9.6s-4.307-9.6-9.6-9.6zM18.188 10c0 1.873-0.636 3.6-1.696 4.98-0.3-0.234-0.619-0.867-0.319-1.523 0.303-0.66 0.382-2.188 0.312-2.783-0.066-0.594-0.375-2.025-1.214-2.039-0.838-0.012-1.413-0.289-1.911-1.283-1.033-2.068 1.939-2.465 0.906-3.609-0.289-0.322-1.783 1.322-2.002-0.869-0.014-0.157 0.135-0.392 0.336-0.636 3.244 1.090 5.588 4.157 5.588 7.762zM8.875 1.893c-0.196 0.382-0.713 0.537-1.027 0.824-0.684 0.619-0.978 0.533-1.346 1.127-0.371 0.594-1.567 1.449-1.567 1.879s0.604 0.936 0.906 0.838c0.302-0.1 1.099-0.094 1.567 0.070 0.469 0.166 3.914 0.332 2.816 3.244-0.348 0.926-1.873 0.77-2.279 2.303-0.061 0.225-0.272 1.186-0.285 1.5-0.025 0.486 0.344 2.318-0.125 2.318-0.471 0-1.738-1.639-1.738-1.936s-0.328-1.338-0.328-2.23c0-0.891-1.518-0.877-1.518-2.062 0-1.068 0.823-1.6 0.638-2.113-0.181-0.51-1.627-0.527-2.23-0.59 1.053-2.731 3.53-4.758 6.516-5.172zM7.424 17.77c0.492-0.26 0.542-0.596 0.988-0.613 0.51-0.023 0.925-0.199 1.5-0.326 0.51-0.111 1.423-0.629 2.226-0.695 0.678-0.055 2.015 0.035 2.375 0.689-1.295 0.861-2.848 1.363-4.514 1.363-0.899 0-1.765-0.149-2.575-0.418z"></path>
</symbol>
<symbol id="icon-heart" viewBox="0 0 20 20">
<path d="M17.19 4.155c-1.672-1.534-4.383-1.534-6.055 0l-1.135 1.042-1.136-1.042c-1.672-1.534-4.382-1.534-6.054 0-1.881 1.727-1.881 4.52 0 6.246l7.19 6.599 7.19-6.599c1.88-1.726 1.88-4.52 0-6.246z"></path>
</symbol>
<symbol id="icon-home" viewBox="0 0 20 20">
<path d="M18.672 11h-1.672v6c0 0.445-0.194 1-1 1h-4v-6h-4v6h-4c-0.806 0-1-0.555-1-1v-6h-1.672c-0.598 0-0.47-0.324-0.060-0.748l8.024-8.032c0.195-0.202 0.451-0.302 0.708-0.312 0.257 0.010 0.513 0.109 0.708 0.312l8.023 8.031c0.411 0.425 0.539 0.749-0.059 0.749z"></path>
</symbol>
<symbol id="icon-hour-glass" viewBox="0 0 20 20">
<path d="M15.6 4.576c0-2.139 0-2.348 0-2.348 0-0.789-2.508-2.228-5.6-2.228-3.093 0-5.6 1.439-5.6 2.228 0 0 0 0.209 0 2.348 0 2.141 3.877 3.908 3.877 5.424 0 1.514-3.877 3.281-3.877 5.422s0 2.35 0 2.35c0 0.788 2.507 2.228 5.6 2.228 3.092 0 5.6-1.44 5.6-2.229 0 0 0-0.209 0-2.35s-3.877-3.908-3.877-5.422c0-1.515 3.877-3.282 3.877-5.423zM5.941 2.328c0.696-0.439 2-1.082 4.114-1.082s4.006 1.082 4.006 1.082c0.142 0.086 0.698 0.383 0.317 0.609-0.838 0.497-2.478 1.020-4.378 1.020s-3.484-0.576-4.324-1.074c-0.381-0.225 0.265-0.555 0.265-0.555zM10.501 10c0 1.193 0.996 1.961 2.051 2.986 0.771 0.748 1.826 1.773 1.826 2.435v1.328c-0.97-0.483-3.872-0.955-3.872-2.504 0-0.783-1.013-0.783-1.013 0 0 1.549-2.902 2.021-3.872 2.504v-1.328c0-0.662 1.056-1.688 1.826-2.435 1.055-1.025 2.051-1.793 2.051-2.986s-0.996-1.961-2.051-2.986c-0.771-0.75-1.826-1.775-1.826-2.438l-0.046-0.998c1.026 0.553 2.652 1.078 4.425 1.078 1.772 0 3.406-0.525 4.433-1.078l-0.055 0.998c0 0.662-1.056 1.688-1.826 2.438-1.054 1.025-2.051 1.793-2.051 2.986z"></path>
</symbol>
<symbol id="icon-laptop" viewBox="0 0 20 20">
<path d="M19.754 15.631c-0.247-0.371-1.754-2.631-1.754-2.631v-9c0-1.102-0.9-2-2-2h-12c-1.101 0-2 0.898-2 2v9c0 0-1.507 2.26-1.754 2.631-0.246 0.369-0.246 0.582-0.246 0.869v0.5c0 0.5 0.5 1 0.999 1h18.002c0.499 0 0.999-0.5 0.999-1v-0.5c0-0.287 0-0.5-0.246-0.869zM7 16l0.6-1h4.8l0.6 1h-6zM16 12h-12v-8h12v8z"></path>
</symbol>
<symbol id="icon-light-bulb" viewBox="0 0 20 20">
<path d="M7.186 19.172c0.789 0.51 1.701 0.855 2.814 0.828 1.111 0.027 2.025-0.318 2.814-0.828l-0.017-2.172h-5.594l-0.017 2.172zM12.697 16c0-4.357 4.63-5.848 4.283-10.188-0.218-2.738-2.073-5.81-6.98-5.81s-6.762 3.072-6.981 5.811c-0.347 4.339 4.284 5.83 4.284 10.187h5.394zM5 6c0.207-2.598 2.113-4 5-4s4.654 1.371 4.861 3.969c0.113 1.424-0.705 2.373-1.809 3.926-0.814 1.146-1.603 2.343-2.052 4.105h-2c-0.449-1.762-1.238-2.959-2.053-4.106-1.103-1.552-2.061-2.47-1.947-3.894z"></path>
</symbol>
<symbol id="icon-location-pin" viewBox="0 0 20 20">
<path d="M10 2.009c-2.762 0-5 2.229-5 4.99 0 4.774 5 11 5 11s5-6.227 5-11c0-2.76-2.238-4.99-5-4.99zM10 9.76c-1.492 0-2.7-1.209-2.7-2.7s1.208-2.7 2.7-2.7c1.49 0 2.699 1.209 2.699 2.7s-1.209 2.7-2.699 2.7z"></path>
</symbol>
<symbol id="icon-mail" viewBox="0 0 20 20">
<path d="M1.574 5.286c0.488 0.262 7.248 3.894 7.5 4.029s0.578 0.199 0.906 0.199c0.328 0 0.654-0.064 0.906-0.199s7.012-3.767 7.5-4.029c0.489-0.263 0.951-1.286 0.054-1.286h-16.919c-0.897 0-0.435 1.023 0.053 1.286zM18.613 7.489c-0.555 0.289-7.387 3.849-7.727 4.027s-0.578 0.199-0.906 0.199-0.566-0.021-0.906-0.199-7.133-3.739-7.688-4.028c-0.39-0.204-0.386 0.035-0.386 0.219s0 7.293 0 7.293c0 0.42 0.566 1 1 1h16c0.434 0 1-0.58 1-1 0 0 0-7.108 0-7.292s0.004-0.423-0.387-0.219z"></path>
</symbol>
<symbol id="icon-shopping-basket" viewBox="0 0 20 20">
<path d="M18.399 7h-5.007l-1.812 1.812c-0.453 0.453-1.056 0.702-1.696 0.702-0.642 0-1.244-0.25-1.698-0.703-0.452-0.452-0.702-1.054-0.703-1.695 0-0.039 0.010-0.077 0.011-0.116h-5.894c-0.332 0-0.6 0.268-0.6 0.6v2.4h18v-2.4c0-0.332-0.27-0.6-0.601-0.6zM10.768 7.999l5.055-5.055c0.235-0.234 0.237-0.613 0.002-0.849l-0.92-0.92c-0.234-0.234-0.614-0.233-0.85 0l-5.055 5.056c-0.488 0.488-0.488 1.28 0 1.768 0.488 0.487 1.279 0.488 1.768 0zM3.823 17.271c0.097 0.401 0.515 0.729 0.927 0.729h10.5c0.412 0 0.83-0.328 0.927-0.729l1.523-6.271h-15.4l1.523 6.271z"></path>
</symbol>
<symbol id="icon-suitcase" viewBox="0 0 20 20">
<path d="M18 4h-1v15h1c1.1 0 2-0.9 2-2v-11c0-1.1-0.9-2-2-2zM0 6v11c0 1.1 0.899 2 2 2h1v-15h-1c-1.101 0-2 0.9-2 2zM13.5 1.906c-0.681-0.316-1.889-0.906-3.519-0.906-1.633 0-2.8 0.59-3.481 0.906v2.094h-2.5v15h12v-15h-2.5v-2.094zM12 4h-4v-1.336c0.534-0.23 1.078-0.465 1.981-0.465s1.486 0.234 2.019 0.465v1.336z"></path>
</symbol>
<symbol id="icon-thumbs-up" viewBox="0 0 20 20">
<path d="M13.648 7.362c-0.133-0.355 3.539-3.634 1.398-6.291-0.501-0.621-2.201 2.975-4.615 4.603-1.332 0.898-4.431 2.81-4.431 3.867v6.842c0 1.271 4.914 2.617 8.648 2.617 1.369 0 3.352-8.576 3.352-9.938 0-1.368-4.221-1.344-4.352-1.7zM5 7.457c-0.658 0-3 0.4-3 3.123v4.848c0 2.721 2.342 3.021 3 3.021 0.657 0-1-0.572-1-2.26v-6.373c0-1.768 1.657-2.359 1-2.359z"></path>
</symbol>
</defs>
</svg>
