<svg width="63" height="63" viewBox="0 0 63 63" fill="none" xmlns="http://www.w3.org/2000/svg">
<path d="M50.675 29.9548L39.4041 8.61919C39.1375 8.11445 38.6171 7.79994 38.0463 7.79822C38.0447 7.79822 38.0432 7.79822 38.0417 7.79822C37.4726 7.79822 36.9525 8.1094 36.6837 8.61131L26.3563 27.8878C26.1858 28.206 26.2168 28.5946 26.4358 28.8817L28.9637 32.1968C29.2434 32.5636 29.668 32.7842 30.129 32.8022C30.5884 32.8213 31.0304 32.6333 31.3377 32.2893L35.3343 27.8168L43.1031 36.9883C43.3932 37.3307 43.8169 37.5293 44.2656 37.5331C44.27 37.5331 44.2744 37.5331 44.2789 37.5331C44.7227 37.5331 45.1443 37.3423 45.4371 37.0082L50.0415 31.7581C50.068 31.7279 50.0925 31.696 50.1149 31.6625L50.6264 30.8972C50.8144 30.6158 50.8331 30.254 50.675 29.9548ZM48.6161 30.5885L44.2828 35.5297L36.5161 26.3606C36.2279 26.0205 35.8068 25.8219 35.3609 25.816C35.3541 25.8158 35.3474 25.8158 35.3405 25.8158C34.9021 25.8158 34.4843 26.0024 34.1917 26.3299L30.2073 30.7885L28.2607 28.2357L38.04 9.9823L48.789 30.3299L48.6161 30.5885Z" fill="#61E786"/>
<path d="M62.8197 52.9418L55.585 39.247C55.3472 38.797 54.7899 38.625 54.3398 38.8628C53.8899 39.1005 53.7178 39.6579 53.9556 40.1079L60.9562 53.3594H36.413C36.384 53.2164 25.7195 32.9795 25.7195 32.9795L27.3046 30.0209L28.9639 32.1969C29.2436 32.5637 29.6683 32.7844 30.1291 32.8023C30.5886 32.8214 31.0306 32.6334 31.3378 32.2895L35.3345 27.817L43.1033 36.9884C43.3933 37.3308 43.8171 37.5294 44.2657 37.5332C44.2702 37.5332 44.2746 37.5332 44.279 37.5332C44.7229 37.5332 45.1444 37.3424 45.4374 37.0083C45.4405 37.0049 45.4435 37.0013 45.4465 36.9977L49.6815 32.018L51.4031 35.2768C51.6408 35.7268 52.1982 35.8989 52.6482 35.6611C53.0982 35.4233 53.2702 34.8659 53.0325 34.416L39.4042 8.6187C39.1374 8.11396 38.6172 7.79945 38.0463 7.79773H38.0418C37.4727 7.79773 36.9526 8.10892 36.6837 8.61095L27.0084 26.6713L26.3566 27.8878C26.3566 27.888 26.3565 27.8881 26.3565 27.8882L24.6816 31.0146L19.7018 21.5883C19.5017 21.2097 19.159 20.9381 18.7592 20.8253C18.6259 20.7877 18.4862 20.7676 18.3433 20.7672C18.3419 20.7672 18.3404 20.7672 18.3389 20.7672C18.3198 20.7672 18.301 20.7685 18.2821 20.7692C18.2664 20.7697 18.2507 20.7698 18.2352 20.7708C18.221 20.7718 18.2071 20.7736 18.1931 20.775C18.1722 20.777 18.1513 20.7786 18.1306 20.7814C18.112 20.7838 18.0937 20.7875 18.0753 20.7907C18.06 20.7934 18.0443 20.7955 18.0291 20.7987C17.5859 20.8893 17.2 21.1716 16.9808 21.5806L13.6081 27.8764L7.93541 38.4653C7.93443 38.4672 7.93369 38.4691 7.93271 38.471L0.184446 52.934C-0.0737059 53.416 -0.0601708 53.9839 0.220622 54.453C0.501538 54.9222 0.995695 55.2023 1.54251 55.2023H61.4574C62.0023 55.2023 62.4956 54.9236 62.7769 54.4569C63.0584 53.9901 63.0743 53.4238 62.8197 52.9418ZM28.54 27.7148L38.0402 9.98243L48.7542 30.2639L44.2794 35.5254L36.5163 26.3606C36.228 26.0204 35.8069 25.8218 35.3611 25.816C35.3542 25.8159 35.3474 25.8158 35.3407 25.8158C34.9022 25.8158 34.4845 26.0025 34.1919 26.3299L30.2075 30.7885L28.2609 28.2357L28.54 27.7148ZM2.04738 53.3592L9.02487 40.3346L11.7149 42.5879C12.0051 42.8309 12.356 42.9501 12.705 42.9501C13.1281 42.9501 13.5483 42.7748 13.8538 42.4325L16.9392 38.9744L18.9265 40.9461C19.2877 41.3045 19.8712 41.3022 20.2296 40.941C20.5881 40.5798 20.5857 39.9963 20.2246 39.6378L18.0111 37.4417C17.7124 37.1454 17.3011 36.9835 16.8791 36.9954C16.4584 37.0082 16.0564 37.1956 15.7763 37.5097L12.6738 40.9869L9.91389 38.6752L18.3373 22.9517L29.207 43.5276L26.5829 45.9461L24.1824 43.5643C23.8213 43.2058 23.2378 43.2082 22.8792 43.5694C22.5208 43.9306 22.5231 44.5141 22.8844 44.8725L25.49 47.4578C25.7906 47.756 26.1825 47.9058 26.5752 47.9058C26.9489 47.9058 27.3232 47.77 27.6193 47.497L30.098 45.2125L34.4018 53.3592H2.04738V53.3592Z" fill="#61E786"/>
</svg>
