<svg width="63" height="58" viewBox="0 0 63 58" fill="none" xmlns="http://www.w3.org/2000/svg">
<path d="M7.68359 7.72244L10.4446 5.80174L13.4457 4.12113L16.3267 2.80065L19.6879 1.96035L25.2099 1H31.6923H37.6945L43.6966 1.96035L47.298 2.80065L50.6592 4.12113L53.1801 5.80174L55.701 7.72244" stroke="black" stroke-width="2"/>
<path d="M24.5867 54.9658L21.7556 53.15L19.0545 51.0205L16.732 48.8641L14.6694 46.0803L11.6689 41.3462L9.18824 35.3572L6.89131 29.812L5.48162 23.8992L4.8798 20.2504L4.81348 16.6397L5.40145 13.6676L6.21123 10.6035" stroke="black" stroke-width="2"/>
<path d="M56.7903 10.6035L57.5082 13.8894L57.9124 17.3052L58.0298 20.4722L57.5199 23.8992L56.2939 29.3683L53.8132 35.3572L51.5163 40.9025L48.3321 46.0803L46.1776 49.0859L43.6714 51.6859L41.154 53.3718L38.4148 54.9658" stroke="black" stroke-width="2"/>
</svg>
