<svg width="15" height="17" viewBox="0 0 15 17" fill="none" xmlns="http://www.w3.org/2000/svg">
<g clip-path="url(#clip0)">
<path d="M6.37835 2.22119L7.12165 1.48408C7.43638 1.17197 7.94531 1.17197 8.2567 1.48408L14.7656 7.93545C15.0804 8.24756 15.0804 8.75225 14.7656 9.06104L8.2567 15.5157C7.94196 15.8278 7.43304 15.8278 7.12165 15.5157L6.37835 14.7786C6.06027 14.4632 6.06696 13.9485 6.39174 13.6397L10.4263 9.82803H0.803571C0.358259 9.82803 0 9.47276 0 9.03115V7.96865C0 7.52705 0.358259 7.17178 0.803571 7.17178H10.4263L6.39174 3.36006C6.06362 3.05127 6.05692 2.53662 6.37835 2.22119Z" fill="white"/>
</g>
<defs>
<clipPath id="clip0">
<rect width="15" height="17" fill="white"/>
</clipPath>
</defs>
</svg>
