<svg width="28" height="32" viewBox="0 0 28 32" fill="none" xmlns="http://www.w3.org/2000/svg">
<g clip-path="url(#clip0)">
<path d="M13.9007 8.81251C9.95559 8.81251 6.77345 12.0188 6.77345 15.9938C6.77345 19.9688 9.95559 23.175 13.9007 23.175C17.8458 23.175 21.028 19.9688 21.028 15.9938C21.028 12.0188 17.8458 8.81251 13.9007 8.81251ZM13.9007 20.6625C11.3513 20.6625 9.26706 18.5688 9.26706 15.9938C9.26706 13.4188 11.3451 11.325 13.9007 11.325C16.4563 11.325 18.5343 13.4188 18.5343 15.9938C18.5343 18.5688 16.4501 20.6625 13.9007 20.6625ZM22.9819 8.51876C22.9819 9.45001 22.2375 10.1938 21.3195 10.1938C20.3953 10.1938 19.6571 9.44376 19.6571 8.51876C19.6571 7.59376 20.4015 6.84376 21.3195 6.84376C22.2375 6.84376 22.9819 7.59376 22.9819 8.51876ZM27.7024 10.2188C27.5969 7.97501 27.0883 5.98751 25.4569 4.35001C23.8317 2.71251 21.8592 2.20001 19.6323 2.08751C17.3372 1.95626 10.458 1.95626 8.16292 2.08751C5.94225 2.19376 3.96969 2.70626 2.3383 4.34376C0.706912 5.98126 0.204469 7.96876 0.0928145 10.2125C-0.0374486 12.525 -0.0374486 19.4563 0.0928145 21.7688C0.198266 24.0125 0.706912 26 2.3383 27.6375C3.96969 29.275 5.93605 29.7875 8.16292 29.9C10.458 30.0313 17.3372 30.0313 19.6323 29.9C21.8592 29.7938 23.8317 29.2813 25.4569 27.6375C27.0821 26 27.5907 24.0125 27.7024 21.7688C27.8327 19.4563 27.8327 12.5313 27.7024 10.2188ZM24.7374 24.25C24.2535 25.475 23.3169 26.4188 22.0949 26.9125C20.265 27.6438 15.9229 27.475 13.9007 27.475C11.8785 27.475 7.53022 27.6375 5.70653 26.9125C4.49075 26.425 3.55409 25.4813 3.06405 24.25C2.3383 22.4063 2.50578 18.0313 2.50578 15.9938C2.50578 13.9563 2.34451 9.57501 3.06405 7.73751C3.54789 6.51251 4.48454 5.56876 5.70653 5.07501C7.53642 4.34376 11.8785 4.51251 13.9007 4.51251C15.9229 4.51251 20.2712 4.35001 22.0949 5.07501C23.3107 5.56251 24.2473 6.50626 24.7374 7.73751C25.4631 9.58126 25.2956 13.9563 25.2956 15.9938C25.2956 18.0313 25.4631 22.4125 24.7374 24.25Z" fill="#A5FFD6"/>
</g>
<defs>
<clipPath id="clip0">
<rect width="27.7895" height="32" fill="white"/>
</clipPath>
</defs>
</svg>
