<svg width="61" height="61" viewBox="0 0 61 61" fill="none" xmlns="http://www.w3.org/2000/svg">
<path d="M30.5 24.7812C43.1335 24.7812 53.375 20.514 53.375 15.25C53.375 9.98604 43.1335 5.71875 30.5 5.71875C17.8665 5.71875 7.625 9.98604 7.625 15.25C7.625 20.514 17.8665 24.7812 30.5 24.7812Z" stroke="#A5FFD6" stroke-width="3" stroke-miterlimit="10" stroke-linecap="round"/>
<path d="M53.375 25.4961C53.375 30.7597 43.1289 35.0273 30.5 35.0273C17.8711 35.0273 7.625 30.7597 7.625 25.4961" stroke="#A5FFD6" stroke-width="3" stroke-miterlimit="10" stroke-linecap="round"/>
<path d="M53.375 35.7422C53.375 41.0058 43.1289 45.2734 30.5 45.2734C17.8711 45.2734 7.625 41.0058 7.625 35.7422" stroke="#A5FFD6" stroke-width="3" stroke-miterlimit="10" stroke-linecap="round"/>
<path d="M7.625 15.1594V45.8405C7.625 51.0541 17.8711 55.2812 30.5 55.2812C43.1289 55.2812 53.375 51.0541 53.375 45.8405V15.1594" stroke="#A5FFD6" stroke-width="3" stroke-miterlimit="10" stroke-linecap="round"/>
</svg>
