<svg width="20" height="20" viewBox="0 0 20 20" fill="none" xmlns="http://www.w3.org/2000/svg">
<path d="M18.4763 1.52549C18.3485 1.39771 18.1865 1.3096 18.0098 1.27176C17.8331 1.23392 17.6492 1.24796 17.4803 1.31221L1.85408 7.22666H1.85096C1.67079 7.29596 1.5164 7.41918 1.40888 7.57951C1.30136 7.73983 1.24596 7.92944 1.25023 8.12243C1.2545 8.31542 1.31825 8.50239 1.43276 8.65779C1.54727 8.8132 1.70696 8.92947 1.89002 8.99072L1.90604 8.9958L7.26932 11.286C7.37392 11.3178 7.48503 11.3216 7.59155 11.2969C7.69807 11.2723 7.79627 11.2202 7.87635 11.1458L16.4842 3.1251C16.5098 3.09945 16.5403 3.0791 16.5738 3.06522C16.6073 3.05134 16.6432 3.0442 16.6795 3.0442C16.7157 3.0442 16.7517 3.05134 16.7852 3.06522C16.8187 3.0791 16.8491 3.09945 16.8748 3.1251C16.9004 3.15075 16.9208 3.1812 16.9347 3.21471C16.9485 3.24822 16.9557 3.28414 16.9557 3.32041C16.9557 3.35668 16.9485 3.3926 16.9347 3.42611C16.9208 3.45963 16.9004 3.49008 16.8748 3.51572L8.85369 12.1196C8.77927 12.1997 8.72715 12.2979 8.70254 12.4044C8.67794 12.5109 8.6817 12.6221 8.71346 12.7267L11.0045 18.0931C11.0068 18.1009 11.0092 18.1079 11.0119 18.1153C11.1369 18.4774 11.4533 18.7329 11.8357 18.7501H11.8748C12.0678 18.7512 12.2568 18.6942 12.417 18.5865C12.5772 18.4788 12.7013 18.3254 12.7732 18.1462L18.6869 2.52432C18.7521 2.35529 18.7668 2.171 18.7295 1.99374C18.6921 1.81647 18.6042 1.65384 18.4763 1.52549V1.52549Z" fill="#F6F6F6"/>
</svg>
