<svg width="150" height="150" viewBox="0 0 150 150" fill="none" xmlns="http://www.w3.org/2000/svg">
<path d="M37.5 93.75C35.8424 93.75 34.2527 94.4085 33.0806 95.5806C31.9085 96.7527 31.25 98.3424 31.25 100V118.75C31.25 120.408 31.9085 121.997 33.0806 123.169C34.2527 124.342 35.8424 125 37.5 125C39.1576 125 40.7473 124.342 41.9194 123.169C43.0915 121.997 43.75 120.408 43.75 118.75V100C43.75 98.3424 43.0915 96.7527 41.9194 95.5806C40.7473 94.4085 39.1576 93.75 37.5 93.75ZM62.5 75C60.8424 75 59.2527 75.6585 58.0806 76.8306C56.9085 78.0027 56.25 79.5924 56.25 81.25V118.75C56.25 120.408 56.9085 121.997 58.0806 123.169C59.2527 124.342 60.8424 125 62.5 125C64.1576 125 65.7473 124.342 66.9194 123.169C68.0915 121.997 68.75 120.408 68.75 118.75V81.25C68.75 79.5924 68.0915 78.0027 66.9194 76.8306C65.7473 75.6585 64.1576 75 62.5 75ZM112.5 25C110.842 25 109.253 25.6585 108.081 26.8306C106.908 28.0027 106.25 29.5924 106.25 31.25V118.75C106.25 120.408 106.908 121.997 108.081 123.169C109.253 124.342 110.842 125 112.5 125C114.158 125 115.747 124.342 116.919 123.169C118.092 121.997 118.75 120.408 118.75 118.75V31.25C118.75 29.5924 118.092 28.0027 116.919 26.8306C115.747 25.6585 114.158 25 112.5 25V25ZM87.5 50C85.8424 50 84.2527 50.6585 83.0806 51.8306C81.9085 53.0027 81.25 54.5924 81.25 56.25V118.75C81.25 120.408 81.9085 121.997 83.0806 123.169C84.2527 124.342 85.8424 125 87.5 125C89.1576 125 90.7473 124.342 91.9194 123.169C93.0915 121.997 93.75 120.408 93.75 118.75V56.25C93.75 54.5924 93.0915 53.0027 91.9194 51.8306C90.7473 50.6585 89.1576 50 87.5 50Z" fill="url(#paint0_linear)"/>
<defs>
<linearGradient id="paint0_linear" x1="75" y1="25" x2="75" y2="125" gradientUnits="userSpaceOnUse">
<stop stop-color="#0052D4"/>
<stop offset="1" stop-color="#89DCFF"/>
</linearGradient>
</defs>
</svg>
