<svg width="960" height="773" viewBox="0 0 960 773" fill="none" xmlns="http://www.w3.org/2000/svg">
<path d="M782.709 127.23H333.499C323.144 127.23 314.75 135.642 314.75 146.019V695.829C314.75 706.206 323.144 714.619 333.499 714.619H782.709C793.064 714.619 801.458 706.206 801.458 695.829V146.019C801.458 135.642 793.064 127.23 782.709 127.23Z" fill="#414245"/>
<path opacity="0.1" d="M759.473 182.906H356.736V651.787H759.473V182.906Z" fill="white" stroke="white" stroke-miterlimit="10"/>
<path d="M558.105 703.459C567.57 703.459 575.244 695.769 575.244 686.282C575.244 676.796 567.57 669.106 558.105 669.106C548.639 669.106 540.966 676.796 540.966 686.282C540.966 695.769 548.639 703.459 558.105 703.459Z" fill="white"/>
<path d="M558.104 169.687C556.504 169.677 554.943 169.193 553.617 168.295C552.292 167.397 551.262 166.125 550.657 164.641C550.052 163.156 549.899 161.526 550.218 159.954C550.538 158.383 551.314 156.942 552.45 155.813C553.586 154.683 555.031 153.917 556.601 153.61C558.172 153.303 559.798 153.469 561.274 154.087C562.75 154.705 564.01 155.748 564.896 157.084C565.781 158.42 566.251 159.989 566.248 161.592C566.244 162.66 566.03 163.716 565.619 164.701C565.207 165.686 564.606 166.579 563.85 167.331C563.094 168.083 562.197 168.678 561.211 169.082C560.225 169.486 559.17 169.692 558.104 169.687Z" fill="white"/>
<path d="M558.105 153.934C559.616 153.924 561.096 154.366 562.357 155.201C563.618 156.037 564.602 157.23 565.185 158.628C565.768 160.026 565.923 161.565 565.63 163.052C565.338 164.538 564.611 165.904 563.542 166.975C562.473 168.046 561.11 168.774 559.627 169.068C558.144 169.361 556.608 169.206 555.213 168.622C553.818 168.038 552.628 167.051 551.794 165.788C550.96 164.524 550.52 163.041 550.529 161.526C550.544 159.517 551.347 157.594 552.764 156.174C554.182 154.753 556.1 153.949 558.105 153.934ZM558.105 152.985C556.408 152.985 554.749 153.49 553.339 154.436C551.928 155.381 550.83 156.726 550.183 158.298C549.536 159.87 549.369 161.599 549.703 163.266C550.038 164.933 550.859 166.464 552.062 167.663C553.265 168.862 554.796 169.676 556.462 170.002C558.127 170.328 559.852 170.151 561.417 169.494C562.982 168.837 564.317 167.728 565.253 166.31C566.189 164.891 566.683 163.226 566.674 161.526C566.661 159.256 565.753 157.084 564.147 155.483C562.542 153.883 560.369 152.985 558.105 152.985Z" fill="white"/>
<path d="M551.855 272.812V256.11H564.354V272.812H577.061V247.769H585.186L558.104 222.716L531.032 247.769H539.147V272.812H551.855Z" fill="#4093E9"/>
<path d="M417.991 350.439V332.408C417.991 331.393 417.589 330.419 416.872 329.701C416.155 328.982 415.184 328.579 414.17 328.579C413.157 328.579 412.185 328.982 411.469 329.701C410.752 330.419 410.35 331.393 410.35 332.408V350.439C408.842 351.286 407.658 352.61 406.982 354.204C406.305 355.797 406.175 357.571 406.612 359.246C407.049 360.922 408.028 362.405 409.395 363.464C410.763 364.522 412.442 365.097 414.17 365.097C415.898 365.097 417.578 364.522 418.945 363.464C420.313 362.405 421.292 360.922 421.729 359.246C422.165 357.571 422.035 355.797 421.359 354.204C420.683 352.61 419.498 351.286 417.991 350.439ZM412.849 332.408C412.877 332.081 413.026 331.777 413.268 331.555C413.509 331.333 413.824 331.21 414.151 331.21C414.479 331.21 414.794 331.333 415.035 331.555C415.276 331.777 415.426 332.081 415.453 332.408V336.451H412.849V332.408Z" fill="white" stroke="white" stroke-miterlimit="10"/>
<path opacity="0.3" d="M694.345 345.504H467.088V348.038H694.345V345.504Z" fill="#4093E9"/>
<path d="M537.263 352.783C540.574 352.783 543.257 350.093 543.257 346.776C543.257 343.458 540.574 340.769 537.263 340.769C533.953 340.769 531.27 343.458 531.27 346.776C531.27 350.093 533.953 352.783 537.263 352.783Z" fill="#4093E9"/>
<path d="M537.263 345.504H467.088V348.038H537.263V345.504Z" fill="#4093E9"/>
<path d="M415.491 438.542C415.449 438.203 415.282 437.893 415.022 437.671C414.763 437.45 414.43 437.334 414.09 437.346C413.78 437.338 413.475 437.434 413.226 437.62C412.977 437.806 412.798 438.071 412.717 438.371L411.335 445.906C411.296 446.097 411.277 446.291 411.278 446.485C411.278 447.24 411.577 447.964 412.11 448.498C412.643 449.032 413.365 449.332 414.118 449.332C414.872 449.332 415.594 449.032 416.127 448.498C416.66 447.964 416.959 447.24 416.959 446.485C416.956 446.251 416.924 446.018 416.864 445.792L415.491 438.542ZM426.248 441.778C426.102 441.659 425.947 441.551 425.784 441.455L420.179 437.584C419.966 437.425 419.705 437.346 419.441 437.36C419.176 437.373 418.925 437.48 418.73 437.659C418.556 437.813 418.444 438.026 418.416 438.257C418.388 438.488 418.446 438.721 418.578 438.912L422.896 444.274C422.98 444.399 423.075 444.517 423.18 444.625C423.605 444.993 424.148 445.195 424.71 445.195C425.271 445.195 425.814 444.993 426.239 444.625C426.44 444.447 426.602 444.228 426.712 443.982C426.823 443.737 426.88 443.471 426.88 443.201C426.88 442.932 426.823 442.666 426.712 442.421C426.602 442.175 426.44 441.956 426.239 441.778H426.248ZM430.036 436.245L424.781 436.056C424.623 436.031 424.461 436.068 424.331 436.16C424.2 436.252 424.11 436.392 424.08 436.549C424.06 436.699 424.09 436.85 424.166 436.981C424.241 437.111 424.357 437.213 424.496 437.27L429.581 438.713C430.32 438.874 431.144 438.532 431.144 437.764C431.144 436.815 430.869 436.331 430.036 436.236V436.245ZM403.92 437.27C404.059 437.213 404.176 437.111 404.251 436.981C404.326 436.85 404.357 436.699 404.337 436.549C404.305 436.391 404.213 436.251 404.081 436.16C403.948 436.068 403.786 436.03 403.627 436.056L398.381 436.245C397.538 436.34 397.292 436.805 397.292 437.764C397.292 438.523 398.097 438.874 398.826 438.713L403.911 437.261L403.92 437.27ZM408.21 437.574L402.604 441.436C402.443 441.53 402.291 441.638 402.15 441.759C401.948 441.937 401.787 442.156 401.676 442.402C401.566 442.647 401.508 442.913 401.508 443.183C401.508 443.452 401.566 443.718 401.676 443.963C401.787 444.209 401.948 444.428 402.15 444.606C402.566 444.987 403.11 445.198 403.674 445.198C404.238 445.198 404.782 444.987 405.199 444.606C405.312 444.506 405.41 444.391 405.492 444.264L409.81 438.922C409.942 438.73 410 438.497 409.972 438.266C409.944 438.035 409.833 437.823 409.659 437.669C409.463 437.478 409.205 437.364 408.933 437.346C408.66 437.329 408.39 437.41 408.172 437.574H408.21ZM414.213 412.559C414.213 412.559 416.675 415.406 416.675 417.807C416.717 418.326 416.651 418.849 416.483 419.342C416.314 419.835 416.046 420.288 415.695 420.672C415.344 421.057 414.918 421.365 414.443 421.577C413.968 421.789 413.455 421.902 412.935 421.906C412.403 421.905 411.877 421.798 411.388 421.59C410.898 421.382 410.455 421.078 410.085 420.696C409.714 420.314 409.424 419.862 409.23 419.366C409.036 418.869 408.944 418.339 408.958 417.807V417.247C406.66 420.045 405.407 423.559 405.416 427.183C405.416 429.513 406.34 431.748 407.985 433.396C409.629 435.044 411.859 435.97 414.185 435.97C416.51 435.97 418.74 435.044 420.385 433.396C422.029 431.748 422.953 429.513 422.953 427.183C422.953 421.261 420.037 414.324 414.175 412.559H414.213ZM413.901 432.677C412.976 432.687 412.084 432.329 411.422 431.682C410.76 431.034 410.381 430.15 410.369 429.223C410.367 428.371 410.68 427.549 411.249 426.916C411.818 426.283 412.601 425.884 413.446 425.797C415.419 425.474 417.215 424.466 418.522 422.95C418.951 424.391 419.168 425.888 419.165 427.391C419.165 428.791 418.611 430.133 417.623 431.122C416.636 432.112 415.297 432.668 413.901 432.668V432.677Z" fill="white" stroke="white" stroke-miterlimit="10"/>
<path opacity="0.3" d="M694.345 429.555H467.088V432.089H694.345V429.555Z" fill="#4093E9"/>
<path d="M590.29 436.834C593.6 436.834 596.284 434.144 596.284 430.827C596.284 427.509 593.6 424.82 590.29 424.82C586.979 424.82 584.296 427.509 584.296 430.827C584.296 434.144 586.979 436.834 590.29 436.834Z" fill="#4093E9"/>
<path d="M590.867 429.555H467.088V432.089H590.867V429.555Z" fill="#4093E9"/>
<path d="M408.967 528.306C408.97 528.738 409.142 529.152 409.447 529.457C409.752 529.763 410.165 529.936 410.596 529.938H417.754C418.186 529.936 418.598 529.763 418.903 529.457C419.208 529.152 419.381 528.738 419.383 528.306V526.844H408.967V528.306ZM414.175 498.622C407.689 498.622 402.462 503.509 402.462 509.554C402.475 511.356 402.94 513.126 403.814 514.701C404.687 516.276 405.942 517.606 407.462 518.569V522.109C407.469 522.322 407.518 522.532 407.606 522.726C407.695 522.92 407.82 523.095 407.976 523.24C408.131 523.386 408.314 523.499 408.513 523.573C408.713 523.648 408.925 523.682 409.138 523.675H419.213C419.425 523.682 419.637 523.648 419.837 523.573C420.036 523.499 420.219 523.386 420.375 523.24C420.53 523.095 420.656 522.92 420.744 522.726C420.832 522.532 420.881 522.322 420.889 522.109V518.569C422.412 517.609 423.669 516.279 424.544 514.704C425.419 513.128 425.885 511.357 425.898 509.554C425.898 503.509 420.661 498.622 414.175 498.622Z" fill="white" stroke="white" stroke-miterlimit="10"/>
<path opacity="0.3" d="M694.345 513.018H467.088V515.552H694.345V513.018Z" fill="#4093E9"/>
<path d="M648.998 520.287C652.308 520.287 654.992 517.598 654.992 514.28C654.992 510.962 652.308 508.273 648.998 508.273C645.687 508.273 643.004 510.962 643.004 514.28C643.004 517.598 645.687 520.287 648.998 520.287Z" fill="#4093E9"/>
<path d="M649.575 513.018H467.088V515.552H649.575V513.018Z" fill="#4093E9"/>
<path d="M406.363 578.051V596.31H411.571V611.968L421.987 591.09H416.779L421.987 578.051H406.363Z" fill="white" stroke="white" stroke-miterlimit="10"/>
<path opacity="0.3" d="M694.345 593.747H467.088V596.281H694.345V593.747Z" fill="#4093E9"/>
<path d="M537.263 601.017C540.574 601.017 543.257 598.327 543.257 595.01C543.257 591.692 540.574 589.003 537.263 589.003C533.953 589.003 531.27 591.692 531.27 595.01C531.27 598.327 533.953 601.017 537.263 601.017Z" fill="#4093E9"/>
<path d="M537.263 593.747H467.088V596.281H537.263V593.747Z" fill="#4093E9"/>
<path d="M325.81 751.572C356.911 751.572 382.123 746.711 382.123 740.716C382.123 734.72 356.911 729.859 325.81 729.859C294.71 729.859 269.498 734.72 269.498 740.716C269.498 746.711 294.71 751.572 325.81 751.572Z" fill="#4093E9"/>
<path d="M324.873 744.701C328.492 744.701 331.425 740.852 331.425 736.104C331.425 731.355 328.492 727.506 324.873 727.506C321.254 727.506 318.32 731.355 318.32 736.104C318.32 740.852 321.254 744.701 324.873 744.701Z" fill="#414245"/>
<path d="M324.873 734.187C328.492 734.187 331.425 730.337 331.425 725.589C331.425 720.841 328.492 716.991 324.873 716.991C321.254 716.991 318.32 720.841 318.32 725.589C318.32 730.337 321.254 734.187 324.873 734.187Z" fill="#414245"/>
<path d="M324.873 723.682C328.492 723.682 331.425 719.832 331.425 715.084C331.425 710.335 328.492 706.486 324.873 706.486C321.254 706.486 318.32 710.335 318.32 715.084C318.32 719.832 321.254 723.682 324.873 723.682Z" fill="#414245"/>
<path d="M324.873 713.167C328.492 713.167 331.425 709.318 331.425 704.569C331.425 699.821 328.492 695.971 324.873 695.971C321.254 695.971 318.32 699.821 318.32 704.569C318.32 709.318 321.254 713.167 324.873 713.167Z" fill="#414245"/>
<path d="M324.873 702.652C328.492 702.652 331.425 698.803 331.425 694.054C331.425 689.306 328.492 685.457 324.873 685.457C321.254 685.457 318.32 689.306 318.32 694.054C318.32 698.803 321.254 702.652 324.873 702.652Z" fill="#414245"/>
<path d="M324.873 692.138C328.492 692.138 331.425 688.288 331.425 683.54C331.425 678.791 328.492 674.942 324.873 674.942C321.254 674.942 318.32 678.791 318.32 683.54C318.32 688.288 321.254 692.138 324.873 692.138Z" fill="#414245"/>
<path d="M324.873 681.623C328.492 681.623 331.425 677.774 331.425 673.025C331.425 668.277 328.492 664.427 324.873 664.427C321.254 664.427 318.32 668.277 318.32 673.025C318.32 677.774 321.254 681.623 324.873 681.623Z" fill="#414245"/>
<path d="M349.407 601.093C350.301 599.947 351.117 598.742 351.85 597.486L334.617 594.64L353.252 594.782C355.036 590.883 356.009 586.662 356.112 582.374C356.215 578.086 355.444 573.822 353.848 569.843L328.869 582.844L351.917 565.857C349.757 562.115 346.852 558.86 343.382 556.293C339.913 553.726 335.953 551.902 331.749 550.936C327.545 549.97 323.188 549.882 318.949 550.677C314.71 551.472 310.679 553.134 307.109 555.559C303.539 557.983 300.505 561.119 298.197 564.77C295.888 568.421 294.355 572.509 293.692 576.78C293.03 581.051 293.252 585.413 294.345 589.594C295.438 593.776 297.378 597.686 300.045 601.083C298.657 602.85 297.457 604.759 296.466 606.777L318.832 618.421L294.989 610.459C293.315 615.418 292.901 620.717 293.783 625.876C294.666 631.036 296.818 635.894 300.045 640.01C296.404 644.652 294.14 650.227 293.511 656.098C292.882 661.969 293.914 667.899 296.489 673.21C299.064 678.521 303.078 682.999 308.072 686.131C313.066 689.264 318.839 690.925 324.731 690.925C330.623 690.925 336.396 689.264 341.39 686.131C346.384 682.999 350.398 678.521 352.973 673.21C355.548 667.899 356.58 661.969 355.951 656.098C355.322 650.227 353.058 644.652 349.417 640.01C353.766 634.463 356.131 627.612 356.131 620.556C356.131 613.501 353.766 606.65 349.417 601.102L349.407 601.093Z" fill="#4093E9"/>
<path opacity="0.1" d="M293.331 620.547C293.318 627.604 295.683 634.459 300.045 640.001C296.404 644.643 294.139 650.218 293.51 656.089C292.882 661.96 293.914 667.89 296.489 673.2C299.064 678.511 303.077 682.989 308.072 686.122C313.066 689.254 318.839 690.916 324.73 690.916C330.622 690.916 336.395 689.254 341.389 686.122C346.383 682.989 350.397 678.511 352.972 673.2C355.547 667.89 356.579 661.96 355.95 656.089C355.321 650.218 353.057 644.643 349.416 640.001C353.62 634.648 293.331 617.016 293.331 620.547Z" fill="black"/>
<path d="M202.561 663.27C250.642 663.27 289.619 655.758 289.619 646.492C289.619 637.225 250.642 629.714 202.561 629.714C154.48 629.714 115.503 637.225 115.503 646.492C115.503 655.758 154.48 663.27 202.561 663.27Z" fill="#4093E9"/>
<path d="M204.01 652.66C209.605 652.66 214.142 646.708 214.142 639.365C214.142 632.022 209.605 626.07 204.01 626.07C198.414 626.07 193.878 632.022 193.878 639.365C193.878 646.708 198.414 652.66 204.01 652.66Z" fill="#414245"/>
<path d="M204.01 636.404C209.605 636.404 214.142 630.452 214.142 623.109C214.142 615.766 209.605 609.814 204.01 609.814C198.414 609.814 193.878 615.766 193.878 623.109C193.878 630.452 198.414 636.404 204.01 636.404Z" fill="#414245"/>
<path d="M204.01 620.148C209.605 620.148 214.142 614.196 214.142 606.853C214.142 599.51 209.605 593.558 204.01 593.558C198.414 593.558 193.878 599.51 193.878 606.853C193.878 614.196 198.414 620.148 204.01 620.148Z" fill="#414245"/>
<path d="M204.01 603.892C209.605 603.892 214.142 597.94 214.142 590.597C214.142 583.254 209.605 577.302 204.01 577.302C198.414 577.302 193.878 583.254 193.878 590.597C193.878 597.94 198.414 603.892 204.01 603.892Z" fill="#414245"/>
<path d="M204.01 587.646C209.605 587.646 214.142 581.693 214.142 574.35C214.142 567.008 209.605 561.055 204.01 561.055C198.414 561.055 193.878 567.008 193.878 574.35C193.878 581.693 198.414 587.646 204.01 587.646Z" fill="#414245"/>
<path d="M204.01 571.389C209.605 571.389 214.142 565.437 214.142 558.094C214.142 550.752 209.605 544.799 204.01 544.799C198.414 544.799 193.878 550.752 193.878 558.094C193.878 565.437 198.414 571.389 204.01 571.389Z" fill="#414245"/>
<path d="M204.01 555.133C209.605 555.133 214.142 549.181 214.142 541.838C214.142 534.496 209.605 528.543 204.01 528.543C198.414 528.543 193.878 534.496 193.878 541.838C193.878 549.181 198.414 555.133 204.01 555.133Z" fill="#414245"/>
<path d="M166.068 430.609C164.681 428.84 163.415 426.979 162.28 425.038L188.926 420.663L160.121 420.882C157.357 414.857 155.847 408.33 155.685 401.701C155.522 395.071 156.709 388.478 159.174 382.324L197.827 402.414L162.205 376.147C165.548 370.373 170.042 365.351 175.405 361.392C180.769 357.434 186.888 354.623 193.381 353.136C199.875 351.649 206.605 351.516 213.151 352.747C219.698 353.978 225.923 356.545 231.437 360.29C236.951 364.034 241.638 368.876 245.206 374.513C248.773 380.151 251.145 386.464 252.174 393.059C253.203 399.655 252.867 406.392 251.187 412.852C249.506 419.312 246.518 425.356 242.407 430.609C244.566 433.357 246.42 436.332 247.937 439.481L213.366 457.512L250.229 445.109C252.815 452.774 253.454 460.964 252.089 468.939C250.723 476.913 247.396 484.421 242.407 490.783C248.041 497.961 251.546 506.583 252.521 515.663C253.496 524.744 251.901 533.916 247.92 542.13C243.939 550.345 237.731 557.272 230.008 562.118C222.284 566.963 213.355 569.533 204.242 569.533C195.13 569.533 186.201 566.963 178.477 562.118C170.753 557.272 164.546 550.345 160.564 542.13C156.583 533.916 154.989 524.744 155.964 515.663C156.939 506.583 160.443 497.961 166.077 490.783C159.348 482.204 155.69 471.608 155.69 460.696C155.69 449.783 159.348 439.187 166.077 430.609H166.068Z" fill="#4093E9"/>
<path opacity="0.1" d="M252.823 460.691C252.83 471.611 249.16 482.214 242.407 490.783C248.041 497.961 251.545 506.583 252.52 515.663C253.495 524.744 251.901 533.916 247.92 542.13C243.938 550.345 237.731 557.272 230.007 562.118C222.283 566.963 213.354 569.533 204.242 569.533C195.129 569.533 186.2 566.963 178.476 562.118C170.753 557.272 164.545 550.345 160.564 542.13C156.583 533.916 154.988 524.744 155.963 515.663C156.938 506.583 160.443 497.961 166.077 490.783C159.562 482.499 252.823 455.235 252.823 460.691Z" fill="black"/>
<path opacity="0.1" d="M835.168 773C886.941 773 928.912 764.078 928.912 753.071C928.912 742.065 886.941 733.143 835.168 733.143C783.395 733.143 741.425 742.065 741.425 753.071C741.425 764.078 783.395 773 835.168 773Z" fill="#4093E9"/>
<path d="M800.369 755.368C800.427 755.853 800.548 756.329 800.729 756.782C801.248 758.532 802.343 760.054 803.835 761.1C804.601 761.543 805.432 761.863 806.297 762.049C812.102 763.444 818.133 762.998 824.061 763.596C829.989 764.193 836.266 765.74 842.118 764.07C843.52 763.671 844.959 762.941 845.527 761.508C845.564 761.419 845.593 761.327 845.612 761.233C849.864 761.783 854.135 762.182 858.206 761.033C859.598 760.635 861.047 759.904 861.615 758.471C861.833 757.73 861.901 756.952 861.814 756.184C861.643 752.189 861.454 748.137 860.242 744.35C859.789 742.985 859.248 741.65 858.623 740.355C857.695 738.362 856.685 736.417 855.593 734.519L855.261 733.902C856.057 734.253 856.833 734.633 857.6 735.041C861.117 724.082 863.68 712.839 865.261 701.437C867.22 687.911 866.823 674.146 864.086 660.755C863.241 656.287 862.923 651.736 863.14 647.194C863.528 638.15 865.62 629.306 867.704 620.518C868.764 616.089 869.822 611.633 870.876 607.147C872.378 600.82 873.887 594.469 875.402 588.091C876.406 583.869 877.409 579.551 877.097 575.204C876.879 572.827 876.409 570.479 875.695 568.201C874.626 564.524 873.297 560.928 871.718 557.439C872.182 557.527 872.662 557.428 873.054 557.164C873.365 556.837 873.573 556.424 873.65 555.978L876.036 547.361C877.712 541.326 879.388 535.243 879.824 528.98C880.345 521.891 879.275 514.745 879.048 507.685C878.754 498.46 879.871 489.208 879.275 480.003C879.142 478.01 878.934 476.027 878.697 474.053C878.801 473.009 878.83 471.965 878.858 470.921C879.01 465.778 878.953 460.644 877.068 455.899C875.775 452.514 873.624 449.524 870.828 447.225C870.914 446.798 871.008 446.381 871.094 445.954L873.082 436.464C875.279 425.94 877.495 415.159 876.235 404.464C875.108 394.974 870.667 385.333 863.149 380.265L863.083 380.218L862.278 379.705L862.136 379.62C861.89 379.468 861.634 379.326 861.378 379.193L861.189 379.088C860.886 378.918 860.564 378.756 860.242 378.614C857.828 377.526 855.281 376.763 852.667 376.346L851.625 376.185C850.587 376.02 849.541 375.913 848.491 375.862H847.44C846.392 375.849 845.344 375.913 844.306 376.052C843.917 376.052 843.539 376.166 843.15 376.242L842.014 376.479C839.767 377.123 837.476 377.602 835.159 377.912C834.723 377.912 834.278 377.969 833.842 377.978C832.526 377.978 831.21 377.893 829.884 377.817C829.231 377.817 828.568 377.76 827.915 377.76C826.825 377.744 825.736 377.842 824.667 378.054C822.818 378.478 821.076 379.283 819.554 380.417C818.431 381.237 817.391 382.165 816.448 383.188C815.682 384.015 814.961 384.883 814.289 385.788C813.976 386.206 813.673 386.633 813.342 387.079L812.906 387.753C812.632 388.218 812.367 388.702 812.12 389.157C811.756 389.869 811.44 390.605 811.174 391.359C810.42 393.323 810.272 395.468 810.747 397.518C810.862 397.952 811.001 398.38 811.164 398.799C809.44 402.207 808.547 405.976 808.56 409.797C808.56 420.236 815.056 429.043 823.985 431.947C825.074 433.958 826.4 436.521 827.508 439.007C825.158 440.691 823.112 442.764 821.457 445.137C815.908 444.824 810.435 449.256 808.674 454.845C808.03 456.997 807.802 459.251 808.001 461.488C806.846 466.157 806.789 471.206 806.685 476.084C806.524 483.77 806.127 491.438 805.738 499.115C805.35 506.792 804.952 514.403 804.555 522.052C804.441 524.244 804.327 526.446 804.043 528.619C802.651 528.989 802.585 530.897 802.746 532.415C803.182 536.467 803.892 540.567 804.346 544.638C803.727 547.148 803.596 549.755 803.958 552.315L804.763 552.676C804.716 555.298 804.334 557.904 803.627 560.429C803.532 560.888 803.324 561.315 803.021 561.672C803.421 561.501 803.846 561.396 804.28 561.359C803.078 565.326 802.121 569.387 800.71 573.287C799.981 575.299 799.129 577.273 798.504 579.332C797.956 581.287 797.514 583.27 797.178 585.273C796.94 586.426 796.773 587.592 796.676 588.765C796.535 591.017 796.912 593.271 797.777 595.354C798.642 597.437 799.973 599.293 801.667 600.779C801.667 601.557 801.61 602.326 801.61 603.104C801.61 608.656 802.424 614.188 802.225 619.73C801.96 627.199 800.625 634.269 800.587 641.747C800.464 662.434 806.127 682.657 812.774 702.102C815.406 709.807 818.2 717.44 821.154 725.001C822.896 729.48 824.866 734.49 822.991 738.884C823.625 738.628 824.25 738.391 824.885 738.163C823.898 740.646 822.423 742.905 820.548 744.806C817.609 747.704 813.778 749.521 809.677 749.959C807.698 750.177 805.663 750.063 803.778 750.756C801.894 751.449 800.18 753.271 800.369 755.368ZM824.572 648.02C826.629 637.324 830.566 627.081 836.2 617.766L836.257 618.383C836.56 621.439 837.119 624.494 837.725 627.541C838.994 633.956 840.48 640.361 840.253 646.805C840.015 653.634 840.415 660.472 841.446 667.227C841.758 669.87 842.394 672.464 843.34 674.952C843.965 676.432 844.779 677.798 845.234 679.355C845.724 681.132 845.978 682.967 845.991 684.811C846.831 700.016 845.903 715.268 843.226 730.258C842.573 730.258 842.156 730.362 842.147 730.448C841.75 733.013 840.873 735.479 839.562 737.717L839.448 737.508C839.221 737.11 838.984 736.654 838.738 736.199L839.524 736.322C837.355 731.634 837.554 726.168 837.46 720.948C837.271 713.866 836.553 706.808 835.31 699.834C833.45 689.278 830.219 679.011 825.699 669.296C824.769 667.251 824.132 665.085 823.805 662.861C823.205 657.907 823.464 652.885 824.572 648.02ZM863.632 535.091C863.276 534.608 862.894 534.146 862.486 533.706C861.539 532.69 860.403 531.513 860.687 530.128C860.831 529.584 861.104 529.082 861.482 528.666C862.243 527.712 863.086 526.826 864.001 526.019L864.304 525.753C864.077 528.847 863.853 531.95 863.632 535.063V535.091Z" fill="url(#paint0_linear)"/>
<path d="M877.438 466.214L878.48 474.271C878.83 477.004 879.181 479.728 879.37 482.47C880.004 491.599 878.83 500.766 879.133 509.915C879.38 516.956 880.497 523.988 879.957 531.02C879.474 537.226 877.713 543.262 875.952 549.24L873.452 557.781C873.366 558.227 873.149 558.638 872.827 558.958C872.345 559.244 871.773 559.335 871.227 559.214L860.129 558.265C860.839 555.001 861.625 551.622 862.023 548.272C862.326 545.653 862.506 543.015 862.695 540.377C863.282 532.159 863.954 523.941 864.589 515.703L865.772 501.279C866.274 495.016 866.795 488.724 868.367 482.641C869.935 476.476 873.059 470.82 877.438 466.214Z" fill="#4093E9"/>
<path opacity="0.1" d="M877.438 466.214L878.48 474.271C878.83 477.004 879.181 479.728 879.37 482.47C880.004 491.599 878.83 500.766 879.133 509.915C879.38 516.956 880.497 523.988 879.957 531.02C879.474 537.226 877.713 543.262 875.952 549.24L873.452 557.781C873.366 558.227 873.149 558.638 872.827 558.958C872.345 559.244 871.773 559.335 871.227 559.214L860.129 558.265C860.839 555.001 861.625 551.622 862.023 548.272C862.326 545.653 862.506 543.015 862.695 540.377C863.282 532.159 863.954 523.941 864.589 515.703L865.772 501.279C866.274 495.016 866.795 488.724 868.367 482.641C869.935 476.476 873.059 470.82 877.438 466.214Z" fill="black"/>
<path d="M857.667 740.516C858.318 741.801 858.888 743.126 859.371 744.483C860.64 748.232 860.829 752.255 861.019 756.213C861.102 756.975 861.032 757.746 860.81 758.481C860.261 759.904 858.689 760.625 857.222 761.014C851.076 762.675 844.599 761.119 838.284 760.549C831.968 759.98 825.728 760.398 819.63 759.022C818.729 758.847 817.859 758.544 817.045 758.12C815.501 757.113 814.348 755.605 813.778 753.85C813.594 753.4 813.47 752.927 813.409 752.445C813.21 750.357 815.018 748.554 816.988 747.871C818.957 747.188 821.107 747.292 823.181 747.083C827.452 746.645 831.459 744.808 834.582 741.855C837.704 738.902 839.768 734.999 840.452 730.752C840.528 730.296 850.717 730.571 851.815 731.16C853.065 731.852 853.822 733.57 854.533 734.737C855.65 736.616 856.695 738.543 857.667 740.516Z" fill="#A26565"/>
<path opacity="0.1" d="M857.667 740.516C858.318 741.801 858.888 743.126 859.371 744.483C860.64 748.232 860.829 752.255 861.019 756.213C861.102 756.975 861.032 757.746 860.81 758.481C860.261 759.904 858.689 760.625 857.222 761.014C851.076 762.675 844.599 761.119 838.284 760.549C831.968 759.98 825.728 760.398 819.63 759.022C818.729 758.847 817.859 758.544 817.045 758.12C815.501 757.113 814.348 755.605 813.778 753.85C813.594 753.4 813.47 752.927 813.409 752.445C813.21 750.357 815.018 748.554 816.988 747.871C818.957 747.188 821.107 747.292 823.181 747.083C827.452 746.645 831.459 744.808 834.582 741.855C837.704 738.902 839.768 734.999 840.452 730.752C840.528 730.296 850.717 730.571 851.815 731.16C853.065 731.852 853.822 733.57 854.533 734.737C855.65 736.616 856.695 738.543 857.667 740.516Z" fill="black"/>
<path d="M840.765 743.534C841.42 744.814 841.99 746.136 842.469 747.492C843.747 751.287 843.937 755.264 844.117 759.221C844.205 759.983 844.134 760.756 843.908 761.489C843.369 762.912 841.797 763.634 840.329 764.032C834.184 765.683 827.697 764.127 821.391 763.558C815.085 762.988 808.826 763.406 802.737 762.03C801.832 761.847 800.961 761.527 800.152 761.081C798.606 760.076 797.452 758.568 796.885 756.81C796.702 756.36 796.577 755.888 796.516 755.406C796.317 753.328 798.126 751.515 800.095 750.832C802.065 750.149 804.214 750.263 806.288 750.044C810.557 749.605 814.563 747.768 817.685 744.818C820.807 741.867 822.872 737.967 823.559 733.722C823.635 733.266 833.824 733.532 834.922 734.12C836.182 734.813 836.939 736.531 837.649 737.698C838.729 739.624 839.789 741.56 840.765 743.534Z" fill="#A26565"/>
<path d="M796.705 642.724C796.573 663.232 802.519 683.274 809.498 702.51C812.263 710.14 815.195 717.703 818.295 725.2C820.132 729.641 822.205 734.576 820.236 738.96C825.917 736.796 831.693 735.525 837.668 736.521C835.396 731.871 835.614 726.462 835.509 721.338C835.317 714.314 834.569 707.318 833.275 700.413C831.269 689.903 827.831 679.72 823.058 670.15C822.093 668.132 821.426 665.983 821.079 663.773C820.302 658.895 820.908 653.884 821.921 649.054C824.101 638.385 828.243 628.216 834.136 619.066L834.193 619.674C834.547 622.725 835.059 625.757 835.727 628.755C837.062 635.104 838.625 641.462 838.388 647.849C838.141 654.621 838.56 661.401 839.638 668.09C839.985 670.717 840.669 673.288 841.674 675.739C842.327 677.21 843.179 678.586 843.691 680.114C844.202 681.872 844.47 683.692 844.486 685.523C845.244 700.963 844.486 716.64 841.342 731.776C846.617 731.359 851.891 732.887 856.606 735.259C860.293 724.424 862.987 713.275 864.655 701.95C866.71 688.557 866.292 674.899 863.424 661.656C862.53 657.24 862.196 652.728 862.43 648.228C862.837 639.26 865.034 630.492 867.221 621.78L870.554 608.495C872.132 602.168 873.711 595.87 875.289 589.6C876.34 585.415 877.4 581.136 877.069 576.827C876.838 574.463 876.342 572.133 875.592 569.881C873.228 562.219 869.691 554.971 865.11 548.396C846.863 549.421 828.398 547.713 810.189 546.308C809.306 546.133 808.39 546.289 807.614 546.745C806.993 547.376 806.623 548.213 806.572 549.098L799.726 588.006C798.633 593.415 798 598.907 797.832 604.423C797.832 609.928 798.684 615.413 798.476 620.907C798.145 628.309 796.743 635.313 796.705 642.724Z" fill="#2F2825"/>
<path opacity="0.1" d="M834.222 619.674C834.575 622.725 835.087 625.757 835.756 628.755C839.723 621.875 844.003 615.166 847.658 608.115C848.605 606.302 849.495 604.461 850.395 602.62L853.093 597.116C853.595 596.082 854.097 595.048 854.552 593.994C855.292 592.481 855.86 590.889 856.247 589.249C854.921 589.003 851.645 592.59 850.66 593.529C848.651 595.523 846.754 597.626 844.978 599.83C842.789 602.277 840.776 604.878 838.956 607.612C836.698 611.33 835.096 615.41 834.222 619.674Z" fill="black"/>
<path d="M818.977 430.912C818.977 430.912 829.108 447.092 827.234 450.48C825.359 453.868 859.144 447.472 859.144 447.472C859.144 447.472 840.746 431.292 842.63 424.516C844.514 417.74 818.977 430.912 818.977 430.912Z" fill="#EE8E9E"/>
<path d="M827.981 435.809C840.631 435.809 850.886 425.531 850.886 412.853C850.886 400.175 840.631 389.897 827.981 389.897C815.33 389.897 805.075 400.175 805.075 412.853C805.075 425.531 815.33 435.809 827.981 435.809Z" fill="#EE8E9E"/>
<path d="M818.635 447.88C821.084 444.459 824.412 441.766 828.265 440.089C830.483 439.293 832.778 438.727 835.111 438.4L844.249 436.786C846.484 436.388 848.879 436.018 850.962 436.938C852.016 437.48 852.975 438.188 853.803 439.035C856.975 441.987 860.053 445.223 864.039 446.931C865.128 447.396 866.264 447.738 867.353 448.203C871.813 450.101 875.146 454.143 877.031 458.641C879.019 463.329 879.076 468.425 878.924 473.521C878.927 475.281 878.752 477.036 878.404 478.76C877.948 480.402 877.369 482.007 876.671 483.562C875.419 486.886 874.369 490.283 873.527 493.735C871.16 502.813 869.19 511.987 867.618 521.255C867.485 522.583 867.096 523.872 866.473 525.051C865.59 526.231 864.522 527.26 863.31 528.097C862.349 528.888 861.464 529.768 860.668 530.726C860.273 531.13 859.983 531.625 859.825 532.168C859.532 533.535 860.772 534.711 861.719 535.708C863.757 537.792 865.23 540.362 865.999 543.176C866.474 543.754 866.717 544.488 866.681 545.236C866.484 545.756 866.409 546.314 866.463 546.868C866.65 547.372 866.944 547.828 867.325 548.206C867.762 548.777 868.072 549.434 868.235 550.134C868.399 550.835 868.411 551.562 868.272 552.268C861.174 555.358 853.578 557.139 845.849 557.525C843.955 557.62 842.061 557.62 840.168 557.848C838.823 558.018 837.497 558.294 836.153 558.455C834.202 558.638 832.24 558.689 830.282 558.607C820.084 558.398 809.592 558.142 800.227 554.09C799.347 549.278 801.25 544.372 802.443 539.627C804.337 532.035 804.81 524.263 806.231 516.605C807.178 511.376 808.598 506.223 809.403 500.956C810.208 495.689 810.397 490.233 808.948 485.108C807.67 480.572 807.282 475.941 805.956 471.415C804.63 466.888 803.702 461.982 805.199 457.503C807.054 451.98 812.802 447.567 818.635 447.88Z" fill="#4093E9"/>
<path d="M807.386 400.678C806.269 396.607 808.466 392.365 811.079 389.053C813.92 385.494 817.537 382.287 821.978 381.394C825.586 380.664 829.326 381.546 833 381.252C836.248 380.996 839.372 379.819 842.601 379.354C845.531 379.038 848.491 379.15 851.389 379.686C854.138 380.096 856.826 380.848 859.39 381.926C869.143 386.263 874.853 396.948 876.179 407.548C877.504 418.148 875.232 428.834 872.874 439.263L870.781 448.696C868.603 458.518 866.426 468.378 865.848 478.418C865.27 488.458 866.35 498.764 870.469 507.931C857.148 500.76 846.827 489.049 841.37 474.916C839.893 471.035 838.795 467.002 837.147 463.187C835.736 459.903 833.928 456.791 832.678 453.441C831.265 449.66 830.587 445.643 830.68 441.607C830.756 438.57 831.258 435.553 831.172 432.516C831.087 429.479 830.311 426.319 828.218 424.118C826.324 422.172 823.72 421.271 821.325 420.008C817.553 418.067 814.258 415.312 811.676 411.942C810.17 409.968 810.085 409.095 809.706 406.856C809.327 404.616 807.973 402.832 807.386 400.678Z" fill="#2F2825"/>
<path d="M807.357 573.117C807.121 575.48 807.547 577.862 807.035 580.206C806.647 581.952 805.748 583.527 805.217 585.235C804.693 587.207 804.422 589.239 804.412 591.28C804.337 592.988 804.469 595.076 805.984 595.873C806.647 596.224 807.442 596.224 808.134 596.528C808.825 596.832 809.412 597.657 809.014 598.303C808.617 598.948 807.935 598.843 807.31 598.967C806.685 599.09 806.013 599.736 806.363 600.257C806.506 600.428 806.697 600.551 806.912 600.609C807.544 600.804 808.144 601.092 808.692 601.463C808.96 601.658 809.17 601.923 809.298 602.229C809.427 602.535 809.469 602.871 809.421 603.199C809.383 603.356 809.31 603.503 809.208 603.628C809.105 603.753 808.975 603.852 808.829 603.92C808.682 603.988 808.522 604.021 808.361 604.018C808.199 604.015 808.041 603.975 807.897 603.902C808.175 604.497 808.326 605.143 808.342 605.8C805.918 606.843 803.2 605.477 800.928 604.158C799.945 603.608 798.997 603 798.087 602.336C796.249 600.921 794.784 599.077 793.82 596.965C792.856 594.853 792.422 592.536 792.557 590.217C792.665 589.053 792.846 587.896 793.097 586.754C793.447 584.764 793.911 582.796 794.489 580.86C795.142 578.82 796.032 576.875 796.799 574.872C798.428 570.611 799.479 566.151 800.956 561.833C801.055 561.386 801.306 560.986 801.666 560.704C801.992 560.543 802.356 560.474 802.717 560.505C804.375 560.418 806.037 560.571 807.651 560.96C808.598 561.245 810.217 561.909 810.662 562.858C811.107 563.807 810.397 564.604 809.971 565.392C808.61 567.773 807.722 570.397 807.357 573.117Z" fill="#EE8E9E"/>
<path opacity="0.1" d="M808.901 457.806C808.415 458.305 808.007 458.875 807.689 459.495C804.432 465.427 804.394 472.515 804.243 479.282C804.072 486.873 803.656 494.465 803.239 502.105L801.999 524.88C801.875 527.053 801.762 529.226 801.449 531.381C799.991 531.751 799.934 533.649 800.095 535.176C801.146 544.457 803.75 554.014 801.042 562.944C800.938 563.402 800.72 563.826 800.408 564.177C801.783 563.745 803.254 563.726 804.64 564.12C805.994 564.405 807.301 564.908 808.665 565.221C810.388 565.61 812.339 565.781 813.513 567.119C814.844 563.108 815.903 559.012 816.685 554.858C817.329 551.062 817.509 547.153 819.043 543.641C819.658 542.227 820.492 540.918 821.249 539.561C825.217 532.462 827.167 524.444 829.07 516.529C829.925 512.777 830.13 508.906 829.676 505.084C829.401 503.341 829.243 501.582 829.203 499.818C829.318 497.956 829.562 496.104 829.932 494.276C830.737 488.91 830.358 483.432 828.824 478.228C827.404 473.398 826.154 468.311 823.143 464.25C820.132 460.188 813.93 457.873 808.901 457.806Z" fill="black"/>
<path d="M807.774 457.047C807.288 457.55 806.879 458.122 806.562 458.746C803.305 464.667 803.267 471.766 803.115 478.532C802.945 486.124 802.528 493.716 802.112 501.307L800.871 524.083C800.748 526.256 800.634 528.429 800.322 530.583C798.864 530.953 798.807 532.851 798.977 534.379C800.019 543.66 802.623 553.207 799.924 562.146C799.82 562.605 799.602 563.029 799.29 563.38C800.665 562.948 802.136 562.928 803.523 563.323C804.877 563.608 806.183 564.111 807.547 564.414C809.27 564.813 811.221 564.974 812.395 566.312C813.729 562.299 814.789 558.2 815.567 554.042C816.211 550.246 816.391 546.346 817.925 542.835C818.591 541.438 819.327 540.076 820.131 538.754C824.108 531.656 826.049 523.627 827.953 515.713C828.807 511.961 829.012 508.09 828.559 504.268C827.845 500.691 827.933 496.999 828.814 493.459C829.619 488.097 829.241 482.622 827.706 477.422C826.286 472.591 825.036 467.505 822.025 463.443C819.014 459.382 812.802 457.123 807.774 457.047Z" fill="#4093E9"/>
<g opacity="0.1">
<path opacity="0.1" d="M811.079 389.053C813.92 385.494 817.537 382.287 821.978 381.394C825.586 380.664 829.326 381.546 833 381.252C836.248 380.996 839.372 379.819 842.601 379.354C845.531 379.038 848.491 379.15 851.389 379.686C854.138 380.096 856.826 380.848 859.39 381.926C860.775 382.548 862.097 383.301 863.339 384.175C861.057 383.287 858.685 382.65 856.265 382.277C853.371 381.74 850.414 381.628 847.487 381.945C844.249 382.362 841.134 383.53 837.876 383.786C834.212 384.08 830.472 383.207 826.854 383.928C822.413 384.82 818.777 388.037 815.965 391.596C813.342 394.898 811.155 399.14 812.263 403.221C812.85 405.366 814.213 407.245 814.583 409.456C814.952 411.667 815.047 412.568 816.562 414.542C818.504 417.074 820.853 419.264 823.512 421.024C822.783 420.682 822.035 420.341 821.325 419.97C817.553 418.029 814.258 415.274 811.676 411.904C810.17 409.93 810.085 409.057 809.706 406.818C809.327 404.578 807.973 402.737 807.386 400.583C806.269 396.607 808.466 392.365 811.079 389.053Z" fill="black"/>
<path opacity="0.1" d="M828.218 424.174C827.826 423.767 827.398 423.395 826.939 423.064C829.127 424.127 831.428 425.057 833.104 426.86C835.196 429.052 835.945 432.222 836.058 435.259C836.172 438.295 835.632 441.313 835.566 444.34C835.473 448.38 836.151 452.399 837.564 456.183C838.814 459.533 840.622 462.637 842.033 465.93C843.671 469.725 844.77 473.768 846.247 477.649C850.981 489.903 859.386 500.386 870.308 507.656C870.364 507.779 870.412 507.912 870.469 508.036C857.148 500.864 846.827 489.154 841.37 475.021C839.893 471.139 838.795 467.106 837.147 463.291C835.736 460.008 833.928 456.895 832.678 453.545C831.265 449.765 830.587 445.748 830.68 441.712C830.755 438.675 831.257 435.657 831.172 432.62C831.087 429.584 830.31 426.357 828.218 424.174Z" fill="black"/>
</g>
<defs>
<linearGradient id="paint0_linear" x1="838.312" y1="764.772" x2="838.312" y2="375.786" gradientUnits="userSpaceOnUse">
<stop stop-color="#808080" stop-opacity="0.25"/>
<stop offset="0.54" stop-color="#808080" stop-opacity="0.12"/>
<stop offset="1" stop-color="#808080" stop-opacity="0.1"/>
</linearGradient>
</defs>
</svg>
