<svg width="34" height="27" viewBox="0 0 34 27" fill="none" xmlns="http://www.w3.org/2000/svg">
<path d="M30.5052 6.65106C30.5267 6.94294 30.5267 7.23489 30.5267 7.52677C30.5267 16.4296 23.5153 26.6877 10.7005 26.6877C6.75255 26.6877 3.08505 25.5826 0 23.6645C0.560936 23.727 1.10022 23.7479 1.68274 23.7479C4.94031 23.7479 7.9391 22.6846 10.3338 20.8707C7.27032 20.8081 4.70304 18.8691 3.81851 16.2003C4.25002 16.2628 4.68146 16.3045 5.13455 16.3045C5.76017 16.3045 6.38585 16.2211 6.9683 16.0752C3.77541 15.4496 1.38066 12.7392 1.38066 9.46579V9.38242C2.30829 9.88282 3.38706 10.1956 4.53038 10.2372C2.65347 9.0279 1.42382 6.9638 1.42382 4.62861C1.42382 3.37764 1.76894 2.2309 2.37304 1.23011C5.80326 5.31666 10.9594 7.98539 16.7411 8.27734C16.6332 7.77694 16.5685 7.25575 16.5685 6.73449C16.5685 3.02318 19.6751 0 23.5368 0C25.5431 0 27.3553 0.81314 28.6282 2.12668C30.203 1.83479 31.7132 1.27182 33.0508 0.500398C32.5329 2.06417 31.4327 3.37771 29.9873 4.21164C31.3896 4.06576 32.7488 3.69038 34 3.16919C33.0509 4.50352 31.8643 5.69191 30.5052 6.65106V6.65106Z" fill="#282828"/>
</svg>
