<svg width="548" height="306" viewBox="0 0 548 306" fill="none" xmlns="http://www.w3.org/2000/svg">
<g clip-path="url(#clip0)">
<path opacity="0.1" d="M548 199.986C548.03 215.884 543.702 231.485 535.488 245.083C535.488 261.714 527.757 276.788 515.216 287.774C512.077 290.52 508.697 292.977 505.118 295.115C504.975 295.206 504.826 295.292 504.678 295.379C504.409 295.537 504.141 295.696 503.868 295.859L503.614 296.008C502.469 296.657 501.301 297.281 500.108 297.867C489.116 303.287 477.023 306.082 464.775 306.034H104.029C101.155 306.034 98.3065 305.918 95.4834 305.688C85.4511 304.895 75.5929 302.606 66.2344 298.895C64.4078 298.171 62.6162 297.393 60.8598 296.561C60.0231 296.167 59.1944 295.762 58.3737 295.345C57.8611 295.086 57.3486 294.817 56.8408 294.548C53.7599 292.905 50.7755 291.086 47.9023 289.1C45.2764 287.298 42.7499 285.355 40.3338 283.278C24.0327 269.251 13.9493 249.839 13.9493 228.419C4.81223 214.31 -0.0343917 197.839 0.000183709 181.016C0.000183709 133.391 37.9578 94.7831 84.7869 94.7831C86.224 94.7831 87.661 94.8264 89.0981 94.9032C89.3041 94.9032 89.5053 94.9032 89.7112 94.932C97.6055 81.4383 108.158 69.0397 120.848 58.1256C155.452 28.3903 206.027 9.64597 262.365 9.64597C309.702 9.64597 352.972 22.8803 386.115 44.7471C398.674 37.6274 412.86 33.8951 427.287 33.9146C474.106 33.9146 512.074 72.5225 512.074 120.147C512.067 123.16 511.907 126.171 511.595 129.169C522.881 137.18 532.08 147.796 538.416 160.122C544.752 172.447 548.039 186.119 548 199.986Z" fill="#212226"/>
<path opacity="0.1" d="M436.24 131.609V126.454C440.26 124.817 443.588 121.83 445.653 118.003C447.719 114.177 448.393 109.749 447.562 105.479C446.73 101.208 444.444 97.3601 441.095 94.5938C437.746 91.8275 433.542 90.3149 429.203 90.3149C424.864 90.3149 420.66 91.8275 417.311 94.5938C413.962 97.3601 411.675 101.208 410.844 105.479C410.012 109.749 410.687 114.177 412.753 118.003C414.818 121.83 418.146 124.817 422.166 126.454V131.609C417.479 132.915 413.245 135.497 409.932 139.069C406.423 133.79 401.139 129.95 395.044 128.251V123.092C399.064 121.455 402.392 118.467 404.457 114.641C406.523 110.814 407.198 106.387 406.366 102.116C405.535 97.8454 403.249 93.9975 399.899 91.2312C396.55 88.4649 392.346 86.9522 388.007 86.9522C383.668 86.9522 379.464 88.4649 376.115 91.2312C372.766 93.9975 370.48 97.8454 369.648 102.116C368.817 106.387 369.491 110.814 371.557 114.641C373.622 118.467 376.95 121.455 380.97 123.092V128.246C376.803 129.406 372.985 131.577 369.852 134.568C366.357 129.863 361.401 126.456 355.764 124.884V119.729C359.784 118.092 363.112 115.105 365.178 111.278C367.243 107.452 367.918 103.024 367.086 98.7533C366.255 94.4827 363.969 90.6348 360.62 87.8685C357.27 85.1022 353.066 83.5896 348.727 83.5896C344.388 83.5896 340.184 85.1022 336.835 87.8685C333.486 90.6348 331.2 94.4827 330.368 98.7533C329.537 103.024 330.212 107.452 332.277 111.278C334.343 115.105 337.67 118.092 341.691 119.729V124.884C336.896 126.224 332.577 128.899 329.236 132.598C327.747 128.769 325.388 125.34 322.347 122.583C319.307 119.826 315.667 117.818 311.718 116.717V111.563C315.738 109.926 319.066 106.938 321.132 103.112C323.197 99.2851 323.872 94.8575 323.04 90.5869C322.209 86.3163 319.923 82.4684 316.574 79.7021C313.224 76.9358 309.02 75.4232 304.681 75.4232C300.342 75.4232 296.138 76.9358 292.789 79.7021C289.44 82.4684 287.154 86.3163 286.322 90.5869C285.491 94.8575 286.166 99.2851 288.231 103.112C290.297 106.938 293.624 109.926 297.645 111.563V116.717C292.511 118.15 287.932 121.111 284.511 125.208C281.091 129.305 278.989 134.345 278.484 139.665C276.066 137.982 273.383 136.72 270.546 135.932V130.778C274.567 129.141 277.894 126.153 279.96 122.327C282.025 118.5 282.7 114.073 281.869 109.802C281.037 105.531 278.751 101.684 275.402 98.9172C272.053 96.1509 267.849 94.6383 263.51 94.6383C259.171 94.6383 254.967 96.1509 251.617 98.9172C248.268 101.684 245.982 105.531 245.151 109.802C244.319 114.073 244.994 118.5 247.059 122.327C249.125 126.153 252.452 129.141 256.473 130.778V135.932C252.895 136.931 249.567 138.676 246.706 141.051C243.845 143.427 241.516 146.38 239.87 149.719C237.65 148.289 235.228 147.204 232.685 146.5V141.346C236.705 139.709 240.033 136.722 242.098 132.895C244.164 129.068 244.838 124.641 244.007 120.37C243.175 116.1 240.889 112.252 237.54 109.486C234.191 106.719 229.987 105.207 225.648 105.207C221.309 105.207 217.105 106.719 213.756 109.486C210.406 112.252 208.12 116.1 207.289 120.37C206.457 124.641 207.132 129.068 209.197 132.895C211.263 136.722 214.591 139.709 218.611 141.346V146.5C216.211 147.165 213.919 148.171 211.804 149.488C210.147 146.204 207.825 143.303 204.987 140.969C202.149 138.635 198.857 136.919 195.321 135.932V130.778C199.341 129.141 202.669 126.153 204.734 122.327C206.8 118.5 207.475 114.073 206.643 109.802C205.812 105.531 203.526 101.684 200.176 98.9172C196.827 96.1509 192.623 94.6383 188.284 94.6383C183.945 94.6383 179.741 96.1509 176.392 98.9172C173.043 101.684 170.757 105.531 169.925 109.802C169.094 114.073 169.768 118.5 171.834 122.327C173.899 126.153 177.227 129.141 181.247 130.778V135.932C177.442 136.994 173.922 138.898 170.948 141.506C167.975 144.113 165.622 147.356 164.065 150.997C161.386 148.935 158.337 147.408 155.083 146.5V141.346C159.103 139.709 162.431 136.722 164.497 132.895C166.562 129.068 167.237 124.641 166.405 120.37C165.574 116.1 163.288 112.252 159.939 109.486C156.589 106.719 152.385 105.207 148.046 105.207C143.707 105.207 139.503 106.719 136.154 109.486C132.805 112.252 130.519 116.1 129.687 120.37C128.856 124.641 129.531 129.068 131.596 132.895C133.662 136.722 136.989 139.709 141.01 141.346V146.5C135.458 148.044 130.564 151.369 127.076 155.967C123.589 160.565 121.7 166.183 121.7 171.96V291.094H174.364V280.526H199.273V291.094H251.965V280.526H289.808V261.311H322.381V269.477H361.661V272.84H402.857V276.202H455.549V157.069C455.549 151.292 453.66 145.674 450.173 141.075C446.686 136.477 441.791 133.152 436.24 131.609Z" fill="#212226"/>
<path d="M235.094 81.1837H278.891C289.603 81.183 300.21 83.2983 310.107 87.4088C320.004 91.5193 328.996 97.5444 336.571 105.14C344.146 112.736 350.155 121.754 354.254 131.678C358.353 141.603 360.463 152.24 360.463 162.982V273.815H153.526V162.982C153.526 141.288 162.12 120.482 177.417 105.142C192.714 89.8017 213.461 81.1837 235.094 81.1837Z" fill="#1F2431"/>
<path opacity="0.2" d="M239.884 85.6416H274.101C284.813 85.6409 295.42 87.7563 305.317 91.8667C315.213 95.9772 324.206 102.002 331.781 109.598C339.356 117.194 345.364 126.211 349.464 136.136C353.563 146.061 355.673 156.698 355.673 167.44V269.352H158.316V167.44C158.316 145.746 166.91 124.94 182.207 109.6C197.504 94.2596 218.251 85.6416 239.884 85.6416Z" fill="black"/>
<path d="M500.098 289.47V297.858C489.107 303.278 477.014 306.073 464.766 306.024H104.029C101.155 306.024 98.3065 305.909 95.4835 305.678C85.4512 304.886 75.5929 302.596 66.2345 298.886C64.4078 298.162 62.6163 297.384 60.8599 296.551C60.0232 296.157 59.1945 295.752 58.3737 295.336C57.8612 295.076 57.3486 294.807 56.8409 294.538C53.7602 292.898 50.7758 291.083 47.9023 289.1V266.321C47.9023 262.639 49.3609 259.108 51.9571 256.504C54.5533 253.901 58.0745 252.438 61.746 252.438H459.923C463.272 252.444 466.506 253.668 469.024 255.882L495.37 279.036C496.854 280.337 498.044 281.941 498.859 283.741C499.675 285.54 500.097 287.494 500.098 289.47Z" fill="#1F2431"/>
<path d="M231.209 108.474C220.763 109.166 210.357 110.287 199.991 111.837C197.045 112.278 194.056 112.768 191.369 114.075C189.281 115.172 187.356 116.556 185.65 118.187C177.955 125.1 171.759 133.526 167.447 142.941C164.779 148.778 162.863 154.95 160.348 160.835C151.395 181.851 135.156 199.039 125.705 219.835C123.659 224.336 121.935 229.034 121.25 233.929C120.541 238.992 121.346 244.901 125.494 247.86C127.41 249.219 129.738 249.782 132.018 250.262C160.722 256.636 189.76 261.392 218.994 264.505C215.828 261.44 214.769 256.689 215.186 252.299C215.603 247.908 217.322 243.758 219.018 239.689C202.473 236.028 185.969 232.185 169.507 228.16C167.049 227.559 164.098 226.43 163.797 223.913C163.643 222.631 164.276 221.396 164.898 220.267C171.919 207.518 180.338 195.594 189.999 184.719C189.999 198.199 189.333 213.422 189.333 226.906H344.584C342.717 219.212 341.619 211.351 341.307 203.44C340.584 177.615 349.254 151.986 347.003 126.214C346.792 123.836 346.466 121.386 345.226 119.35C343.085 115.833 338.812 114.378 334.884 113.177C319.823 108.584 304.447 103.939 288.706 104.299C284.026 104.41 279.365 104.958 274.714 105.51C260.54 107.186 245.451 107.528 231.209 108.474Z" fill="#212226"/>
<path d="M158.498 263.4L169.803 299.683C169.876 299.913 170.019 300.114 170.213 300.256C170.407 300.399 170.641 300.476 170.881 300.476H219.391L207.895 258.203L159.485 261.935C159.316 261.949 159.153 262.001 159.007 262.087C158.861 262.172 158.736 262.29 158.641 262.43C158.547 262.571 158.485 262.731 158.46 262.899C158.435 263.067 158.448 263.238 158.498 263.4Z" fill="black"/>
<path d="M241.426 124.077C239.319 125.292 236.861 125.729 234.466 126.147L219.008 128.837C216 129.361 212.834 129.956 210.515 131.95C205.773 136.019 206.798 143.508 208.235 149.599L211.109 161.82C213.274 171.005 215.487 180.3 219.928 188.62C227.683 203.142 241.91 213.6 257.555 218.639C263.145 220.44 269.052 221.612 274.886 220.969C286.315 219.71 296.092 211.539 302.118 201.715C308.144 191.891 311.014 180.497 313.644 169.266C316.168 158.515 318.568 147.61 318.405 136.562C318.357 133.122 318.012 129.529 316.182 126.613C312.173 120.209 303.086 119.729 295.637 120.911C294.478 121.098 293.276 121.3 292.159 120.949C288.806 119.902 288.73 115.286 287.293 112.082C284.577 106.038 276.519 104.967 269.933 105.515C263.346 106.062 253.091 106.769 247.352 110.511C241.834 114.089 247.898 120.334 241.426 124.077Z" fill="#FBBEBE"/>
<path opacity="0.1" d="M241.426 124.077C239.319 125.292 236.861 125.729 234.466 126.147L219.008 128.837C216 129.361 212.834 129.956 210.515 131.95C205.773 136.019 206.798 143.508 208.235 149.599L211.109 161.82C213.274 171.005 215.487 180.3 219.928 188.62C227.683 203.142 241.91 213.6 257.555 218.639C263.145 220.44 269.052 221.612 274.886 220.969C286.315 219.71 296.092 211.539 302.118 201.715C308.144 191.891 311.014 180.497 313.644 169.266C316.168 158.515 318.568 147.61 318.405 136.562C318.357 133.122 318.012 129.529 316.182 126.613C312.173 120.209 303.086 119.729 295.637 120.911C294.478 121.098 293.276 121.3 292.159 120.949C288.806 119.902 288.73 115.286 287.293 112.082C284.577 106.038 276.519 104.967 269.933 105.515C263.346 106.062 253.091 106.769 247.352 110.511C241.834 114.089 247.898 120.334 241.426 124.077Z" fill="black"/>
<path d="M228.632 137.844C230.969 142.763 232.723 147.98 235.549 152.635C237.796 156.334 240.674 159.596 243.539 162.838C250.959 171.254 258.475 179.738 267.658 186.146C271.46 166.555 280.647 148.419 294.181 133.785C298.138 129.524 303.091 125.325 308.897 125.484C312.499 125.585 315.823 127.377 318.822 129.37C322.175 131.594 325.346 134.174 327.756 137.378C331.564 142.48 333.207 148.941 333.504 155.306C333.801 161.671 332.814 168.021 331.837 174.314L326.807 206.841C326.515 208.724 326.108 210.804 324.575 211.933C323.704 212.486 322.723 212.84 321.701 212.97C303.417 216.539 284.572 214.224 265.943 214.041C245.345 213.845 224.177 216.198 204.666 209.627C203.646 209.281 202.587 208.882 201.898 208.061C201.445 207.441 201.119 206.737 200.94 205.99C196.394 191.233 200.039 175.376 202.736 160.172C204.871 148.123 206.392 135.973 207.291 123.769C207.373 122.669 219.425 125.1 220.771 125.878C224.436 128.054 226.869 134.136 228.632 137.844Z" fill="#212226"/>
<g opacity="0.2">
<path opacity="0.2" d="M79.9342 257.861C79.9342 258.082 79.9102 258.299 79.8863 258.51C78.0596 257.786 76.2681 257.008 74.5117 256.175C73.5734 256.052 72.7007 255.625 72.0255 254.96C71.513 254.701 71.0004 254.432 70.4927 254.163C70.6077 253.921 70.7372 253.687 70.8807 253.461C71.8675 251.895 73.3668 250.915 75.0194 250.968C76.672 251.021 78.1043 252.092 78.9905 253.711C79.6683 254.985 79.9941 256.418 79.9342 257.861Z" fill="white"/>
<path opacity="0.2" d="M80.1929 249.637C80.1603 251.078 79.7452 252.484 78.9906 253.711C78.0038 255.272 76.5045 256.252 74.8518 256.199L74.5117 256.175C73.5734 256.052 72.7008 255.625 72.0256 254.96C71.5678 254.524 71.1814 254.018 70.8808 253.461C70.2197 252.182 69.8964 250.755 69.9417 249.315C69.987 247.876 70.3993 246.472 71.1394 245.237C72.1262 243.671 73.6255 242.691 75.2782 242.744C76.9308 242.797 78.3631 243.868 79.2493 245.487C79.927 246.761 80.2528 248.194 80.1929 249.637Z" fill="white"/>
<path opacity="0.2" d="M80.4516 241.426C80.5686 237.711 78.3699 234.626 75.5406 234.537C72.7112 234.447 70.3227 237.386 70.2056 241.101C70.0886 244.816 72.2873 247.901 75.1166 247.99C77.946 248.08 80.3345 245.141 80.4516 241.426Z" fill="white"/>
<path opacity="0.2" d="M80.7128 233.202C80.8299 229.487 78.6311 226.402 75.8018 226.313C72.9725 226.223 70.5839 229.162 70.4669 232.877C70.3498 236.592 72.5485 239.676 75.3779 239.766C78.2072 239.856 80.5957 236.917 80.7128 233.202Z" fill="white"/>
<path opacity="0.2" d="M80.9691 224.977C81.0862 221.262 78.8874 218.178 76.0581 218.088C73.2288 217.999 70.8403 220.938 70.7232 224.653C70.6061 228.368 72.8048 231.452 75.6342 231.542C78.4635 231.631 80.852 228.692 80.9691 224.977Z" fill="white"/>
<path opacity="0.2" d="M58.4419 167.916C57.7674 167 57.159 166.037 56.6216 165.033L70.1588 163.242L55.5678 162.896C54.2674 159.803 53.6099 156.476 53.6354 153.119C53.661 149.762 54.369 146.446 55.7163 143.373L74.9346 154.153L57.3306 140.299C59.1065 137.418 61.4555 134.936 64.231 133.007C67.0065 131.078 70.1488 129.743 73.4617 129.087C76.7746 128.43 80.1869 128.466 83.4854 129.191C86.784 129.917 89.898 131.316 92.6329 133.303C95.3679 135.289 97.665 137.82 99.3808 140.737C101.097 143.654 102.194 146.894 102.605 150.255C103.016 153.616 102.732 157.027 101.77 160.273C100.807 163.519 99.188 166.531 97.0127 169.121C98.0609 170.547 98.9523 172.082 99.6713 173.699L81.914 182.269L100.754 176.586C101.941 180.511 102.133 184.67 101.313 188.688C100.494 192.706 98.6879 196.455 96.0594 199.597C98.7956 203.319 100.432 207.738 100.781 212.349C101.13 216.96 100.177 221.576 98.0327 225.67C95.8881 229.764 92.6377 233.169 88.6535 235.497C84.6694 237.826 80.1122 238.982 75.5033 238.834C70.8945 238.687 66.4201 237.241 62.592 234.663C58.764 232.085 55.7368 228.479 53.8569 224.256C51.9769 220.034 51.3201 215.366 51.9615 210.787C52.6029 206.207 54.5167 201.902 57.4839 198.362C54.216 193.914 52.5339 188.494 52.7076 182.973C52.8814 177.451 54.901 172.148 58.4419 167.916Z" fill="#212226"/>
<path opacity="0.1" d="M101.792 184.522C101.623 190.048 99.5975 195.355 96.0437 199.582C98.7835 203.303 100.423 207.722 100.776 212.334C101.128 216.945 100.179 221.563 98.0361 225.659C95.8935 229.755 92.6443 233.163 88.6604 235.494C84.6764 237.824 80.1187 238.983 75.5088 238.837C70.8989 238.691 66.423 237.247 62.5935 234.669C58.764 232.091 55.7355 228.485 53.8546 224.261C51.9737 220.038 51.3165 215.369 51.9581 210.789C52.5997 206.209 54.5142 201.902 57.4825 198.362C54.3066 194.067 101.878 181.76 101.792 184.522Z" fill="black"/>
</g>
<path opacity="0.1" d="M32.5829 78.2101C38.3052 78.2101 42.9441 73.5581 42.9441 67.8196C42.9441 62.081 38.3052 57.429 32.5829 57.429C26.8606 57.429 22.2217 62.081 22.2217 67.8196C22.2217 73.5581 26.8606 78.2101 32.5829 78.2101Z" fill="#212226"/>
<path opacity="0.1" d="M75.7665 20.7811C81.4888 20.7811 86.1277 16.1291 86.1277 10.3905C86.1277 4.65201 81.4888 0 75.7665 0C70.0442 0 65.4053 4.65201 65.4053 10.3905C65.4053 16.1291 70.0442 20.7811 75.7665 20.7811Z" fill="#212226"/>
<path opacity="0.1" d="M72.2556 67.2575C81.8458 67.2575 89.6201 59.4612 89.6201 49.8439C89.6201 40.2266 81.8458 32.4302 72.2556 32.4302C62.6655 32.4302 54.8911 40.2266 54.8911 49.8439C54.8911 59.4612 62.6655 67.2575 72.2556 67.2575Z" fill="#212226"/>
<path d="M260.108 129.462C282.331 129.462 300.346 111.396 300.346 89.1099C300.346 66.8243 282.331 48.7582 260.108 48.7582C237.886 48.7582 219.871 66.8243 219.871 89.1099C219.871 111.396 237.886 129.462 260.108 129.462Z" fill="#FBBEBE"/>
<path d="M243.764 9.92938C233.03 11.2936 221.442 13.0951 213.854 20.8291C209.61 25.1525 207.124 30.917 205.079 36.6239C201.908 45.5109 199.546 54.8782 200.288 64.308C200.95 72.7434 204.063 81.371 201.543 89.4509C200.384 93.1691 198.109 96.4164 196.341 99.8799C193.065 106.312 191.522 113.523 190.957 120.723C190.564 125.676 190.641 130.773 192.265 135.466C193.994 140.462 197.366 144.713 199.503 149.546C202.664 156.684 202.981 164.716 203.225 172.523C203.469 180.329 203.675 188.082 203.857 195.859C203.972 200.749 203.982 205.986 201.285 210.064C211.244 206.062 221.341 201.979 229.863 195.446C238.385 188.913 245.283 179.493 246.385 168.79C247.276 160.114 244.354 151.564 241.834 143.215C235.607 122.559 231.583 100.538 236.114 79.4447C237.748 71.8499 241.719 63.3713 249.34 61.9734C253.992 61.1231 258.633 63.2512 262.825 65.4513C272.731 70.649 282.944 77.3743 286.632 87.957C289.985 97.5261 287.164 108.186 282.8 117.322C278.436 126.459 272.496 134.861 269.105 144.411C263.898 159.062 265.363 176.217 274.015 189.124C282.666 202.032 298.651 209.973 314.022 207.888C312.82 202.681 309.05 198.472 307.029 193.525C303.355 184.537 305.831 174.199 309.783 165.331C313.735 156.464 319.129 148.196 321.601 138.781C323.344 132.152 323.555 125.225 323.545 118.37C323.545 107.58 323.014 96.7863 321.979 86.0451C320.944 75.3038 319.363 64.4281 315.953 54.0952C313.213 45.8087 309.223 37.796 303.254 31.4406C296.902 24.6721 288.634 20.0845 280.515 15.5882C275.658 12.9077 270.695 10.1936 265.244 9.1896C260.932 8.39698 256.401 7.26809 252.004 7.19603C249.014 7.1528 245.872 7.80131 243.764 9.92938Z" fill="#808088"/>
<path d="M319.498 62.0113L293.61 56.9745C292.857 56.828 292.128 57.3215 291.982 58.0768L279.579 122.184C279.433 122.939 279.925 123.67 280.678 123.817L306.566 128.853C307.319 129 308.048 128.507 308.194 127.751L320.597 63.6443C320.743 62.889 320.251 62.1579 319.498 62.0113Z" fill="black"/>
<path d="M321.454 62.3921L295.567 57.3553C294.814 57.2087 294.085 57.7022 293.939 58.4575L281.536 122.564C281.39 123.32 281.882 124.051 282.635 124.197L308.522 129.234C309.275 129.381 310.004 128.887 310.151 128.132L322.553 64.025C322.699 63.2697 322.207 62.5386 321.454 62.3921Z" fill="white"/>
<path d="M307.63 74.7246C308.137 72.1071 307.673 69.8152 306.595 69.6055C305.518 69.3958 304.233 71.3477 303.727 73.9652C303.221 76.5827 303.684 78.8746 304.762 79.0843C305.839 79.294 307.124 77.3421 307.63 74.7246Z" fill="#212226"/>
<path d="M313.759 96.5557C312.494 94.3124 311.143 91.9922 309.012 90.5558C307.786 89.8021 306.469 89.2096 305.093 88.7928C300.451 87.1644 295.733 85.5215 290.823 85.2621C290.023 85.2236 289.108 85.2621 288.586 85.8769C287.513 87.1403 289.214 88.8601 290.684 89.6239L302.382 95.7007L291.599 94.5574C290.033 94.3892 287.8 94.8168 287.915 96.3924C287.992 97.4252 289.123 97.9873 290.1 98.3139C297.022 100.716 305.021 102.599 308.81 108.882C303.761 108.402 298.602 107.921 293.654 109.036C292.298 109.343 290.895 109.819 290.009 110.89C289.123 111.961 289.022 113.772 290.138 114.623C290.828 115.137 291.757 115.151 292.619 115.103C296.131 114.935 299.733 114.234 303.105 115.238C306.477 116.242 309.471 119.787 308.307 123.111C311.296 123.38 314.832 123.111 317.596 121.819C320.642 120.378 320.57 117.668 320.383 114.402C319.986 108.003 316.82 102.032 313.759 96.5557Z" fill="#FBBEBE"/>
<path opacity="0.1" d="M310.736 201.273C308.055 182.369 304.378 163.621 299.719 145.107C297.323 135.5 294.603 125.729 295.288 115.843C305.184 117.106 314.051 118.043 323.172 113.989C323.32 119.181 327.076 123.596 328.441 128.616C329.356 131.979 329.011 135.538 329.37 139.002C329.729 142.465 330.807 145.823 331.732 149.191C336.319 165.878 337.4 183.338 334.908 200.466C326.443 201.475 319.181 202.584 310.736 201.273Z" fill="black"/>
<path d="M309.299 201.273C306.618 182.369 302.941 163.621 298.282 145.107C295.886 135.5 293.166 125.729 293.851 115.843C303.747 117.106 312.614 118.043 321.734 113.989C321.883 119.181 325.638 123.596 327.004 128.616C327.919 131.979 327.574 135.538 327.933 139.002C328.292 142.465 329.37 145.823 330.295 149.191C334.882 165.878 335.963 183.338 333.47 200.466C325.006 201.475 317.744 202.584 309.299 201.273Z" fill="#212226"/>
<path d="M170.833 294.841L175.523 178.172C175.598 176.317 176.389 174.565 177.731 173.286C179.072 172.007 180.858 171.303 182.708 171.322L367.859 173.099C368.84 173.109 369.809 173.323 370.704 173.726C371.599 174.129 372.401 174.714 373.06 175.443C373.719 176.171 374.22 177.029 374.533 177.962C374.846 178.894 374.963 179.882 374.877 180.862L365.095 292.631C364.942 294.389 364.145 296.027 362.857 297.23C361.57 298.433 359.885 299.115 358.126 299.145L178.071 302.267C177.102 302.284 176.14 302.102 175.243 301.732C174.346 301.363 173.534 300.813 172.857 300.118C172.179 299.423 171.65 298.596 171.302 297.689C170.954 296.781 170.795 295.812 170.833 294.841Z" fill="white"/>
<path d="M274.24 233.943C278.737 233.943 282.383 229.642 282.383 224.336C282.383 219.03 278.737 214.728 274.24 214.728C269.742 214.728 266.096 219.03 266.096 224.336C266.096 229.642 269.742 233.943 274.24 233.943Z" fill="#212226"/>
<path d="M448.364 217.736L447.981 221.031L441.753 274.286C425.519 285.637 412.892 274.727 412.782 274.286L404.936 220.781L404.49 217.736H448.364Z" fill="white"/>
<path opacity="0.1" d="M448.364 217.736L447.981 221.031C429.692 231.695 410.181 223.394 404.936 220.781L404.49 217.736H448.364Z" fill="black"/>
<path d="M403.575 214.844V219.647C403.575 219.647 427.766 233.751 449.561 219.647V214.844H403.575Z" fill="#212226"/>
<path d="M406.387 208.498C406.387 208.498 405.683 211.74 403.575 212.024V216.112H449.561V212.447C449.561 212.447 446.749 211.74 447.166 208.498H406.387Z" fill="#212226"/>
<path d="M426.429 214.844C437.884 214.844 447.171 212.16 447.171 208.849C447.171 205.538 437.884 202.853 426.429 202.853C414.974 202.853 405.688 205.538 405.688 208.849C405.688 212.16 414.974 214.844 426.429 214.844Z" fill="#212226"/>
<path opacity="0.1" d="M426.429 214.844C437.884 214.844 447.171 212.16 447.171 208.849C447.171 205.538 437.884 202.853 426.429 202.853C414.974 202.853 405.688 205.538 405.688 208.849C405.688 212.16 414.974 214.844 426.429 214.844Z" fill="black"/>
<path opacity="0.1" d="M444.637 208.498C444.637 210.9 436.771 212.869 427.062 212.869H426.544C420.025 212.821 414.391 211.909 411.517 210.544C410.219 209.929 409.481 209.233 409.481 208.498C409.481 207.278 411.493 206.173 414.751 205.38C418.798 204.493 422.933 204.072 427.076 204.127C436.771 204.127 444.637 206.082 444.637 208.498Z" fill="black"/>
<path opacity="0.1" d="M426.544 212.869C420.025 212.821 414.392 211.909 411.518 210.544L414.737 205.361L426.544 212.869Z" fill="black"/>
<path opacity="0.1" d="M408.174 208.834C407.925 208.781 407.594 208.868 407.546 209.118C407.54 209.245 407.573 209.371 407.642 209.478C408.191 210.349 408.989 211.033 409.932 211.443C410.093 211.534 410.27 211.591 410.454 211.611C410.549 211.622 410.646 211.605 410.732 211.56C410.817 211.515 410.887 211.446 410.933 211.361C410.959 211.288 410.97 211.211 410.964 211.134C410.958 211.057 410.936 210.982 410.899 210.914C410.753 210.654 410.55 210.431 410.305 210.261C409.663 209.757 409.007 208.974 408.174 208.834Z" fill="black"/>
<path d="M427.128 260.182C433.962 260.182 439.502 254.626 439.502 247.774C439.502 240.921 433.962 235.365 427.128 235.365C420.295 235.365 414.755 240.921 414.755 247.774C414.755 254.626 420.295 260.182 427.128 260.182Z" fill="#212226"/>
<path d="M90.2138 247.802H96.0148C99.1909 247.802 102.237 249.068 104.483 251.32C106.729 253.572 107.99 256.627 107.99 259.812V277.658H78.2383V259.812C78.2383 256.627 79.5 253.572 81.7458 251.32C83.9917 249.068 87.0377 247.802 90.2138 247.802Z" fill="white"/>
<path opacity="0.1" d="M90.2138 247.802H96.0148C99.1909 247.802 102.237 249.068 104.483 251.32C106.729 253.572 107.99 256.627 107.99 259.812V277.658H78.2383V259.812C78.2383 256.627 79.5 253.572 81.7458 251.32C83.9917 249.068 87.0377 247.802 90.2138 247.802Z" fill="black"/>
<path d="M91.9242 254.369C93.239 254.369 94.3049 253.3 94.3049 251.982C94.3049 250.663 93.239 249.594 91.9242 249.594C90.6093 249.594 89.5435 250.663 89.5435 251.982C89.5435 253.3 90.6093 254.369 91.9242 254.369Z" fill="white"/>
<path d="M91.9242 251.386C93.239 251.386 94.3049 250.317 94.3049 248.998C94.3049 247.68 93.239 246.611 91.9242 246.611C90.6093 246.611 89.5435 247.68 89.5435 248.998C89.5435 250.317 90.6093 251.386 91.9242 251.386Z" fill="white"/>
<path d="M91.9242 248.398C93.239 248.398 94.3049 247.329 94.3049 246.011C94.3049 244.692 93.239 243.623 91.9242 243.623C90.6093 243.623 89.5435 244.692 89.5435 246.011C89.5435 247.329 90.6093 248.398 91.9242 248.398Z" fill="white"/>
<path d="M91.9242 245.415C93.239 245.415 94.3049 244.346 94.3049 243.027C94.3049 241.709 93.239 240.64 91.9242 240.64C90.6093 240.64 89.5435 241.709 89.5435 243.027C89.5435 244.346 90.6093 245.415 91.9242 245.415Z" fill="white"/>
<path d="M91.9242 242.432C93.239 242.432 94.3049 241.363 94.3049 240.044C94.3049 238.726 93.239 237.657 91.9242 237.657C90.6093 237.657 89.5435 238.726 89.5435 240.044C89.5435 241.363 90.6093 242.432 91.9242 242.432Z" fill="white"/>
<path d="M91.9242 239.449C93.239 239.449 94.3049 238.38 94.3049 237.061C94.3049 235.743 93.239 234.674 91.9242 234.674C90.6093 234.674 89.5435 235.743 89.5435 237.061C89.5435 238.38 90.6093 239.449 91.9242 239.449Z" fill="white"/>
<path d="M91.9242 236.465C93.239 236.465 94.3049 235.397 94.3049 234.078C94.3049 232.759 93.239 231.691 91.9242 231.691C90.6093 231.691 89.5435 232.759 89.5435 234.078C89.5435 235.397 90.6093 236.465 91.9242 236.465Z" fill="white"/>
<path d="M95.4974 237.657C96.8123 237.657 97.8782 236.588 97.8782 235.269C97.8782 233.951 96.8123 232.882 95.4974 232.882C94.1826 232.882 93.1167 233.951 93.1167 235.269C93.1167 236.588 94.1826 237.657 95.4974 237.657Z" fill="white"/>
<path d="M97.8783 236.465C99.1931 236.465 100.259 235.397 100.259 234.078C100.259 232.759 99.1931 231.691 97.8783 231.691C96.5634 231.691 95.4976 232.759 95.4976 234.078C95.4976 235.397 96.5634 236.465 97.8783 236.465Z" fill="white"/>
<path d="M100.259 235.269C101.574 235.269 102.64 234.2 102.64 232.882C102.64 231.563 101.574 230.494 100.259 230.494C98.9443 230.494 97.8784 231.563 97.8784 232.882C97.8784 234.2 98.9443 235.269 100.259 235.269Z" fill="white"/>
<path d="M91.9242 233.482C93.239 233.482 94.3049 232.413 94.3049 231.095C94.3049 229.776 93.239 228.707 91.9242 228.707C90.6093 228.707 89.5435 229.776 89.5435 231.095C89.5435 232.413 90.6093 233.482 91.9242 233.482Z" fill="white"/>
<path d="M91.9242 230.499C93.239 230.499 94.3049 229.43 94.3049 228.112C94.3049 226.793 93.239 225.724 91.9242 225.724C90.6093 225.724 89.5435 226.793 89.5435 228.112C89.5435 229.43 90.6093 230.499 91.9242 230.499Z" fill="white"/>
<path d="M91.9242 227.511C93.239 227.511 94.3049 226.442 94.3049 225.124C94.3049 223.805 93.239 222.736 91.9242 222.736C90.6093 222.736 89.5435 223.805 89.5435 225.124C89.5435 226.442 90.6093 227.511 91.9242 227.511Z" fill="white"/>
<path d="M91.9242 224.528C93.239 224.528 94.3049 223.459 94.3049 222.141C94.3049 220.822 93.239 219.753 91.9242 219.753C90.6093 219.753 89.5435 220.822 89.5435 222.141C89.5435 223.459 90.6093 224.528 91.9242 224.528Z" fill="white"/>
<path d="M101.792 214.445C101.203 214.531 100.609 214.594 100.015 214.632C100.569 214.146 101.083 213.616 101.553 213.047C101.221 212.045 100.736 211.1 100.116 210.246C99.5254 210.579 98.873 210.785 98.1995 210.852C97.6103 210.938 97.0163 211.001 96.4223 211.044C97.2031 210.405 97.9312 209.444 98.6976 208.642C96.9263 207.031 94.6428 206.103 92.2532 206.022C89.8636 205.941 87.5227 206.712 85.647 208.199C83.7712 209.686 82.4821 211.792 82.0089 214.142C81.5357 216.493 81.9091 218.935 83.0628 221.035C84.2164 223.136 86.0754 224.757 88.3092 225.612C90.543 226.467 93.0068 226.5 95.2625 225.705C97.5181 224.91 99.4194 223.338 100.628 221.269C101.837 219.2 102.275 216.769 101.864 214.407L101.792 214.445Z" fill="#212226"/>
<path d="M109.749 226.305C109.141 226.679 108.456 226.908 107.746 226.973C107.157 227.06 106.563 227.127 105.969 227.165C106.6 226.598 107.19 225.984 107.732 225.33C106.297 224.955 104.773 225.13 103.46 225.821C102.146 226.513 101.137 227.67 100.629 229.068C100.122 230.466 100.152 232.003 100.715 233.379C101.277 234.756 102.332 235.872 103.672 236.511C105.011 237.149 106.54 237.263 107.96 236.831C109.379 236.399 110.587 235.451 111.347 234.174C112.106 232.896 112.364 231.38 112.068 229.922C111.773 228.465 110.946 227.17 109.749 226.291V226.305Z" fill="#212226"/>
<path d="M88.3553 237.657C89.6702 237.657 90.7361 236.588 90.7361 235.269C90.7361 233.951 89.6702 232.882 88.3553 232.882C87.0405 232.882 85.9746 233.951 85.9746 235.269C85.9746 236.588 87.0405 237.657 88.3553 237.657Z" fill="white"/>
<path d="M85.9745 236.465C87.2893 236.465 88.3552 235.397 88.3552 234.078C88.3552 232.759 87.2893 231.691 85.9745 231.691C84.6596 231.691 83.5938 232.759 83.5938 234.078C83.5938 235.397 84.6596 236.465 85.9745 236.465Z" fill="white"/>
<path d="M83.5941 235.269C84.909 235.269 85.9748 234.2 85.9748 232.882C85.9748 231.563 84.909 230.494 83.5941 230.494C82.2793 230.494 81.2134 231.563 81.2134 232.882C81.2134 234.2 82.2793 235.269 83.5941 235.269Z" fill="white"/>
<path d="M74.1045 226.305C74.7116 226.68 75.3969 226.909 76.1068 226.973C76.696 227.06 77.29 227.127 77.884 227.165C77.2514 226.599 76.6622 225.985 76.1212 225.33C77.5565 224.955 79.0799 225.13 80.3934 225.821C81.7069 226.513 82.7162 227.67 83.2238 229.068C83.7314 230.466 83.701 232.003 83.1384 233.379C82.5757 234.756 81.5215 235.872 80.1816 236.511C78.8417 237.149 77.3126 237.263 75.8932 236.831C74.4739 236.399 73.2662 235.451 72.5065 234.174C71.7467 232.896 71.4895 231.38 71.785 229.922C72.0805 228.465 72.9076 227.17 74.1045 226.291V226.305Z" fill="#212226"/>
<path d="M90.2138 249.594H96.0148C99.1909 249.594 102.237 250.859 104.483 253.112C106.729 255.364 107.99 258.418 107.99 261.604V277.394C107.99 277.934 107.776 278.452 107.395 278.834C107.015 279.216 106.498 279.43 105.959 279.43H80.2693C79.7307 279.43 79.2141 279.216 78.8332 278.834C78.4523 278.452 78.2383 277.934 78.2383 277.394V261.604C78.2383 258.418 79.5 255.364 81.7458 253.112C83.9917 250.859 87.0377 249.594 90.2138 249.594Z" fill="white"/>
<g opacity="0.1">
<path opacity="0.1" d="M101.974 215.098C101.733 215.356 101.477 215.6 101.208 215.828C101.481 215.828 101.749 215.785 102.022 215.756C102.031 215.535 101.998 215.314 101.974 215.098Z" fill="black"/>
<path opacity="0.1" d="M97.6343 212.245C98.2331 212.206 98.8222 212.144 99.4162 212.058C99.9491 211.99 100.47 211.847 100.963 211.635C100.722 211.154 100.444 210.693 100.13 210.256C99.832 210.438 99.5093 210.576 99.1719 210.664C98.7022 211.231 98.188 211.76 97.6343 212.245Z" fill="black"/>
<path opacity="0.1" d="M83 217.37C82.9964 215.549 83.4827 213.761 84.4076 212.193C85.3325 210.626 86.6618 209.338 88.2555 208.464C89.8492 207.591 91.6482 207.165 93.4631 207.231C95.278 207.297 97.0416 207.852 98.5682 208.839L98.7214 208.676C97.7252 207.787 96.5634 207.104 95.3029 206.668C94.0425 206.231 92.7084 206.049 91.3774 206.132C90.0464 206.214 88.745 206.56 87.548 207.15C86.351 207.739 85.2821 208.56 84.403 209.566C83.5238 210.571 82.8518 211.741 82.4256 213.009C81.9994 214.276 81.8275 215.615 81.9197 216.949C82.0119 218.283 82.3665 219.586 82.963 220.782C83.5594 221.978 84.386 223.044 85.3951 223.918C83.8459 222.09 82.9967 219.769 83 217.37Z" fill="black"/>
</g>
<g opacity="0.1">
<path opacity="0.1" d="M105.969 228.357C106.563 228.318 107.157 228.256 107.746 228.169C108.456 228.102 109.141 227.872 109.748 227.497C110.421 227.994 110.982 228.627 111.394 229.355C111.807 230.083 112.062 230.89 112.143 231.724C112.167 231.515 112.178 231.305 112.177 231.095C112.181 230.162 111.967 229.241 111.551 228.406C111.135 227.572 110.529 226.847 109.782 226.291C109.174 226.665 108.489 226.894 107.779 226.959L107.3 227.021C106.892 227.5 106.446 227.947 105.969 228.357Z" fill="black"/>
<path opacity="0.1" d="M106.208 226.32C106.407 226.322 106.605 226.337 106.802 226.363C107.114 226.032 107.42 225.676 107.732 225.33C106.851 225.094 105.928 225.065 105.034 225.244C104.14 225.423 103.3 225.806 102.577 226.364C101.855 226.921 101.27 227.638 100.868 228.458C100.466 229.279 100.257 230.181 100.259 231.095C100.259 231.297 100.259 231.494 100.288 231.691C100.435 230.219 101.122 228.854 102.216 227.861C103.31 226.869 104.733 226.32 106.208 226.32Z" fill="black"/>
</g>
<g opacity="0.1">
<path opacity="0.1" d="M77.8839 228.357C77.29 228.318 76.696 228.256 76.1068 228.169C75.3966 228.103 74.7112 227.873 74.1045 227.497C73.4319 227.994 72.8711 228.627 72.4585 229.355C72.0458 230.083 71.7906 230.89 71.7094 231.724C71.6861 231.515 71.675 231.305 71.6759 231.095C71.6713 230.162 71.8858 229.241 72.3019 228.406C72.7179 227.572 73.324 226.847 74.071 226.291C74.6781 226.666 75.3634 226.894 76.0733 226.959L76.5523 227.021C76.9585 227.503 77.4039 227.949 77.8839 228.357Z" fill="black"/>
<path opacity="0.1" d="M77.6444 226.32C77.4441 226.322 77.2441 226.337 77.0456 226.363C76.739 226.032 76.4325 225.676 76.1211 225.33C77.0017 225.094 77.9247 225.065 78.8185 225.244C79.7124 225.423 80.5531 225.806 81.2756 226.364C81.998 226.921 82.5829 227.638 82.9849 228.458C83.3869 229.279 83.5953 230.181 83.5938 231.095C83.5938 231.297 83.5938 231.494 83.5651 231.691C83.4178 230.219 82.7304 228.854 81.6364 227.861C80.5423 226.869 79.1196 226.32 77.6444 226.32Z" fill="black"/>
</g>
</g>
<defs>
<clipPath id="clip0">
<rect width="548" height="306" fill="white"/>
</clipPath>
</defs>
</svg>
