<svg width="513" height="513" viewBox="0 0 513 513" fill="none" xmlns="http://www.w3.org/2000/svg">
<path d="M290.501 256.569L385.501 161.569C390.01 157.068 392.546 150.961 392.552 144.59C392.557 138.219 390.032 132.108 385.531 127.599C381.031 123.09 374.923 120.554 368.553 120.548C362.182 120.543 356.07 123.068 351.561 127.569L256.561 222.569L161.561 127.569C157.053 123.06 150.938 120.527 144.561 120.527C138.185 120.527 132.07 123.06 127.561 127.569C123.053 132.078 120.52 138.193 120.52 144.569C120.52 150.945 123.053 157.06 127.561 161.569L222.561 256.569L127.561 351.569C123.053 356.077 120.52 362.193 120.52 368.569C120.52 374.945 123.053 381.06 127.561 385.569C132.07 390.077 138.185 392.61 144.561 392.61C150.938 392.61 157.053 390.077 161.561 385.569L256.561 290.569L351.561 385.569C356.07 390.077 362.185 392.61 368.561 392.61C374.938 392.61 381.053 390.077 385.561 385.569C390.07 381.06 392.603 374.945 392.603 368.569C392.603 362.193 390.07 356.077 385.561 351.569L290.501 256.569Z" fill="black"/>
</svg>
