<svg width="30" height="30" viewBox="0 0 30 30" fill="none" xmlns="http://www.w3.org/2000/svg">
<path d="M29.0625 6.41609C28.0075 6.8745 26.8912 7.17651 25.749 7.31257C26.9494 6.60967 27.8521 5.49298 28.2879 4.17195C27.153 4.83557 25.9134 5.30121 24.6223 5.5489C24.0786 4.97909 23.4247 4.5258 22.7004 4.21656C21.976 3.90733 21.1964 3.74862 20.4088 3.75007C17.2201 3.75007 14.6396 6.29304 14.6396 9.42781C14.6374 9.86384 14.6874 10.2986 14.7885 10.7227C12.502 10.6155 10.263 10.0322 8.21483 9.01018C6.16666 7.98811 4.35439 6.54977 2.89395 4.78718C2.38159 5.65092 2.11062 6.63642 2.10938 7.6407C2.10938 9.60945 3.13652 11.3497 4.6875 12.3692C3.76859 12.3474 2.86851 12.1042 2.06367 11.6602V11.7305C2.06367 14.4844 4.05586 16.7755 6.69258 17.2969C6.19675 17.4291 5.6858 17.4961 5.17266 17.4962C4.80854 17.4968 4.44526 17.4615 4.08809 17.3907C4.82109 19.6466 6.95449 21.2872 9.48164 21.3341C7.42815 22.9166 4.907 23.772 2.31445 23.7657C1.85427 23.765 1.39451 23.7376 0.9375 23.6837C3.57491 25.3678 6.64069 26.2586 9.76992 26.2501C20.3965 26.2501 26.202 17.5958 26.202 10.0899C26.202 9.84382 26.1955 9.59773 26.1838 9.35749C27.3106 8.55597 28.2854 7.5599 29.0625 6.41609V6.41609Z" fill="#F8AF32"/>
</svg>
