<svg width="38" height="38" viewBox="0 0 38 38" fill="none" xmlns="http://www.w3.org/2000/svg">
<path d="M31.8963 9.65364L20.3605 2.73497C19.9461 2.49874 19.4774 2.37451 19.0004 2.37451C18.5234 2.37451 18.0547 2.49874 17.6404 2.73497L6.10379 9.6529C5.68804 9.90767 5.34503 10.2654 5.10789 10.6914C4.87075 11.1174 4.7475 11.5975 4.75004 12.085V25.9023C4.74754 26.3902 4.8708 26.8705 5.10792 27.2969C5.34503 27.7233 5.68802 28.0814 6.10379 28.3367L9.12894 30.1432L9.14602 30.1529C10.6734 30.9344 11.2583 30.9344 11.9359 30.9344C14.3213 30.9344 15.8034 29.3906 15.8034 26.905V13.5078C15.8048 13.3406 15.7398 13.1796 15.6227 13.0602C15.5055 12.9408 15.3458 12.8728 15.1785 12.871H13.5175C13.3502 12.8728 13.1905 12.9408 13.0734 13.0602C12.9562 13.1796 12.8912 13.3406 12.8926 13.5078V26.905C12.8986 27.0968 12.855 27.2869 12.7659 27.4569C12.6768 27.6269 12.5453 27.7709 12.3842 27.8751C11.9463 28.1423 11.3102 28.0859 10.5925 27.7155L7.69355 25.9706C7.68246 25.9631 7.6734 25.9529 7.66718 25.941C7.66097 25.929 7.65779 25.9158 7.65793 25.9023V12.2802C7.65841 12.2646 7.66263 12.2493 7.67025 12.2356C7.67787 12.2219 7.68866 12.2102 7.70172 12.2016L18.9711 5.29922C18.9795 5.29504 18.9888 5.29286 18.9982 5.29286C19.0076 5.29286 19.0169 5.29504 19.0253 5.29922L30.3013 12.2016C30.3142 12.2109 30.3246 12.2232 30.3317 12.2374C30.3388 12.2516 30.3424 12.2673 30.3421 12.2832V25.9023C30.3424 25.9164 30.3396 25.9304 30.3338 25.9432C30.328 25.956 30.3195 25.9674 30.3087 25.9766L19.023 32.7045C19.0038 32.7112 18.9829 32.7112 18.9637 32.7045L16.0818 30.993C15.9962 30.9371 15.8974 30.9048 15.7953 30.8995C15.6932 30.8941 15.5916 30.9159 15.5006 30.9626L15.4754 30.9774C14.6798 31.4487 14.466 31.5712 13.7283 31.8398C13.608 31.8836 13.3253 31.9883 13.3008 32.2681C13.2763 32.5479 13.545 32.7468 13.7839 32.8856L17.6359 35.2509C18.0463 35.4968 18.5157 35.6268 18.9941 35.6272H19.0371C19.5036 35.6199 19.9599 35.4901 20.3605 35.2509L31.8963 28.3389C32.3118 28.0829 32.6546 27.7243 32.8917 27.2976C33.1287 26.8709 33.2521 26.3905 33.25 25.9023V12.085C33.2524 11.5976 33.129 11.1178 32.8919 10.6919C32.6548 10.266 32.3119 9.9084 31.8963 9.65364Z" fill="#F8AF32"/>
<path d="M22.8506 23.6052C20.0829 23.6052 19.4929 22.8318 19.3177 21.5834C19.298 21.4348 19.2256 21.2982 19.1136 21.1985C19.0016 21.0988 18.8576 21.0426 18.7077 21.0402H17.2381C17.0725 21.0437 16.915 21.1126 16.8001 21.232C16.6852 21.3513 16.6223 21.5113 16.6251 21.677C16.6251 22.7591 17.0051 26.2911 22.8535 26.2911C24.663 26.2911 26.1681 25.8681 27.205 25.0673C28.2418 24.2664 28.797 23.1012 28.797 21.7126C28.797 18.9257 26.9786 18.1627 23.3976 17.6639C19.7571 17.1578 19.7571 16.9002 19.7571 16.3362C19.7571 15.9302 19.7571 14.9795 22.3889 14.9795C24.2615 14.9795 25.2642 15.2162 25.5848 16.4638C25.6132 16.6021 25.688 16.7266 25.7967 16.8166C25.9055 16.9067 26.0418 16.9568 26.183 16.9589H27.6577C27.7446 16.958 27.8304 16.9386 27.9092 16.902C27.988 16.8654 28.0581 16.8124 28.1149 16.7466C28.2283 16.6142 28.2848 16.4425 28.2722 16.2686C28.0815 13.6302 26.1526 12.292 22.3911 12.292C18.9726 12.292 16.9324 13.832 16.9324 16.4111C16.9324 19.2389 19.0468 20.0382 22.2234 20.3692C25.9343 20.7529 25.9343 21.3125 25.9343 21.8068C25.9366 22.5772 25.6167 23.6052 22.8506 23.6052Z" fill="#F8AF32"/>
</svg>
