<svg width="173" height="113" viewBox="0 0 173 113" fill="none" xmlns="http://www.w3.org/2000/svg">
<circle cx="12.2511" cy="100.459" r="12.2511" fill="white" fill-opacity="0.5"/>
<circle cx="12.2511" cy="71.0563" r="12.2511" fill="white" fill-opacity="0.5"/>
<circle cx="12.2511" cy="41.6534" r="12.2511" fill="white" fill-opacity="0.5"/>
<circle cx="12.2511" cy="12.2511" r="12.2511" fill="white" fill-opacity="0.5"/>
<circle cx="41.9508" cy="100.459" r="12.2511" fill="white" fill-opacity="0.5"/>
<circle cx="41.9508" cy="71.0563" r="12.2511" fill="white" fill-opacity="0.5"/>
<circle cx="41.9508" cy="41.6534" r="12.2511" fill="white" fill-opacity="0.5"/>
<circle cx="41.9508" cy="12.2511" r="12.2511" fill="white" fill-opacity="0.5"/>
<circle cx="71.65" cy="100.459" r="12.2511" fill="white" fill-opacity="0.5"/>
<circle cx="71.65" cy="71.0563" r="12.2511" fill="white" fill-opacity="0.5"/>
<circle cx="71.65" cy="41.6534" r="12.2511" fill="white" fill-opacity="0.5"/>
<circle cx="71.65" cy="12.2511" r="12.2511" fill="white" fill-opacity="0.5"/>
<circle cx="101.35" cy="100.459" r="12.2511" fill="white" fill-opacity="0.5"/>
<circle cx="101.35" cy="71.0563" r="12.2511" fill="white" fill-opacity="0.5"/>
<circle cx="101.35" cy="41.6534" r="12.2511" fill="white" fill-opacity="0.5"/>
<circle cx="101.35" cy="12.2511" r="12.2511" fill="white" fill-opacity="0.5"/>
<circle cx="131.049" cy="100.459" r="12.2511" fill="white" fill-opacity="0.5"/>
<circle cx="131.049" cy="71.0563" r="12.2511" fill="white" fill-opacity="0.5"/>
<circle cx="131.049" cy="41.6534" r="12.2511" fill="white" fill-opacity="0.5"/>
<circle cx="131.049" cy="12.2511" r="12.2511" fill="white" fill-opacity="0.5"/>
<circle cx="160.749" cy="100.459" r="12.2511" fill="white" fill-opacity="0.5"/>
<circle cx="160.749" cy="71.0563" r="12.2511" fill="white" fill-opacity="0.5"/>
<circle cx="160.749" cy="41.6534" r="12.2511" fill="white" fill-opacity="0.5"/>
<circle cx="160.749" cy="12.2511" r="12.2511" fill="white" fill-opacity="0.5"/>
</svg>
