<svg width="30" height="30" viewBox="0 0 30 30" fill="none" xmlns="http://www.w3.org/2000/svg">
<path d="M17.8116 22.5V21.0937C17.8116 19.3945 19.6596 17.7873 20.8584 16.6406C22.5483 15.0252 23.4366 12.8549 23.4366 10.3125C23.4366 5.62497 19.7024 1.87497 14.9991 1.87497C13.8902 1.87188 12.7916 2.08801 11.7665 2.51094C10.7414 2.93387 9.81006 3.55525 9.02595 4.33936C8.24183 5.12347 7.62045 6.05484 7.19752 7.07992C6.77459 8.10501 6.55846 9.20358 6.56156 10.3125C6.56156 12.764 7.48792 15.0814 9.13968 16.6406C10.3321 17.7662 12.1866 19.3769 12.1866 21.0937V22.5" stroke="white" stroke-width="2" stroke-linecap="round" stroke-linejoin="round"/>
<path d="M13.125 28.125H16.875" stroke="white" stroke-width="2" stroke-linecap="round" stroke-linejoin="round"/>
<path d="M12.1875 25.3125H17.8125" stroke="white" stroke-width="2" stroke-linecap="round" stroke-linejoin="round"/>
<path d="M15 22.5V15" stroke="white" stroke-width="2" stroke-linecap="round" stroke-linejoin="round"/>
<path d="M17.2266 14.0625C17.2266 14.0625 15.9662 15 15 15C14.0338 15 12.7734 14.0625 12.7734 14.0625" stroke="white" stroke-width="2" stroke-linecap="round" stroke-linejoin="round"/>
</svg>
