<svg width="442" height="301" viewBox="0 0 442 301" fill="none" xmlns="http://www.w3.org/2000/svg">
<path d="M66.3531 244.533C63.1752 256.626 52.0394 264.184 52.0394 264.184C52.0394 264.184 46.0561 252.134 49.234 240.04C52.4119 227.947 63.5477 220.389 63.5477 220.389C63.5477 220.389 69.531 232.439 66.3531 244.533Z" fill="#1D1B1B"/>
<path d="M61.5334 241.974C52.6325 250.762 51.6367 264.177 51.6367 264.177C51.6367 264.177 65.072 263.344 73.9728 254.557C82.8737 245.769 83.8695 232.354 83.8695 232.354C83.8695 232.354 70.4342 233.187 61.5334 241.974Z" fill="#FF0054"/>
<path d="M72.6953 260.643H37.8787C34.0597 260.643 30.9639 263.737 30.9639 267.553V274.419C30.9639 278.235 34.0597 281.329 37.8787 281.329H72.6953C76.5142 281.329 79.6101 278.235 79.6101 274.419V267.553C79.6101 263.737 76.5142 260.643 72.6953 260.643Z" fill="#FF0054"/>
<g opacity="0.7">
<path opacity="0.7" d="M407.445 247.429V239.975H370.149V274.449C370.149 275.404 370.338 276.349 370.703 277.23C371.069 278.112 371.604 278.913 372.28 279.588C372.955 280.263 373.757 280.798 374.639 281.164C375.521 281.529 376.467 281.717 377.422 281.717H400.172C402.101 281.717 403.951 280.951 405.315 279.588C406.679 278.225 407.445 276.377 407.445 274.449V266.809C410.013 266.804 412.475 265.781 414.289 263.964C416.104 262.147 417.123 259.685 417.123 257.119C417.123 254.552 416.104 252.09 414.289 250.273C412.475 248.457 410.013 247.433 407.445 247.429V247.429ZM407.445 263.082V251.156C409.028 251.156 410.545 251.784 411.664 252.902C412.783 254.02 413.412 255.537 413.412 257.119C413.412 258.7 412.783 260.217 411.664 261.335C410.545 262.454 409.028 263.082 407.445 263.082V263.082Z" fill="url(#paint0_linear)"/>
</g>
<path d="M406.245 248.595C404.494 248.595 402.782 249.114 401.326 250.086C399.87 251.059 398.736 252.44 398.066 254.057C397.395 255.674 397.22 257.453 397.562 259.169C397.903 260.885 398.747 262.462 399.985 263.699C401.223 264.936 402.801 265.779 404.518 266.12C406.235 266.462 408.016 266.287 409.633 265.617C411.251 264.947 412.634 263.813 413.607 262.358C414.58 260.903 415.099 259.193 415.099 257.443C415.099 255.096 414.166 252.846 412.506 251.187C410.845 249.527 408.593 248.595 406.245 248.595ZM406.245 262.887C405.168 262.887 404.114 262.568 403.218 261.97C402.322 261.372 401.624 260.521 401.212 259.526C400.799 258.531 400.691 257.437 400.902 256.381C401.112 255.324 401.631 254.354 402.393 253.593C403.155 252.831 404.125 252.313 405.182 252.103C406.239 251.893 407.335 252.001 408.33 252.413C409.326 252.825 410.177 253.523 410.775 254.418C411.374 255.313 411.694 256.366 411.694 257.443C411.694 258.887 411.12 260.272 410.098 261.293C409.076 262.314 407.69 262.887 406.245 262.887V262.887Z" fill="#FF0054"/>
<path opacity="0.1" d="M406.245 248.595C404.494 248.595 402.782 249.114 401.326 250.086C399.87 251.059 398.736 252.44 398.066 254.057C397.395 255.674 397.22 257.453 397.562 259.169C397.903 260.885 398.747 262.462 399.985 263.699C401.223 264.936 402.801 265.779 404.518 266.12C406.235 266.462 408.016 266.287 409.633 265.617C411.251 264.947 412.634 263.813 413.607 262.358C414.58 260.903 415.099 259.193 415.099 257.443C415.099 255.096 414.166 252.846 412.506 251.187C410.845 249.527 408.593 248.595 406.245 248.595ZM406.245 262.887C405.168 262.887 404.114 262.568 403.218 261.97C402.322 261.372 401.624 260.521 401.212 259.526C400.799 258.531 400.691 257.437 400.902 256.381C401.112 255.324 401.631 254.354 402.393 253.593C403.155 252.831 404.125 252.313 405.182 252.103C406.239 251.893 407.335 252.001 408.33 252.413C409.326 252.825 410.177 253.523 410.775 254.418C411.374 255.313 411.694 256.366 411.694 257.443C411.694 258.887 411.12 260.272 410.098 261.293C409.076 262.314 407.69 262.887 406.245 262.887V262.887Z" fill="black"/>
<path d="M372.192 241.789H406.245V275.469C406.245 276.645 405.777 277.772 404.945 278.604C404.113 279.435 402.985 279.902 401.809 279.902H376.629C375.452 279.902 374.324 279.435 373.492 278.604C372.66 277.772 372.192 276.645 372.192 275.469V241.789Z" fill="#FF0054"/>
<path d="M442 279.902H0V294.875H442V279.902Z" fill="#E0E0E0"/>
<g opacity="0.7">
<path opacity="0.7" d="M290.728 179.72C285.99 162.537 259.134 149.989 238.926 147.207C238.929 147.08 238.936 146.954 238.936 146.827V132.118C238.957 132.11 238.98 132.103 239.001 132.095V131.538C246.173 128.872 252.644 124.613 257.926 119.08C263.208 113.548 267.163 106.889 269.49 99.6046C270.739 97.3481 271.826 95.0058 272.744 92.5954C274.901 91.8105 276.53 88.2556 276.53 83.9842C276.538 82.5232 276.333 81.0688 275.921 79.6669C276.186 77.4914 276.321 75.3022 276.326 73.1107C276.334 65.4499 274.73 57.8728 271.619 50.8714C268.507 43.8699 263.957 37.6006 258.264 32.4701C258.433 31.5901 258.49 30.6923 258.435 29.7979C257.977 22.738 250.432 17.9416 243.359 17.6208C245.227 15.503 246.456 12.8988 246.901 10.1109C247.347 7.32306 246.991 4.4661 245.876 1.87216C241.367 8.43746 232.109 9.13535 224.14 9.18698C227.579 7.85635 229.126 3.09553 227.126 0C218.798 11.1551 202.563 13.2208 192.658 23.0041C190.5 25.144 188.691 27.609 187.298 30.3093C180.86 35.4341 175.663 41.9444 172.093 49.3551C168.523 56.7658 166.672 64.8859 166.678 73.1107C166.682 75.2823 166.815 77.4518 167.075 79.6078C166.65 81.0276 166.438 82.5024 166.447 83.9842C166.447 88.2753 168.091 91.8411 170.263 92.604C171.184 95.0227 172.276 97.3728 173.531 99.6364C175.851 106.878 179.779 113.502 185.022 119.012C190.265 124.523 196.687 128.777 203.807 131.457V146.827C203.807 146.945 203.814 147.062 203.816 147.18C183.532 149.914 156.461 162.561 151.766 179.882C147.711 194.84 143.383 211.268 141.229 220.913C159.688 233.874 198.419 241.484 222.692 241.484C245.755 241.484 283.449 234.615 301.364 222.814C299.423 212.216 294.959 195.067 290.728 179.72Z" fill="url(#paint1_linear)"/>
</g>
<path d="M222.643 237.218C244.89 237.218 281.253 230.592 298.534 219.207C296.662 208.984 292.356 192.441 288.274 177.636C283.076 158.781 250.269 145.71 230.699 145.71H211.84C192.209 145.71 159.355 158.857 154.222 177.792C150.311 192.222 146.136 208.069 144.059 217.373C161.865 229.876 199.227 237.218 222.643 237.218Z" fill="#FF0054"/>
<path d="M221.494 127.644C250.703 127.644 274.381 103.982 274.381 74.7938C274.381 45.6054 250.703 21.9434 221.494 21.9434C192.286 21.9434 168.607 45.6054 168.607 74.7938C168.607 103.982 192.286 127.644 221.494 127.644Z" fill="#72351C"/>
<path opacity="0.1" d="M204.425 118.814H238.312V145.905C238.312 150.396 236.527 154.702 233.349 157.878C230.172 161.053 225.862 162.837 221.369 162.837H221.368C216.875 162.837 212.565 161.053 209.388 157.878C206.21 154.702 204.425 150.396 204.425 145.905V118.814H204.425Z" fill="black"/>
<path d="M209.285 117.559H233.451C234.741 117.559 235.977 118.071 236.889 118.982C237.8 119.893 238.312 121.129 238.312 122.417V144.651C238.312 149.141 236.527 153.448 233.349 156.624C230.172 159.799 225.862 161.583 221.369 161.583H221.368C216.875 161.583 212.565 159.799 209.387 156.624C206.21 153.448 204.425 149.141 204.425 144.651V122.417C204.425 121.129 204.937 119.893 205.848 118.982C206.76 118.071 207.996 117.559 209.285 117.559V117.559Z" fill="#FDA57D"/>
<path opacity="0.1" d="M204.487 131.601C215.409 135.678 227.431 135.712 238.375 131.694V127.534H204.487V131.601Z" fill="black"/>
<path d="M221.495 133.868C248.32 133.868 270.067 112.137 270.067 85.3294C270.067 58.5222 248.32 36.7908 221.495 36.7908C194.669 36.7908 172.923 58.5222 172.923 85.3294C172.923 112.137 194.669 133.868 221.495 133.868Z" fill="#FDA57D"/>
<path opacity="0.1" d="M186.896 41.1783C186.896 41.1783 207.367 82.7011 265.111 58.5812L251.668 37.5145L227.837 28.9657L186.896 41.1783Z" fill="black"/>
<path d="M186.896 40.5677C186.896 40.5677 207.367 82.0905 265.111 57.9707L251.668 36.9039L227.837 28.3551L186.896 40.5677Z" fill="#72351C"/>
<path d="M186.715 37.7624C188.095 33.4924 190.48 29.6156 193.67 26.4578C203.225 17.0201 218.886 15.0275 226.92 4.26654C228.849 7.25271 227.357 11.8453 224.04 13.1289C231.727 13.0791 240.658 12.4059 245.008 6.07255C246.084 8.57483 246.426 11.3308 245.997 14.0202C245.567 16.7095 244.382 19.2217 242.58 21.2647C249.402 21.5742 256.681 26.201 257.122 33.0115C257.416 37.5486 254.569 41.8444 250.838 44.4464C247.107 47.0484 242.593 48.2429 238.15 49.2218C225.181 52.0794 178.252 64.0566 186.715 37.7624Z" fill="#72351C"/>
<path d="M270.064 85.7543H268.777L243.724 108.042C219.587 96.7456 201.867 108.042 201.867 108.042L175.592 86.6702L172.942 87.0029C173.302 99.7421 178.66 111.829 187.861 120.654C197.062 129.479 209.367 134.333 222.119 134.169C234.871 134.005 247.046 128.836 256.017 119.778C264.988 110.719 270.033 98.4985 270.064 85.7543V85.7543ZM221.42 116.591C211.971 116.591 204.311 114.677 204.311 112.317C204.311 109.956 211.971 108.042 221.42 108.042C230.87 108.042 238.53 109.956 238.53 112.317C238.53 114.677 230.87 116.591 221.42 116.591Z" fill="#72351C"/>
<path d="M172.903 93.7492C175.398 93.7492 177.421 89.9588 177.421 85.2832C177.421 80.6075 175.398 76.8171 172.903 76.8171C170.408 76.8171 168.385 80.6075 168.385 85.2832C168.385 89.9588 170.408 93.7492 172.903 93.7492Z" fill="#FDA57D"/>
<path d="M270.06 93.7492C272.556 93.7492 274.579 89.9588 274.579 85.2832C274.579 80.6075 272.556 76.8171 270.06 76.8171C267.565 76.8171 265.542 80.6075 265.542 85.2832C265.542 89.9588 267.565 93.7492 270.06 93.7492Z" fill="#FDA57D"/>
<g opacity="0.7">
<path opacity="0.7" d="M308.387 171.736H133.613C129.969 171.736 127.016 174.687 127.016 178.328V273.309C127.016 276.95 129.969 279.902 133.613 279.902H308.387C312.031 279.902 314.985 276.95 314.985 273.309V178.328C314.985 174.687 312.031 171.736 308.387 171.736Z" fill="url(#paint2_linear)"/>
</g>
<path d="M299.37 173.731H142.631C135.887 173.731 130.421 179.194 130.421 185.933V267.701C130.421 274.439 135.887 279.902 142.631 279.902H299.37C306.113 279.902 311.58 274.439 311.58 267.701V185.933C311.58 179.194 306.113 173.731 299.37 173.731Z" fill="#1D1B1B"/>
<path d="M221 232.942C224.385 232.942 227.129 230.199 227.129 226.817C227.129 223.434 224.385 220.691 221 220.691C217.614 220.691 214.87 223.434 214.87 226.817C214.87 230.199 217.614 232.942 221 232.942Z" fill="white"/>
<path d="M423.271 294.875H18.7285V301H423.271V294.875Z" fill="#E0E0E0"/>
<path opacity="0.1" d="M423.271 294.875H18.7285V296.917H423.271V294.875Z" fill="black"/>
<path opacity="0.1" d="M400.116 241.789V273.266C400.116 275.026 399.416 276.714 398.171 277.958C396.926 279.203 395.237 279.902 393.476 279.902H396.881C398.642 279.902 400.331 279.203 401.576 277.958C402.821 276.714 403.521 275.026 403.521 273.266V241.789H400.116Z" fill="black"/>
<path d="M378.913 216.42C378.339 216.518 377.691 216.673 377.409 217.183C376.962 217.992 377.772 218.904 378.511 219.46C379.875 220.487 381.314 221.497 382.241 222.93C383.169 224.364 383.46 226.365 382.446 227.739C381.122 229.533 377.963 229.919 377.658 232.127C377.461 233.545 378.688 234.755 379.931 235.466C382.998 237.222 386.952 237.69 389.174 240.438C390.093 238.549 392.149 237.458 394.198 236.991C396.247 236.525 398.376 236.56 400.454 236.244C401.124 236.142 401.88 235.937 402.18 235.329C402.76 234.151 401.105 232.738 401.677 231.556C402.111 230.656 403.389 230.726 404.321 230.365C405.84 229.778 406.467 227.825 406.036 226.256C405.604 224.687 404.387 223.46 403.106 222.455C399.656 219.745 395.506 218.152 391.31 217.005C389.358 216.472 387.066 215.636 385.039 215.555C383.082 215.477 380.85 216.088 378.913 216.42Z" fill="#EEEEEE"/>
<defs>
<linearGradient id="paint0_linear" x1="393.646" y1="281.717" x2="393.646" y2="239.975" gradientUnits="userSpaceOnUse">
<stop stop-color="#808080" stop-opacity="0.25"/>
<stop offset="0.53514" stop-color="#808080" stop-opacity="0.12"/>
<stop offset="1" stop-color="#808080" stop-opacity="0.1"/>
</linearGradient>
<linearGradient id="paint1_linear" x1="96326.2" y1="156990" x2="96326.2" y2="28736.6" gradientUnits="userSpaceOnUse">
<stop stop-color="#808080" stop-opacity="0.25"/>
<stop offset="0.53514" stop-color="#808080" stop-opacity="0.12"/>
<stop offset="1" stop-color="#808080" stop-opacity="0.1"/>
</linearGradient>
<linearGradient id="paint2_linear" x1="91427.4" y1="66758.8" x2="91427.4" y2="41026.6" gradientUnits="userSpaceOnUse">
<stop stop-color="#808080" stop-opacity="0.25"/>
<stop offset="0.53514" stop-color="#808080" stop-opacity="0.12"/>
<stop offset="1" stop-color="#808080" stop-opacity="0.1"/>
</linearGradient>
</defs>
</svg>
