<svg width="41" height="41" viewBox="0 0 41 41" fill="none" xmlns="http://www.w3.org/2000/svg">
<g clip-path="url(#clip0)">
<path d="M40.2996 20.2726C40.2757 16.4272 39.1521 12.6689 37.0612 9.44159C34.9704 6.21424 31.9997 3.65257 28.4999 2.05906C25.0002 0.46555 21.1176 -0.0932505 17.3105 0.448642C13.5034 0.990534 9.93091 2.61049 7.0148 5.11722C4.09868 7.62396 1.96075 10.9128 0.853453 14.5953C-0.253848 18.2779 -0.284275 22.2004 0.765765 25.8997C1.81581 29.5991 3.90246 32.9206 6.77934 35.4723C9.65621 38.024 13.2032 39.6992 17.0014 40.3V26.133H11.8825V20.2726H17.0014V15.8065C17.0014 10.7287 20.0078 7.91981 24.6124 7.91981C26.1246 7.94083 27.6332 8.0731 29.126 8.31555V13.299H26.5815C24.0829 13.299 23.2978 14.8619 23.2978 16.465V20.2701H28.8866L27.9928 26.1306H23.2978V40.3C28.0506 39.5292 32.3729 37.0895 35.4889 33.419C38.6049 29.7484 40.3105 25.0874 40.2996 20.2726V20.2726Z" fill="#0D56DB"/>
</g>
<defs>
<clipPath id="clip0">
<rect width="40.3" height="40.3" fill="white"/>
</clipPath>
</defs>
</svg>
