<svg width="652" height="750" viewBox="0 0 652 750" fill="none" xmlns="http://www.w3.org/2000/svg">
<path d="M-86.4111 580.76C-86.4111 580.76 252.185 298.27 447.196 580.76Z" fill="#F2F2F2"/>
<path d="M469.209 750C555.82 750 626.032 739.062 626.032 725.568C626.032 712.075 555.82 701.137 469.209 701.137C382.598 701.137 312.386 712.075 312.386 725.568C312.386 739.062 382.598 750 469.209 750Z" fill="#F2F2F2"/>
<path d="M494.667 740.838C581.278 740.838 651.49 729.9 651.49 716.406C651.49 702.913 581.278 691.975 494.667 691.975C408.056 691.975 337.844 702.913 337.844 716.406C337.844 729.9 408.056 740.838 494.667 740.838Z" stroke="#232329" stroke-miterlimit="10"/>
<path d="M561.356 463.641C563.658 464.478 566.122 464.768 568.556 464.49C570.989 464.212 573.324 463.373 575.377 462.038C577.431 460.704 579.146 458.911 580.388 456.801C581.63 454.691 582.365 452.322 582.535 449.879C582.704 447.437 582.304 444.989 581.366 442.727C580.427 440.466 578.976 438.453 577.127 436.848C575.278 435.243 573.081 434.089 570.71 433.477C568.338 432.866 565.857 432.813 563.462 433.324L563.858 441.46L560.007 434.487C556.228 436.262 553.308 439.465 551.89 443.391C551.386 444.766 551.08 446.206 550.98 447.667C550.737 451.095 551.618 454.509 553.491 457.392C555.363 460.274 558.124 462.468 561.356 463.641V463.641Z" fill="#57B894"/>
<path d="M580.411 558.01C579.051 551.09 584.942 544.955 590.76 540.968C596.578 536.981 603.377 533.063 605.362 526.296C608.215 516.571 599.716 507.665 593.102 499.984C588.194 494.284 583.98 488.023 580.547 481.332C579.054 478.703 578.038 475.832 577.544 472.85C577.023 468.539 578.408 464.25 579.804 460.138C584.453 446.44 589.425 432.857 594.717 419.388" stroke="#232329" stroke-miterlimit="10"/>
<path d="M562.008 461.546C564.309 462.383 566.774 462.673 569.207 462.395C571.64 462.117 573.976 461.278 576.029 459.943C578.082 458.609 579.798 456.816 581.04 454.706C582.282 452.596 583.016 450.227 583.186 447.784C583.356 445.342 582.956 442.894 582.017 440.632C581.079 438.371 579.628 436.358 577.779 434.753C575.929 433.148 573.733 431.994 571.361 431.383C568.99 430.771 566.509 430.718 564.114 431.229L564.509 439.365L560.658 432.392C556.879 434.167 553.959 437.37 552.541 441.296C552.037 442.671 551.731 444.111 551.631 445.572C551.388 449 552.27 452.415 554.142 455.297C556.015 458.18 558.776 460.373 562.008 461.546V461.546Z" stroke="#232329" stroke-miterlimit="10"/>
<path d="M578.477 416.578C579.381 414.087 580.897 411.863 582.886 410.111C584.875 408.359 587.273 407.136 589.859 406.554L591.161 414.289L593.575 406.165C596.927 406.215 600.176 407.328 602.854 409.344C605.531 411.36 607.498 414.175 608.471 417.381C609.445 420.588 609.373 424.02 608.268 427.183C607.162 430.347 605.079 433.077 602.32 434.98C599.561 436.883 596.269 437.86 592.918 437.77C589.567 437.681 586.331 436.529 583.678 434.481C581.025 432.433 579.091 429.596 578.157 426.378C577.222 423.16 577.334 419.728 578.478 416.578H578.477Z" fill="#57B894"/>
<path d="M579.346 413.785C580.249 411.294 581.765 409.07 583.754 407.318C585.743 405.566 588.141 404.343 590.728 403.761L592.03 411.496L594.444 403.372C597.795 403.422 601.044 404.535 603.722 406.551C606.399 408.567 608.367 411.381 609.34 414.588C610.313 417.794 610.241 421.227 609.136 424.39C608.03 427.554 605.947 430.284 603.188 432.187C600.429 434.09 597.137 435.067 593.786 434.977C590.435 434.888 587.2 433.736 584.546 431.688C581.893 429.64 579.96 426.803 579.025 423.585C578.09 420.367 578.202 416.935 579.346 413.785V413.785Z" stroke="#232329" stroke-miterlimit="10"/>
<path d="M590.325 500.141C593.976 501.464 597.985 501.399 601.591 499.957C605.196 498.515 608.144 495.798 609.874 492.323C611.603 488.847 611.993 484.857 610.969 481.113C609.945 477.369 607.578 474.132 604.32 472.02L602.465 478.263L601.15 470.437C601.137 470.431 601.124 470.426 601.11 470.422C599.158 469.714 597.085 469.397 595.011 469.49C592.937 469.583 590.901 470.083 589.02 470.962C587.139 471.842 585.449 473.083 584.048 474.615C582.647 476.147 581.561 477.939 580.853 479.891C580.145 481.842 579.828 483.914 579.921 485.988C580.014 488.061 580.514 490.097 581.394 491.977C582.274 493.857 583.515 495.546 585.047 496.947C586.58 498.348 588.373 499.433 590.325 500.141V500.141Z" fill="#57B894"/>
<path d="M591.078 497.312C594.729 498.635 598.738 498.57 602.344 497.128C605.949 495.686 608.897 492.969 610.627 489.493C612.356 486.018 612.746 482.028 611.722 478.284C610.698 474.54 608.331 471.303 605.073 469.191L603.218 475.434L601.903 467.608C601.89 467.602 601.877 467.597 601.863 467.593C597.921 466.163 593.572 466.357 589.773 468.133C585.974 469.909 583.036 473.121 581.606 477.062C580.176 481.003 580.37 485.35 582.147 489.148C583.923 492.945 587.136 495.882 591.078 497.312V497.312Z" stroke="#232329" stroke-miterlimit="10"/>
<path d="M573.863 526.393C574.491 529.963 576.327 533.208 579.064 535.586C581.802 537.963 585.274 539.327 588.898 539.449C592.521 539.571 596.077 538.443 598.968 536.256C601.859 534.068 603.91 530.953 604.777 527.433C605.643 523.914 605.273 520.203 603.727 516.924C602.182 513.645 599.555 510.997 596.289 509.424C593.022 507.851 589.314 507.448 585.785 508.284C582.257 509.12 579.124 511.143 576.91 514.014L583.956 524.615L574.329 518.988C573.583 521.383 573.423 523.923 573.863 526.393V526.393Z" fill="#57B894"/>
<path d="M574.514 524.298C575.142 527.868 576.978 531.114 579.716 533.491C582.453 535.868 585.925 537.232 589.549 537.354C593.173 537.476 596.728 536.349 599.62 534.161C602.511 531.973 604.561 528.858 605.428 525.339C606.294 521.819 605.924 518.108 604.378 514.829C602.833 511.55 600.207 508.902 596.94 507.329C593.673 505.756 589.965 505.354 586.437 506.189C582.908 507.025 579.775 509.048 577.562 511.919L584.607 522.52L574.98 516.894C574.234 519.289 574.074 521.828 574.514 524.298V524.298Z" stroke="#232329" stroke-miterlimit="10"/>
<path d="M558.455 567.383C558.455 567.383 572.409 561.916 576.615 558.922C580.82 555.929 598.08 552.354 599.123 557.155C600.166 561.956 620.094 581.034 604.339 581.161C588.585 581.288 567.734 583.745 563.536 581.189C559.339 578.633 558.455 567.383 558.455 567.383Z" fill="#131312"/>
<path opacity="0.2" d="M604.621 579.489C588.866 579.617 568.015 582.073 563.817 579.518C560.621 577.571 559.347 570.587 558.921 567.364C558.626 567.377 558.455 567.383 558.455 567.383C558.455 567.383 559.339 578.633 563.536 581.189C567.734 583.745 588.585 581.288 604.339 581.161C608.887 581.124 610.458 579.507 610.372 577.111C609.74 578.558 608.005 579.462 604.621 579.489Z" fill="black"/>
<path d="M69.0371 323.719H32.0727C25.4078 323.719 20.0049 329.12 20.0049 335.783V569.205C20.0049 575.868 25.4078 581.269 32.0727 581.269H69.0371C75.7019 581.269 81.1049 575.868 81.1049 569.205V335.783C81.1049 329.12 75.7019 323.719 69.0371 323.719Z" fill="#4093E9"/>
<path d="M185.127 256.532H148.163C141.498 256.532 136.095 261.933 136.095 268.596V569.205C136.095 575.868 141.498 581.269 148.163 581.269H185.127C191.792 581.269 197.195 575.868 197.195 569.205V268.596C197.195 261.933 191.792 256.532 185.127 256.532Z" fill="#4093E9"/>
<path d="M301.217 192.399H264.252C257.588 192.399 252.185 197.8 252.185 204.463V569.205C252.185 575.868 257.588 581.269 264.252 581.269H301.217C307.882 581.269 313.285 575.868 313.285 569.205V204.463C313.285 197.8 307.882 192.399 301.217 192.399Z" fill="#4093E9"/>
<path d="M417.307 80.4208H380.342C373.677 80.4208 368.274 85.8219 368.274 92.4844V569.205C368.274 575.868 373.677 581.269 380.342 581.269H417.307C423.971 581.269 429.374 575.868 429.374 569.205V92.4844C429.374 85.8219 423.971 80.4208 417.307 80.4208Z" fill="#4093E9"/>
<path d="M77.1836 315.575H40.2192C33.5543 315.575 28.1514 320.976 28.1514 327.639V561.062C28.1514 567.724 33.5543 573.125 40.2192 573.125H77.1836C83.8484 573.125 89.2514 567.724 89.2514 561.062V327.639C89.2514 320.976 83.8484 315.575 77.1836 315.575Z" stroke="#232329" stroke-miterlimit="10"/>
<path d="M193.273 248.388H156.309C149.644 248.388 144.241 253.789 144.241 260.452V561.062C144.241 567.724 149.644 573.125 156.309 573.125H193.273C199.938 573.125 205.341 567.724 205.341 561.062V260.452C205.341 253.789 199.938 248.388 193.273 248.388Z" stroke="#232329" stroke-miterlimit="10"/>
<path d="M309.364 184.255H272.4C265.735 184.255 260.332 189.656 260.332 196.319V561.061C260.332 567.724 265.735 573.125 272.4 573.125H309.364C316.029 573.125 321.432 567.724 321.432 561.061V196.319C321.432 189.656 316.029 184.255 309.364 184.255Z" stroke="#232329" stroke-miterlimit="10"/>
<path d="M425.454 72.2769H388.49C381.825 72.2769 376.422 77.6779 376.422 84.3405V561.062C376.422 567.724 381.825 573.125 388.49 573.125H425.454C432.119 573.125 437.522 567.724 437.522 561.062V84.3405C437.522 77.6779 432.119 72.2769 425.454 72.2769Z" stroke="#232329" stroke-miterlimit="10"/>
<path d="M618.785 581.778H-258" stroke="#232329" stroke-miterlimit="10"/>
<path d="M563.493 484.129C563.493 484.129 573.076 518.617 560.938 523.727C548.799 528.836 552.632 485.406 552.632 485.406L563.493 484.129Z" fill="#A0616A"/>
<path d="M476.603 705.11C476.603 705.11 467.659 704.471 464.464 706.387C463.508 706.946 462.442 707.293 461.339 707.403C460.237 707.513 459.123 707.385 458.075 707.026C458.075 707.026 444.02 705.749 449.131 712.774C454.242 719.799 459.353 722.354 459.353 725.547C459.353 728.741 480.436 728.741 481.075 725.547C481.714 722.354 482.353 705.749 481.075 705.11C479.797 704.471 476.603 705.11 476.603 705.11Z" fill="#131312"/>
<path d="M500.242 705.11C500.242 705.11 509.187 704.471 512.381 706.387C513.338 706.946 514.403 707.293 515.506 707.403C516.609 707.513 517.722 707.385 518.77 707.026C518.77 707.026 532.826 705.749 527.715 712.774C522.604 719.799 517.492 722.354 517.492 725.547C517.492 728.741 496.409 728.741 495.77 725.547C495.131 722.354 494.492 705.749 495.77 705.11C497.048 704.471 500.242 705.11 500.242 705.11Z" fill="#131312"/>
<path d="M450.409 477.104C450.409 477.104 445.936 578.014 448.492 583.123C451.047 588.233 459.992 674.454 458.714 679.563C457.436 684.672 451.047 705.749 458.714 708.942C466.381 712.135 482.992 708.942 482.992 708.942C482.992 708.942 487.464 683.395 485.548 669.983C483.631 656.571 482.992 600.367 482.992 600.367L495.77 541.61L500.242 597.174C500.242 597.174 501.52 673.176 492.575 688.504C483.631 703.833 495.77 710.219 495.77 710.219C495.77 710.219 520.048 713.413 522.603 712.774C525.159 712.135 520.687 687.227 522.603 676.37C524.52 665.512 528.992 604.838 532.826 590.149C536.659 575.459 558.381 493.709 542.409 477.104C526.437 460.498 450.409 477.104 450.409 477.104Z" fill="#232329"/>
<path d="M497.048 273.367C509.398 273.367 519.409 263.359 519.409 251.013C519.409 238.668 509.398 228.66 497.048 228.66C484.698 228.66 474.687 238.668 474.687 251.013C474.687 263.359 484.698 273.367 497.048 273.367Z" fill="#A0616A"/>
<path d="M480.437 261.232C480.437 261.232 484.27 291.888 482.353 292.527C480.436 293.166 516.215 292.527 516.215 292.527C516.215 292.527 509.187 274.005 516.215 259.316L480.437 261.232Z" fill="#A0616A"/>
<path d="M480.437 286.14C480.437 286.14 496.008 270.812 514.417 286.14L515.609 290.709L505.992 290.611H480.437V286.14Z" fill="#F2F2F2"/>
<path d="M556.465 482.213C554.989 482.507 551.373 483.107 546.658 483.822C530.961 486.192 503.143 489.781 502.159 487.322C500.882 484.129 496.409 472.633 493.215 477.742C490.02 482.852 491.937 487.322 478.52 487.961C469.391 488.395 456.121 487.054 448.773 484.946C445.323 483.956 443.177 482.801 443.381 481.574C444.02 477.742 451.048 404.933 451.048 397.908C451.048 390.883 453.604 357.033 453.604 357.033L435.242 320.916L433.798 318.074C433.798 318.074 435.715 311.048 441.465 309.771C447.215 308.494 474.687 292.527 474.687 292.527C474.687 292.527 480.437 283.586 491.298 284.224C502.159 284.863 504.715 280.392 519.409 292.527C519.409 292.527 537.298 300.191 543.687 304.023C550.076 307.855 557.104 307.855 557.743 314.242C557.871 315.526 557.174 317.997 555.98 321.12C551.603 332.565 540.544 352.818 538.813 355.973C538.659 356.247 538.576 356.394 538.576 356.394C538.576 356.394 538.244 367.878 538.595 381.322V381.354C538.94 394.248 539.912 408.944 542.41 417.068C547.521 433.674 562.854 480.936 556.465 482.213Z" fill="#131312"/>
<path d="M526.077 241.837C525.63 239.802 524.77 237.881 523.55 236.192C523.063 231.521 521.505 227.025 518.995 223.055C518.012 221.195 516.616 219.584 514.914 218.346C512.965 217.224 510.741 216.67 508.494 216.746C508.086 216.739 507.353 216.863 506.693 216.893C506.27 216.762 505.844 216.646 505.417 216.536C505.167 215.981 504.673 214.365 504.535 214.474L502.672 215.954C501.884 215.817 501.093 215.711 500.298 215.626C500.008 214.801 499.719 213.976 499.43 213.151C498.96 213.889 498.549 214.662 498.199 215.464C497.408 215.425 496.616 215.411 495.824 215.423L494.241 213.902C494.147 214.326 493.932 214.714 493.622 215.018C493.312 215.322 492.92 215.529 492.494 215.613C491.765 215.688 491.039 215.785 490.316 215.902C490.257 215.901 490.197 215.902 490.14 215.9C486.24 215.803 482.044 215.628 478.783 217.768C477.257 218.816 476.015 220.225 475.168 221.87C474.769 222.141 474.368 222.411 473.98 222.698C472.672 223.59 471.539 224.714 470.635 226.013C469.979 227.134 469.48 228.341 469.155 229.598C467.911 233.384 467.334 237.357 467.451 241.339C467.585 245.349 469.098 249.191 471.736 252.214C473.409 254.011 475.535 255.337 477.21 257.131C480.658 260.826 481.304 265.978 484.254 269.887C487.374 274.022 493.068 276.743 498.068 277.523C501.074 277.975 504.141 277.83 507.091 277.095C510.041 276.359 512.816 275.048 515.258 273.237C516.43 272.421 517.425 271.378 518.185 270.169C519.92 267.168 519.185 263.396 519.829 259.99C521.037 253.606 527.132 248.248 526.077 241.837Z" fill="#232329"/>
<path d="M440.825 486.045C440.825 486.045 450.409 520.533 438.27 525.643C426.131 530.752 429.964 487.322 429.964 487.322L440.825 486.045Z" fill="#A0616A"/>
<path opacity="0.1" d="M452.319 407.782C452.319 407.782 448.128 469.963 448.773 484.946C445.323 483.956 443.176 482.801 443.381 481.574C444.02 477.742 451.047 404.933 451.047 397.908C451.047 390.883 453.603 357.033 453.603 357.033L435.241 320.916C435.535 319.128 435.714 318.074 435.714 318.074L444.978 337.553L458.075 341.066L452.319 407.782Z" fill="black"/>
<path d="M438.27 314.242L433.797 318.074C433.797 318.074 428.047 351.924 428.686 360.226C429.325 368.529 415.269 494.348 426.131 494.348C436.992 494.348 449.131 492.432 447.214 487.961C445.297 483.49 450.405 407.782 450.405 407.782L456.159 341.066L438.27 314.242Z" fill="#131312"/>
<path opacity="0.1" d="M555.98 321.12C551.603 332.565 540.544 352.818 538.812 355.973C538.864 347.804 538.896 342.024 538.896 342.024L552.312 314.561L555.187 312.326C555.187 312.326 555.494 315.704 555.98 321.12Z" fill="black"/>
<path opacity="0.1" d="M556.465 482.213C554.989 482.507 551.373 483.107 546.658 483.822C544.211 465.735 537.669 413.722 538.084 408.823C538.289 406.409 538.461 394.478 538.595 381.354C538.941 394.248 539.912 408.944 542.41 417.068C547.521 433.674 562.854 480.935 556.465 482.213Z" fill="black"/>
<path d="M548.16 309.771L557.743 312.326C557.743 312.326 564.132 383.219 564.771 395.353C565.41 407.488 573.077 482.213 571.799 485.406C570.521 488.6 550.715 493.07 550.076 489.877C549.438 486.684 540.15 414.626 540.641 408.822C541.132 403.017 537.938 342.982 537.938 342.982L548.16 309.771Z" fill="#131312"/>
<path d="M-57.8975 350.696L58.1925 253.987L175.301 187.818L291.391 123.685L407.481 11.7068" stroke="#232329" stroke-miterlimit="10"/>
<path d="M55.1372 270.275C61.3237 270.275 66.3389 265.261 66.3389 259.077C66.3389 252.893 61.3237 247.879 55.1372 247.879C48.9507 247.879 43.9355 252.893 43.9355 259.077C43.9355 265.261 48.9507 270.275 55.1372 270.275Z" fill="#F2F2F2"/>
<path d="M172.246 204.106C178.432 204.106 183.447 199.092 183.447 192.908C183.447 186.724 178.432 181.71 172.246 181.71C166.059 181.71 161.044 186.724 161.044 192.908C161.044 199.092 166.059 204.106 172.246 204.106Z" fill="#F2F2F2"/>
<path d="M288.335 139.973C294.522 139.973 299.537 134.959 299.537 128.775C299.537 122.591 294.522 117.577 288.335 117.577C282.149 117.577 277.134 122.591 277.134 128.775C277.134 134.959 282.149 139.973 288.335 139.973Z" fill="#F2F2F2"/>
<path d="M404.426 27.9945C410.613 27.9945 415.628 22.9811 415.628 16.7967C415.628 10.6123 410.613 5.59888 404.426 5.59888C398.24 5.59888 393.225 10.6123 393.225 16.7967C393.225 22.9811 398.24 27.9945 404.426 27.9945Z" fill="#F2F2F2"/>
<path d="M58.1929 265.185C64.3794 265.185 69.3946 260.172 69.3946 253.987C69.3946 247.803 64.3794 242.789 58.1929 242.789C52.0064 242.789 46.9912 247.803 46.9912 253.987C46.9912 260.172 52.0064 265.185 58.1929 265.185Z" stroke="#232329" stroke-miterlimit="10"/>
<path d="M175.301 199.016C181.488 199.016 186.503 194.002 186.503 187.818C186.503 181.634 181.488 176.62 175.301 176.62C169.115 176.62 164.1 181.634 164.1 187.818C164.1 194.002 169.115 199.016 175.301 199.016Z" stroke="#232329" stroke-miterlimit="10"/>
<path d="M291.391 134.883C297.578 134.883 302.593 129.87 302.593 123.685C302.593 117.501 297.578 112.487 291.391 112.487C285.205 112.487 280.189 117.501 280.189 123.685C280.189 129.87 285.205 134.883 291.391 134.883Z" stroke="#232329" stroke-miterlimit="10"/>
<path d="M407.481 22.9047C413.668 22.9047 418.683 17.8913 418.683 11.7069C418.683 5.52247 413.668 0.509033 407.481 0.509033C401.294 0.509033 396.279 5.52247 396.279 11.7069C396.279 17.8913 401.294 22.9047 407.481 22.9047Z" stroke="#232329" stroke-miterlimit="10"/>
</svg>
