<svg width="812" height="883" viewBox="0 0 812 883" fill="none" xmlns="http://www.w3.org/2000/svg">
<g clip-path="url(#clip0)">
<path d="M-56.2412 683.106C-56.2412 683.106 341.888 350.833 571.186 683.106H-56.2412Z" fill="#F2F2F2"/>
<path d="M597.07 882.17C698.91 882.17 781.467 869.304 781.467 853.433C781.467 837.562 698.91 824.696 597.07 824.696C495.231 824.696 412.674 837.562 412.674 853.433C412.674 869.304 495.231 882.17 597.07 882.17Z" fill="#F2F2F2"/>
<path d="M627.005 871.394C728.845 871.394 811.402 858.528 811.402 842.657C811.402 826.786 728.845 813.92 627.005 813.92C525.166 813.92 442.608 826.786 442.608 842.657C442.608 858.528 525.166 871.394 627.005 871.394Z" stroke="#232329" stroke-miterlimit="10"/>
<path d="M705.419 545.347C708.125 546.331 711.023 546.673 713.884 546.346C716.745 546.019 719.491 545.031 721.906 543.462C724.32 541.893 726.337 539.784 727.797 537.302C729.258 534.82 730.122 532.033 730.321 529.16C730.521 526.287 730.05 523.408 728.947 520.748C727.843 518.088 726.137 515.721 723.963 513.833C721.789 511.945 719.206 510.587 716.417 509.868C713.629 509.149 710.712 509.087 707.895 509.687L708.361 519.257L703.833 511.055C699.389 513.143 695.956 516.91 694.288 521.528C693.696 523.146 693.336 524.839 693.218 526.558C692.933 530.591 693.969 534.606 696.171 537.997C698.372 541.387 701.619 543.968 705.419 545.347Z" fill="#57B894"/>
<path d="M727.823 656.346C726.225 648.207 733.151 640.992 739.992 636.301C746.833 631.611 754.827 627.003 757.161 619.044C760.516 607.605 750.523 597.129 742.746 588.095C736.975 581.391 732.02 574.026 727.983 566.155C726.228 563.064 725.033 559.687 724.452 556.179C723.839 551.109 725.468 546.063 727.109 541.227C732.577 525.115 738.422 509.138 744.645 493.296" stroke="#232329" stroke-miterlimit="10"/>
<path d="M706.185 542.883C708.891 543.867 711.789 544.209 714.65 543.882C717.511 543.555 720.257 542.567 722.671 540.998C725.086 539.429 727.102 537.32 728.563 534.838C730.023 532.356 730.887 529.569 731.087 526.696C731.286 523.824 730.816 520.944 729.712 518.284C728.609 515.624 726.903 513.257 724.729 511.369C722.554 509.481 719.971 508.124 717.183 507.404C714.394 506.685 711.477 506.623 708.661 507.223L709.126 516.793L704.598 508.591C700.154 510.68 696.721 514.446 695.054 519.064C694.461 520.682 694.101 522.376 693.984 524.094C693.698 528.127 694.735 532.142 696.936 535.533C699.138 538.923 702.385 541.504 706.185 542.883V542.883Z" stroke="#232329" stroke-miterlimit="10"/>
<path d="M725.55 489.991C726.613 487.06 728.395 484.444 730.734 482.384C733.073 480.323 735.893 478.884 738.934 478.2L740.465 487.298L743.303 477.743C747.244 477.801 751.064 479.111 754.212 481.482C757.361 483.853 759.674 487.163 760.818 490.935C761.962 494.706 761.878 498.744 760.578 502.465C759.278 506.186 756.829 509.397 753.585 511.635C750.341 513.873 746.47 515.023 742.53 514.917C738.59 514.812 734.785 513.457 731.666 511.048C728.546 508.64 726.272 505.302 725.173 501.517C724.074 497.732 724.206 493.696 725.551 489.991H725.55Z" fill="#57B894"/>
<path d="M726.572 486.706C727.634 483.775 729.417 481.159 731.755 479.099C734.094 477.038 736.914 475.599 739.955 474.915L741.486 484.013L744.324 474.458C748.265 474.516 752.086 475.825 755.234 478.197C758.382 480.568 760.695 483.878 761.84 487.65C762.984 491.421 762.9 495.459 761.6 499.18C760.3 502.9 757.851 506.112 754.607 508.35C751.363 510.588 747.491 511.737 743.551 511.632C739.611 511.527 735.807 510.172 732.687 507.763C729.567 505.355 727.294 502.017 726.195 498.232C725.095 494.447 725.228 490.411 726.572 486.706V486.706Z" stroke="#232329" stroke-miterlimit="10"/>
<path d="M739.482 588.279C743.774 589.836 748.489 589.759 752.728 588.063C756.967 586.367 760.433 583.171 762.467 579.083C764.501 574.995 764.959 570.302 763.755 565.898C762.551 561.494 759.768 557.687 755.937 555.203L753.756 562.546L752.21 553.341C752.194 553.334 752.179 553.328 752.162 553.323C749.867 552.49 747.43 552.118 744.991 552.227C742.552 552.336 740.158 552.925 737.947 553.959C735.735 554.993 733.748 556.453 732.101 558.255C730.453 560.057 729.177 562.165 728.344 564.461C727.511 566.756 727.139 569.193 727.248 571.632C727.357 574.071 727.946 576.465 728.98 578.677C730.014 580.888 731.474 582.875 733.276 584.522C735.078 586.17 737.186 587.447 739.482 588.279Z" fill="#57B894"/>
<path d="M740.367 584.952C744.659 586.509 749.373 586.432 753.612 584.736C757.851 583.04 761.318 579.843 763.352 575.756C765.386 571.668 765.844 566.975 764.64 562.571C763.436 558.167 760.653 554.36 756.822 551.876L754.641 559.219L753.095 550.013C753.079 550.006 753.064 550 753.047 549.995C748.412 548.314 743.298 548.542 738.831 550.631C734.364 552.72 730.91 556.497 729.229 561.133C727.547 565.768 727.776 570.882 729.865 575.349C731.953 579.816 735.731 583.27 740.367 584.952V584.952Z" stroke="#232329" stroke-miterlimit="10"/>
<path d="M720.124 619.157C720.862 623.357 723.022 627.174 726.24 629.97C729.459 632.766 733.541 634.371 737.802 634.514C742.063 634.658 746.244 633.332 749.644 630.758C753.043 628.185 755.455 624.522 756.473 620.382C757.492 616.242 757.056 611.877 755.239 608.02C753.422 604.163 750.334 601.049 746.493 599.198C742.652 597.348 738.292 596.875 734.143 597.858C729.994 598.841 726.31 601.22 723.708 604.597L731.992 617.066L720.672 610.448C719.795 613.265 719.607 616.252 720.124 619.157Z" fill="#57B894"/>
<path d="M720.89 616.693C721.628 620.893 723.787 624.71 727.006 627.506C730.225 630.302 734.307 631.907 738.568 632.05C742.829 632.194 747.01 630.868 750.409 628.294C753.809 625.721 756.22 622.057 757.239 617.917C758.258 613.777 757.822 609.413 756.005 605.556C754.188 601.699 751.1 598.585 747.259 596.734C743.418 594.884 739.057 594.411 734.909 595.394C730.76 596.377 727.076 598.756 724.473 602.133L732.757 614.602L721.438 607.984C720.56 610.801 720.372 613.788 720.89 616.693V616.693Z" stroke="#232329" stroke-miterlimit="10"/>
<path d="M702.008 667.371C702.008 667.371 718.416 660.941 723.36 657.419C728.305 653.898 748.6 649.694 749.826 655.341C751.053 660.988 774.484 683.428 755.96 683.577C737.436 683.726 712.918 686.616 707.982 683.61C703.047 680.604 702.008 667.371 702.008 667.371Z" fill="#131312"/>
<path opacity="0.2" d="M756.29 681.611C737.766 681.761 713.248 684.651 708.313 681.644C704.554 679.355 703.057 671.14 702.556 667.349C702.209 667.364 702.008 667.371 702.008 667.371C702.008 667.371 703.047 680.604 707.982 683.61C712.918 686.616 737.436 683.726 755.96 683.577C761.307 683.534 763.154 681.631 763.053 678.814C762.31 680.516 760.27 681.579 756.29 681.611Z" fill="black"/>
<path d="M-9.96296 494.518H-53.4266C-61.2633 494.518 -67.6162 500.871 -67.6162 508.708V669.515C-67.6162 677.352 -61.2633 683.704 -53.4266 683.704H-9.96296C-2.12627 683.704 4.22664 677.352 4.22664 669.515V508.708C4.22664 500.871 -2.12627 494.518 -9.96296 494.518Z" fill="#4093E9"/>
<path d="M126.538 380.767H83.0744C75.2377 380.767 68.8848 387.12 68.8848 394.957V669.515C68.8848 677.352 75.2377 683.704 83.0744 683.704H126.538C134.375 683.704 140.728 677.352 140.728 669.515V394.957C140.728 387.12 134.375 380.767 126.538 380.767Z" fill="#4093E9"/>
<path d="M263.04 301.74H219.576C211.74 301.74 205.387 308.093 205.387 315.93V669.515C205.387 677.352 211.74 683.704 219.576 683.704H263.04C270.877 683.704 277.23 677.352 277.23 669.515V315.93C277.23 308.093 270.877 301.74 263.04 301.74Z" fill="#4093E9"/>
<path d="M399.541 226.305H356.077C348.241 226.305 341.888 232.658 341.888 240.495V669.515C341.888 677.352 348.241 683.704 356.077 683.704H399.541C407.378 683.704 413.731 677.352 413.731 669.515V240.495C413.731 232.658 407.378 226.305 399.541 226.305Z" fill="#4093E9"/>
<path d="M536.043 94.5931H492.579C484.743 94.5931 478.39 100.946 478.39 108.783V669.515C478.39 677.352 484.743 683.705 492.579 683.705H536.043C543.88 683.705 550.232 677.352 550.232 669.515V108.783C550.232 100.946 543.88 94.5931 536.043 94.5931Z" fill="#4093E9"/>
<path d="M-0.383865 484.939H-43.8475C-51.6842 484.939 -58.0371 491.292 -58.0371 499.129V659.936C-58.0371 667.772 -51.6842 674.125 -43.8475 674.125H-0.383865C7.45283 674.125 13.8057 667.772 13.8057 659.936V499.129C13.8057 491.292 7.45283 484.939 -0.383865 484.939Z" stroke="#232329" stroke-miterlimit="10"/>
<path d="M136.117 371.188H92.6535C84.8168 371.188 78.4639 377.541 78.4639 385.378V659.936C78.4639 667.773 84.8168 674.125 92.6535 674.125H136.117C143.954 674.125 150.307 667.773 150.307 659.936V385.378C150.307 377.541 143.954 371.188 136.117 371.188Z" stroke="#232329" stroke-miterlimit="10"/>
<path d="M272.619 292.161H229.155C221.319 292.161 214.966 298.514 214.966 306.35V659.936C214.966 667.772 221.319 674.125 229.155 674.125H272.619C280.456 674.125 286.809 667.772 286.809 659.936V306.35C286.809 298.514 280.456 292.161 272.619 292.161Z" stroke="#232329" stroke-miterlimit="10"/>
<path d="M409.12 216.726H365.656C357.82 216.726 351.467 223.079 351.467 230.916V659.936C351.467 667.773 357.82 674.125 365.656 674.125H409.12C416.957 674.125 423.31 667.773 423.31 659.936V230.916C423.31 223.079 416.957 216.726 409.12 216.726Z" stroke="#232329" stroke-miterlimit="10"/>
<path d="M545.622 85.014H502.158C494.322 85.014 487.969 91.3669 487.969 99.2036V659.936C487.969 667.773 494.322 674.125 502.158 674.125H545.622C553.459 674.125 559.812 667.773 559.812 659.936V99.2036C559.812 91.3669 553.459 85.014 545.622 85.014Z" stroke="#232329" stroke-miterlimit="10"/>
<path d="M772.945 684.303H-258" stroke="#232329" stroke-miterlimit="10"/>
<path d="M707.931 569.446C707.931 569.446 719.199 610.012 704.926 616.022C690.652 622.031 695.16 570.948 695.16 570.948L707.931 569.446Z" fill="#A0616A"/>
<path d="M605.765 829.369C605.765 829.369 595.248 828.618 591.492 830.872C590.367 831.53 589.114 831.937 587.817 832.067C586.521 832.196 585.212 832.045 583.979 831.623C583.979 831.623 567.452 830.121 573.462 838.384C579.472 846.648 585.482 849.652 585.482 853.409C585.482 857.165 610.272 857.165 611.023 853.409C611.775 849.652 612.526 830.121 611.023 829.369C609.521 828.618 605.765 829.369 605.765 829.369Z" fill="#131312"/>
<path d="M633.56 829.369C633.56 829.369 644.077 828.618 647.833 830.872C648.958 831.53 650.211 831.937 651.507 832.067C652.803 832.196 654.113 832.045 655.345 831.623C655.345 831.623 671.872 830.121 665.862 838.384C659.853 846.648 653.843 849.652 653.843 853.409C653.843 857.165 629.052 857.165 628.301 853.409C627.55 849.652 626.799 830.121 628.301 829.369C629.803 828.618 633.56 829.369 633.56 829.369Z" fill="#131312"/>
<path d="M574.964 561.182C574.964 561.182 569.706 679.876 572.711 685.886C575.716 691.895 586.233 793.311 584.73 799.32C583.228 805.33 575.716 830.121 584.73 833.877C593.745 837.633 613.277 833.877 613.277 833.877C613.277 833.877 618.535 803.828 616.282 788.052C614.028 772.276 613.277 706.169 613.277 706.169L628.301 637.056L633.56 702.412C633.56 702.412 635.062 791.808 624.545 809.838C614.028 827.867 628.301 835.379 628.301 835.379C628.301 835.379 656.848 839.135 659.853 838.384C662.858 837.633 657.599 808.335 659.853 795.564C662.106 782.794 667.365 711.427 671.872 694.149C676.38 676.871 701.921 580.714 683.141 561.182C664.36 541.65 574.964 561.182 574.964 561.182Z" fill="#232329"/>
<path d="M629.804 321.541C644.325 321.541 656.096 309.77 656.096 295.248C656.096 280.727 644.325 268.956 629.804 268.956C615.283 268.956 603.511 280.727 603.511 295.248C603.511 309.77 615.283 321.541 629.804 321.541Z" fill="#A0616A"/>
<path d="M610.271 307.268C610.271 307.268 614.779 343.327 612.525 344.078C610.271 344.829 652.34 344.078 652.34 344.078C652.34 344.078 644.077 322.293 652.34 305.014L610.271 307.268Z" fill="#A0616A"/>
<path d="M610.271 336.566C610.271 336.566 628.581 318.537 650.226 336.566L651.628 341.94L640.32 341.825H610.271V336.566Z" fill="#F2F2F2"/>
<path d="M699.668 567.192C697.932 567.537 693.681 568.244 688.136 569.085C669.679 571.872 636.971 576.094 635.814 573.202C634.311 569.446 629.053 555.924 625.297 561.933C621.54 567.943 623.794 573.202 608.018 573.953C597.283 574.464 581.68 572.886 573.041 570.407C568.985 569.243 566.461 567.883 566.701 566.441C567.452 561.933 575.716 476.294 575.716 468.03C575.716 459.767 578.721 419.952 578.721 419.952L557.13 377.47L555.433 374.127C555.433 374.127 557.686 365.864 564.447 364.361C571.208 362.859 603.511 344.078 603.511 344.078C603.511 344.078 610.272 333.561 623.043 334.312C635.814 335.063 638.819 329.805 656.097 344.078C656.097 344.078 677.131 353.093 684.643 357.6C692.156 362.107 700.419 362.108 701.17 369.62C701.32 371.13 700.502 374.037 699.097 377.71C693.951 391.172 680.947 414.994 678.911 418.705C678.731 419.028 678.633 419.201 678.633 419.201C678.633 419.201 678.243 432.708 678.656 448.521V448.558C679.062 463.726 680.204 481.011 683.141 490.567C689.151 510.099 707.18 565.689 699.668 567.192Z" fill="#131312"/>
<path d="M663.936 284.455C663.411 282.062 662.399 279.802 660.965 277.815C660.393 272.321 658.56 267.033 655.609 262.363C654.453 260.175 652.812 258.281 650.811 256.825C648.519 255.505 645.904 254.853 643.261 254.943C642.782 254.935 641.92 255.08 641.144 255.115C640.647 254.962 640.146 254.824 639.643 254.695C639.35 254.043 638.769 252.142 638.607 252.271L636.416 254.011C635.49 253.85 634.559 253.725 633.624 253.625C633.284 252.655 632.944 251.685 632.604 250.714C632.052 251.582 631.568 252.492 631.156 253.434C630.226 253.389 629.296 253.373 628.364 253.386L626.502 251.598C626.393 252.097 626.14 252.553 625.775 252.91C625.41 253.267 624.949 253.51 624.448 253.61C623.591 253.698 622.738 253.813 621.888 253.949C621.818 253.949 621.748 253.949 621.68 253.948C617.095 253.833 612.161 253.628 608.327 256.145C606.533 257.377 605.072 259.035 604.076 260.97C603.607 261.289 603.136 261.605 602.68 261.944C601.142 262.993 599.809 264.314 598.747 265.843C597.974 267.161 597.389 268.581 597.006 270.06C595.543 274.512 594.865 279.185 595.003 283.87C595.16 288.587 596.939 293.105 600.041 296.661C602.008 298.774 604.508 300.334 606.477 302.445C610.532 306.79 611.292 312.851 614.76 317.449C618.428 322.312 625.123 325.512 631.003 326.429C634.538 326.962 638.143 326.791 641.612 325.926C645.081 325.061 648.344 323.519 651.215 321.388C652.593 320.429 653.763 319.202 654.656 317.78C656.697 314.251 655.832 309.814 656.59 305.808C658.01 298.298 665.177 291.997 663.936 284.455Z" fill="#232329"/>
<path d="M563.696 571.699C563.696 571.699 574.965 612.266 560.691 618.275C546.418 624.285 550.925 573.202 550.925 573.202L563.696 571.699Z" fill="#A0616A"/>
<path opacity="0.1" d="M577.21 479.644C577.21 479.644 572.282 552.783 573.041 570.407C568.984 569.243 566.46 567.883 566.7 566.441C567.452 561.933 575.715 476.294 575.715 468.03C575.715 459.767 578.72 419.952 578.72 419.952L557.13 377.47C557.475 375.367 557.686 374.127 557.686 374.127L568.579 397.039L583.979 401.171L577.21 479.644Z" fill="black"/>
<path d="M560.691 369.62L555.432 374.127C555.432 374.127 548.671 413.942 549.423 423.708C550.174 433.474 533.647 581.465 546.418 581.465C559.189 581.465 573.462 579.212 571.208 573.953C568.955 568.694 574.96 479.644 574.96 479.644L581.725 401.171L560.691 369.62Z" fill="#131312"/>
<path opacity="0.1" d="M699.097 377.711C693.951 391.173 680.947 414.994 678.911 418.705C678.971 409.097 679.009 402.298 679.009 402.298L694.785 369.995L698.165 367.366C698.165 367.366 698.526 371.34 699.097 377.711Z" fill="black"/>
<path opacity="0.1" d="M699.667 567.192C697.932 567.537 693.68 568.244 688.136 569.085C685.259 547.81 677.566 486.631 678.054 480.869C678.295 478.029 678.498 463.996 678.655 448.558C679.061 463.726 680.203 481.011 683.14 490.567C689.15 510.099 707.18 565.689 699.667 567.192Z" fill="black"/>
<path d="M689.901 364.361L701.17 367.366C701.17 367.366 708.682 450.752 709.433 465.025C710.184 479.299 719.199 567.192 717.697 570.948C716.194 574.704 692.906 579.963 692.155 576.207C691.404 572.45 680.483 487.695 681.061 480.867C681.638 474.04 677.882 403.425 677.882 403.425L689.901 364.361Z" fill="#131312"/>
<path d="M-22.7148 412.498L113.787 298.747L251.485 220.917L387.987 145.482L524.488 13.7699" stroke="#232329" stroke-miterlimit="10"/>
<path d="M110.195 317.905C117.469 317.905 123.366 312.008 123.366 304.733C123.366 297.459 117.469 291.562 110.195 291.562C102.92 291.562 97.0234 297.459 97.0234 304.733C97.0234 312.008 102.92 317.905 110.195 317.905Z" fill="#F2F2F2"/>
<path d="M247.894 240.075C255.168 240.075 261.065 234.178 261.065 226.904C261.065 219.629 255.168 213.732 247.894 213.732C240.62 213.732 234.723 219.629 234.723 226.904C234.723 234.178 240.62 240.075 247.894 240.075Z" fill="#F2F2F2"/>
<path d="M384.395 164.64C391.669 164.64 397.566 158.743 397.566 151.469C397.566 144.194 391.669 138.297 384.395 138.297C377.121 138.297 371.224 144.194 371.224 151.469C371.224 158.743 377.121 164.64 384.395 164.64Z" fill="#F2F2F2"/>
<path d="M520.896 32.928C528.17 32.928 534.067 27.031 534.067 19.7568C534.067 12.4825 528.17 6.58557 520.896 6.58557C513.622 6.58557 507.725 12.4825 507.725 19.7568C507.725 27.031 513.622 32.928 520.896 32.928Z" fill="#F2F2F2"/>
<path d="M113.786 311.918C121.061 311.918 126.958 306.021 126.958 298.747C126.958 291.472 121.061 285.575 113.786 285.575C106.512 285.575 100.615 291.472 100.615 298.747C100.615 306.021 106.512 311.918 113.786 311.918Z" stroke="#232329" stroke-miterlimit="10"/>
<path d="M251.486 234.088C258.76 234.088 264.657 228.191 264.657 220.917C264.657 213.643 258.76 207.746 251.486 207.746C244.211 207.746 238.314 213.643 238.314 220.917C238.314 228.191 244.211 234.088 251.486 234.088Z" stroke="#232329" stroke-miterlimit="10"/>
<path d="M387.987 158.653C395.261 158.653 401.158 152.756 401.158 145.482C401.158 138.207 395.261 132.311 387.987 132.311C380.712 132.311 374.815 138.207 374.815 145.482C374.815 152.756 380.712 158.653 387.987 158.653Z" stroke="#232329" stroke-miterlimit="10"/>
<path d="M524.489 26.9411C531.763 26.9411 537.66 21.0441 537.66 13.7699C537.66 6.49564 531.763 0.598694 524.489 0.598694C517.214 0.598694 511.317 6.49564 511.317 13.7699C511.317 21.0441 517.214 26.9411 524.489 26.9411Z" stroke="#232329" stroke-miterlimit="10"/>
</g>
<defs>
<clipPath id="clip0">
<rect width="1070" height="882.17" fill="white" transform="translate(-258)"/>
</clipPath>
</defs>
</svg>
