<svg width="35" height="41" viewBox="0 0 35 41" fill="none" xmlns="http://www.w3.org/2000/svg">
<g clip-path="url(#clip0)">
<path d="M17.5078 11.099C12.5391 11.099 8.53124 15.1372 8.53124 20.1436C8.53124 25.15 12.5391 29.1882 17.5078 29.1882C22.4765 29.1882 26.4844 25.15 26.4844 20.1436C26.4844 15.1372 22.4765 11.099 17.5078 11.099ZM17.5078 26.0237C14.2969 26.0237 11.6719 23.3867 11.6719 20.1436C11.6719 16.9005 14.2891 14.2635 17.5078 14.2635C20.7266 14.2635 23.3437 16.9005 23.3437 20.1436C23.3437 23.3867 20.7187 26.0237 17.5078 26.0237V26.0237ZM28.9453 10.7291C28.9453 11.9019 28.0078 12.8387 26.8515 12.8387C25.6875 12.8387 24.7578 11.8941 24.7578 10.7291C24.7578 9.56406 25.6953 8.61946 26.8515 8.61946C28.0078 8.61946 28.9453 9.56406 28.9453 10.7291ZM34.8906 12.8702C34.7578 10.0442 34.1172 7.54104 32.0625 5.47866C30.0156 3.41627 27.5312 2.7708 24.7265 2.62911C21.8359 2.4638 13.1719 2.4638 10.2812 2.62911C7.48437 2.76292 5 3.4084 2.94531 5.47078C0.890625 7.53316 0.257812 10.0364 0.117187 12.8623C-0.046875 15.7748 -0.046875 24.5045 0.117187 27.417C0.25 30.243 0.890625 32.7462 2.94531 34.8085C5 36.8709 7.47656 37.5164 10.2812 37.6581C13.1719 37.8234 21.8359 37.8234 24.7265 37.6581C27.5312 37.5243 30.0156 36.8788 32.0625 34.8085C34.1094 32.7462 34.75 30.243 34.8906 27.417C35.0547 24.5045 35.0547 15.7827 34.8906 12.8702V12.8702ZM31.1562 30.5421C30.5469 32.0849 29.3672 33.2736 27.8281 33.8954C25.5234 34.8164 20.0547 34.6039 17.5078 34.6039C14.9609 34.6039 9.48437 34.8085 7.1875 33.8954C5.65625 33.2814 4.47656 32.0928 3.85937 30.5421C2.94531 28.2199 3.15625 22.7098 3.15625 20.1436C3.15625 17.5774 2.95312 12.0594 3.85937 9.74511C4.46875 8.20226 5.64843 7.01363 7.1875 6.39177C9.49218 5.47078 14.9609 5.68332 17.5078 5.68332C20.0547 5.68332 25.5312 5.47866 27.8281 6.39177C29.3594 7.00576 30.539 8.19439 31.1562 9.74511C32.0703 12.0673 31.8594 17.5774 31.8594 20.1436C31.8594 22.7098 32.0703 28.2278 31.1562 30.5421Z" fill="#0D56DB"/>
</g>
<defs>
<clipPath id="clip0">
<rect width="35" height="40.303" fill="white"/>
</clipPath>
</defs>
</svg>
