<svg width="28" height="34" viewBox="0 0 28 34" fill="none" xmlns="http://www.w3.org/2000/svg">
<g clip-path="url(#clip0)">
<path d="M13.689 9.45581C9.8037 9.45581 6.66977 12.7533 6.66977 16.8414C6.66977 20.9295 9.8037 24.227 13.689 24.227C17.5744 24.227 20.7083 20.9295 20.7083 16.8414C20.7083 12.7533 17.5744 9.45581 13.689 9.45581ZM13.689 21.643C11.1782 21.643 9.1256 19.4897 9.1256 16.8414C9.1256 14.1931 11.1721 12.0398 13.689 12.0398C16.206 12.0398 18.2525 14.1931 18.2525 16.8414C18.2525 19.4897 16.1998 21.643 13.689 21.643V21.643ZM22.6326 9.15371C22.6326 10.1115 21.8996 10.8764 20.9954 10.8764C20.0852 10.8764 19.3582 10.105 19.3582 9.15371C19.3582 8.20239 20.0913 7.43105 20.9954 7.43105C21.8996 7.43105 22.6326 8.20239 22.6326 9.15371ZM27.2816 10.9021C27.1777 8.59448 26.6768 6.55043 25.0701 4.86634C23.4696 3.18225 21.5269 2.65517 19.3338 2.53947C17.0734 2.40449 10.2985 2.40449 8.03819 2.53947C5.85116 2.64874 3.90849 3.17583 2.30182 4.85992C0.695151 6.54401 0.20032 8.58806 0.0903577 10.8956C-0.0379317 13.2739 -0.0379317 20.4024 0.0903577 22.7807C0.194211 25.0883 0.695151 27.1323 2.30182 28.8164C3.90849 30.5005 5.84505 31.0276 8.03819 31.1433C10.2985 31.2783 17.0734 31.2783 19.3338 31.1433C21.5269 31.034 23.4696 30.5069 25.0701 28.8164C26.6707 27.1323 27.1716 25.0883 27.2816 22.7807C27.4099 20.4024 27.4099 13.2804 27.2816 10.9021V10.9021ZM24.3615 25.3325C23.885 26.5924 22.9625 27.563 21.759 28.0708C19.9569 28.8229 15.6806 28.6493 13.689 28.6493C11.6975 28.6493 7.41507 28.8164 5.61902 28.0708C4.42165 27.5694 3.49919 26.5988 3.01658 25.3325C2.30182 23.4363 2.46677 18.9369 2.46677 16.8414C2.46677 14.7459 2.30793 10.24 3.01658 8.35023C3.49308 7.09037 4.41554 6.11977 5.61902 5.61197C7.42118 4.85992 11.6975 5.03347 13.689 5.03347C15.6806 5.03347 19.963 4.86634 21.759 5.61197C22.9564 6.11334 23.8789 7.08394 24.3615 8.35023C25.0762 10.2464 24.9113 14.7459 24.9113 16.8414C24.9113 18.9369 25.0762 23.4428 24.3615 25.3325Z" fill="#282828"/>
</g>
<defs>
<clipPath id="clip0">
<rect width="27.3684" height="32.9105" fill="white" transform="translate(0 0.392578)"/>
</clipPath>
</defs>
</svg>
