<svg width="481" height="442" viewBox="0 0 481 442" fill="none" xmlns="http://www.w3.org/2000/svg">
<path d="M437.926 367.818H44.1044C40.6022 367.818 37.2435 366.421 34.7671 363.934C32.2906 361.447 30.8994 358.074 30.8994 354.557V354.557C173.66 337.895 313.737 337.895 451.131 354.557C451.131 356.298 450.789 358.023 450.126 359.632C449.462 361.241 448.489 362.703 447.263 363.934C446.037 365.165 444.581 366.142 442.979 366.809C441.377 367.475 439.66 367.818 437.926 367.818Z" fill="#2F2E41"/>
<path d="M451.131 355.455L30.8994 354.678L79.6027 272.779L79.8358 272.391V91.8946C79.8356 89.7038 80.2672 87.5344 81.1061 85.5103C81.9449 83.4862 83.1745 81.647 84.7246 80.0979C86.2747 78.5487 88.1149 77.3199 90.1403 76.4816C92.1656 75.6433 94.3363 75.2119 96.5285 75.2121H383.171C385.363 75.2119 387.534 75.6433 389.56 76.4816C391.585 77.3199 393.425 78.5487 394.975 80.0979C396.525 81.647 397.755 83.4862 398.594 85.5103C399.433 87.5344 399.864 89.7038 399.864 91.8946V273.633L451.131 355.455Z" fill="#3F3D56"/>
<path d="M96.0777 86.5455C94.6354 86.5471 93.2527 87.1225 92.2328 88.1456C91.213 89.1686 90.6393 90.5556 90.6377 92.0024V257.27C90.6394 258.717 91.2131 260.104 92.2329 261.127C93.2527 262.15 94.6354 262.726 96.0777 262.727H385.951C387.394 262.726 388.776 262.15 389.796 261.127C390.816 260.104 391.39 258.717 391.391 257.27V92.0024C391.39 90.5557 390.816 89.1686 389.796 88.1456C388.776 87.1226 387.394 86.5472 385.951 86.5455H96.0777Z" fill="white"/>
<path d="M97.6794 284.364C97.2339 284.364 96.7978 284.492 96.4226 284.731C96.0474 284.97 95.7487 285.311 95.5618 285.713L80.5513 318.167C80.3879 318.521 80.3164 318.909 80.3435 319.297C80.3705 319.685 80.4952 320.06 80.7061 320.387C80.9169 320.714 81.2072 320.984 81.5501 321.17C81.8931 321.357 82.2777 321.455 82.6686 321.455H398.331C398.728 321.455 399.119 321.354 399.466 321.161C399.813 320.969 400.104 320.691 400.313 320.355C400.522 320.019 400.641 319.635 400.659 319.24C400.677 318.846 400.593 318.453 400.415 318.1L384.099 285.645C383.907 285.259 383.609 284.935 383.241 284.708C382.873 284.482 382.448 284.362 382.015 284.364H97.6794Z" fill="#2F2E41"/>
<path d="M239.47 83.4545C241.461 83.4545 243.075 82.0707 243.075 80.3636C243.075 78.6566 241.461 77.2727 239.47 77.2727C237.479 77.2727 235.865 78.6566 235.865 80.3636C235.865 82.0707 237.479 83.4545 239.47 83.4545Z" fill="white"/>
<path d="M208.998 327.636C208.486 327.637 207.989 327.805 207.582 328.115C207.176 328.425 206.883 328.86 206.749 329.352L202.986 343.261C202.893 343.604 202.881 343.965 202.951 344.314C203.02 344.663 203.169 344.991 203.387 345.274C203.604 345.556 203.884 345.785 204.205 345.942C204.525 346.1 204.878 346.182 205.235 346.182H276.796C277.167 346.182 277.533 346.093 277.863 345.924C278.193 345.755 278.478 345.509 278.693 345.208C278.908 344.907 279.048 344.559 279.101 344.193C279.154 343.827 279.118 343.454 278.996 343.105L274.159 329.196C274 328.741 273.703 328.346 273.308 328.066C272.914 327.787 272.442 327.637 271.957 327.636H208.998Z" fill="#2F2E41"/>
<path d="M399.632 269.939V273.03H79.3086L79.5495 272.644V269.939H399.632Z" fill="#2F2E41"/>
<path d="M352.508 101.415H125.956V248.467H352.508V101.415Z" fill="#3F3D56"/>
<path d="M318.694 221.423H256.139V163.109H318.694V221.423ZM256.69 220.872H318.143V163.659H256.69V220.872Z" fill="#D0CDE1"/>
<path d="M256.397 163.057L256.021 163.459L317.851 221.151L318.226 220.749L256.397 163.057Z" fill="#D0CDE1"/>
<path d="M317.853 163.058L256.021 220.748L256.397 221.15L318.228 163.46L317.853 163.058Z" fill="#D0CDE1"/>
<path d="M234.16 181.702H169.914V182.547H234.16V181.702Z" fill="#D0CDE1"/>
<path d="M234.16 191.843H169.914V192.688H234.16V191.843Z" fill="#D0CDE1"/>
<path d="M234.16 201.985H169.914V202.83H234.16V201.985Z" fill="#D0CDE1"/>
<path d="M318.694 133.53H169.068V123.388H318.694V133.53ZM169.62 132.981H318.142V123.936H169.62V132.981Z" fill="#D0CDE1"/>
<path d="M184.285 154.658H169.914C171.023 149.932 170.89 144.82 169.914 139.445H184.285C182.273 144.516 182.273 149.587 184.285 154.658Z" fill="#D0CDE1"/>
<path d="M180.058 142.826H171.604V144.516H180.058V142.826Z" fill="#3F3D56"/>
<path d="M180.058 146.206H171.604V147.897H180.058V146.206Z" fill="#3F3D56"/>
<path d="M180.058 149.587H171.604V151.277H180.058V149.587Z" fill="#3F3D56"/>
<path d="M294.179 176.631H279.809C280.918 171.905 280.784 166.793 279.809 161.419H294.179C292.168 166.489 292.168 171.56 294.179 176.631Z" fill="#D0CDE1"/>
<path d="M290.798 164.799H282.345V166.49H290.798V164.799Z" fill="#3F3D56"/>
<path d="M290.798 168.18H282.345V169.87H290.798V168.18Z" fill="#3F3D56"/>
<path d="M290.798 171.56H282.345V173.25H290.798V171.56Z" fill="#3F3D56"/>
<path d="M313.622 145.361H298.406C299.581 140.636 299.439 135.523 298.406 130.149H313.622C311.492 135.22 311.492 140.291 313.622 145.361Z" fill="#D0CDE1"/>
<path d="M310.241 133.53H300.942V135.22H310.241V133.53Z" fill="#3F3D56"/>
<path d="M310.241 136.91H300.942V138.6H310.241V136.91Z" fill="#3F3D56"/>
<path d="M310.241 140.291H300.942V141.981H310.241V140.291Z" fill="#3F3D56"/>
</svg>
