<svg width="36" height="32" viewBox="0 0 36 32" fill="none" xmlns="http://www.w3.org/2000/svg">
<path d="M6 4.5L7.4375 3.5L9 2.625L10.5 1.9375L12.25 1.5L15.125 1H18.5H21.625L24.75 1.5L26.625 1.9375L28.375 2.625L29.6875 3.5L31 4.5" stroke="#A5FFD6" stroke-width="2"/>
<path d="M14.8007 29.097L13.3267 28.1516L11.9204 27.0429L10.7112 25.9202L9.63731 24.4708L8.07515 22.006L6.7836 18.8879L5.58771 16.0008L4.85376 12.9223L4.54043 11.0226L4.5059 9.14274L4.81202 7.5953L5.23363 6.00002" stroke="#A5FFD6" stroke-width="2"/>
<path d="M31.567 6.00002L31.9407 7.71078L32.1512 9.48919L32.2123 11.1381L31.9468 12.9223L31.3086 15.7698L30.017 18.8879L28.8211 21.775L27.1633 24.4708L26.0416 26.0357L24.7367 27.3894L23.426 28.2671L21.9999 29.097" stroke="#A5FFD6" stroke-width="2"/>
</svg>
