<svg width="61" height="61" viewBox="0 0 61 61" fill="none" xmlns="http://www.w3.org/2000/svg">
<path d="M37.5615 3.93164L11.4375 36.2187H26.6875L22.9334 56.8575C22.9262 56.898 22.9281 56.9395 22.9387 56.9793C22.9494 57.019 22.9686 57.0559 22.9951 57.0873C23.0216 57.1188 23.0546 57.1441 23.0919 57.1614C23.1292 57.1787 23.1699 57.1876 23.211 57.1875V57.1875C23.2547 57.1875 23.2979 57.1772 23.337 57.1575C23.376 57.1379 23.41 57.1094 23.4362 57.0743L49.5625 24.7813H34.3125L38.0845 4.14014C38.0896 4.09902 38.0858 4.05728 38.0735 4.01772C38.0612 3.97815 38.0406 3.94166 38.0131 3.91067C37.9856 3.87967 37.9519 3.85489 37.914 3.83796C37.8762 3.82104 37.8352 3.81236 37.7938 3.8125V3.8125C37.7484 3.81268 37.7037 3.82357 37.6634 3.84427C37.623 3.86497 37.5881 3.89491 37.5615 3.93164V3.93164Z" stroke="#FACABB" stroke-width="3" stroke-linecap="round" stroke-linejoin="round"/>
</svg>
